<?xml version="1.0" encoding="utf-8"?>
<!-- Generator: Adobe Illustrator 17.0.0, SVG Export Plug-In . SVG Version: 6.00 Build 0)  -->
<!DOCTYPE svg PUBLIC "-//W3C//DTD SVG 1.1//EN" "http://www.w3.org/Graphics/SVG/1.1/DTD/svg11.dtd">
<svg version="1.1" id="Слой_1" xmlns="http://www.w3.org/2000/svg" xmlns:xlink="http://www.w3.org/1999/xlink" x="0px" y="0px"
	 width="169px" height="93px" viewBox="0 0 169 93" enable-background="new 0 0 169 93" xml:space="preserve">
<text transform="matrix(1.14 0 0 1 120.5225 51.54)" fill="#FFFFFF" font-family="'MyriadPro-Regular'" font-size="14">людей</text>
<text transform="matrix(1.14 0 0 1 71.4541 36.9463)" fill="#FFFFFF" font-family="'MyriadPro-Regular'" font-size="14">творческих</text>
<text transform="matrix(1.14 0 0 1 4.001 17.6396)" fill="#FFFFFF" font-family="'MyriadPro-Regular'" font-size="14">блог</text>
<rect id="Заливка" x="69" y="42" fill="#084EC0" width="48" height="43"/>
<g id="Контуры">
	<line fill="none" stroke="#FFDD00" stroke-width="2" stroke-miterlimit="10" x1="0" y1="21" x2="112" y2="21"/>
	<line fill="none" stroke="#FFDD00" stroke-width="2" stroke-miterlimit="10" x1="50" y1="41" x2="169" y2="41"/>
	<line fill="none" stroke="#FFDD00" stroke-width="2" stroke-miterlimit="10" x1="68" y1="0" x2="68" y2="93"/>
	<line fill="none" stroke="#FFDD00" stroke-miterlimit="10" x1="117.5" y1="41" x2="117.5" y2="92"/>
	<line fill="none" stroke="#FFDD00" stroke-miterlimit="10" x1="67" y1="85.5" x2="118" y2="85.5"/>
	<text transform="matrix(1.0309 0 0 1 68.2402 75.8398)" fill="#FFFFFF" font-family="'MSReferenceSansSerif'" font-size="20.37"> K</text>
	
		<text id="К" transform="matrix(1.0309 0 0 1 88.7275 75.8398)" fill="#FFFFFF" font-family="'MSReferenceSansSerif'" font-size="32.98">K</text>
	<path fill="#07259B" d="M117,92V41V92z"/>
</g>
</svg>
