<?xml version="1.0" encoding="utf-8"?>
<!-- Generator: Adobe Illustrator 17.0.0, SVG Export Plug-In . SVG Version: 6.00 Build 0)  -->
<!DOCTYPE svg PUBLIC "-//W3C//DTD SVG 1.1//EN" "http://www.w3.org/Graphics/SVG/1.1/DTD/svg11.dtd">
<svg version="1.1" id="Слой_1" xmlns="http://www.w3.org/2000/svg" xmlns:xlink="http://www.w3.org/1999/xlink" x="0px" y="0px"
	 width="295.264px" height="22.534px" viewBox="0 0 295.264 22.534" enable-background="new 0 0 295.264 22.534"
	 xml:space="preserve">
<g id="XMLID_4_">
	<g>
		
			<linearGradient id="SVGID_1_" gradientUnits="userSpaceOnUse" x1="4.8328" y1="12.4687" x2="300.0531" y2="12.4687" gradientTransform="matrix(1 0.0053 -0.0053 1 -4.7328 -1.3558)">
			<stop  offset="0.0056" style="stop-color:#BD2F2E"/>
			<stop  offset="1" style="stop-color:#FDD025"/>
		</linearGradient>
		<path fill="url(#SVGID_1_)" d="M31.289,17.615l-9-0.048l0.075-14.074L9.074,3.423L9,17.497l-9-0.048L0.093,0l31.289,0.167
			L31.289,17.615z"/>
		
			<linearGradient id="SVGID_2_" gradientUnits="userSpaceOnUse" x1="4.8328" y1="12.4687" x2="300.0531" y2="12.4687" gradientTransform="matrix(1 0.0053 -0.0053 1 -4.7328 -1.3558)">
			<stop  offset="0.0056" style="stop-color:#BD2F2E"/>
			<stop  offset="1" style="stop-color:#FDD025"/>
		</linearGradient>
		<path fill="url(#SVGID_2_)" d="M67.23,11.045c-0.006,1.086-0.343,2.073-1.011,2.96s-1.542,1.617-2.622,2.189
			c-1.127,0.604-2.401,1.058-3.823,1.362c-1.422,0.305-2.944,0.453-4.567,0.444c-1.498-0.008-2.769-0.095-3.814-0.261
			s-2.113-0.396-3.203-0.69l-0.029,5.484L39.7,22.488L39.796,4.5l8.461,0.045L48.25,5.917c1.298-0.509,2.623-0.92,3.975-1.233
			c1.351-0.313,2.908-0.465,4.672-0.456c3.277,0.018,5.822,0.633,7.633,1.845C66.341,7.286,67.241,8.943,67.23,11.045z
			 M58.534,11.086c0.007-1.279-0.425-2.209-1.294-2.792c-0.87-0.582-2.249-0.878-4.134-0.888c-0.796-0.004-1.614,0.052-2.457,0.168
			c-0.843,0.116-1.646,0.286-2.411,0.508l-0.036,6.611c0.561,0.112,1.16,0.186,1.8,0.22c0.639,0.035,1.271,0.054,1.894,0.058
			c2.229,0.012,3.89-0.305,4.985-0.951C57.976,13.376,58.527,12.397,58.534,11.086z"/>
		
			<linearGradient id="SVGID_3_" gradientUnits="userSpaceOnUse" x1="4.8328" y1="12.4687" x2="300.0531" y2="12.4687" gradientTransform="matrix(1 0.0053 -0.0053 1 -4.7328 -1.3558)">
			<stop  offset="0.0056" style="stop-color:#BD2F2E"/>
			<stop  offset="1" style="stop-color:#FDD025"/>
		</linearGradient>
		<path fill="url(#SVGID_3_)" d="M100.229,11.408c-0.011,2.164-1.282,3.863-3.813,5.096c-2.53,1.232-6.076,1.837-10.639,1.813
			s-8.102-0.666-10.619-1.926c-2.517-1.26-3.769-2.972-3.758-5.136c0.012-2.18,1.291-3.884,3.836-5.113
			c2.546-1.229,6.084-1.831,10.616-1.807c4.594,0.024,8.141,0.668,10.642,1.932C98.996,7.531,100.241,9.244,100.229,11.408z
			 M89.829,14.553c0.549-0.333,0.961-0.735,1.237-1.206c0.276-0.472,0.416-1.125,0.42-1.961c0.004-0.773-0.133-1.422-0.412-1.948
			c-0.278-0.525-0.667-0.945-1.165-1.26c-0.499-0.323-1.099-0.553-1.801-0.689c-0.702-0.137-1.459-0.207-2.272-0.211
			s-1.536,0.046-2.169,0.152c-0.633,0.106-1.24,0.322-1.82,0.647c-0.518,0.302-0.93,0.718-1.237,1.247
			c-0.308,0.53-0.463,1.197-0.468,2.001c-0.004,0.719,0.125,1.343,0.389,1.872c0.263,0.528,0.651,0.955,1.165,1.277
			c0.498,0.308,1.095,0.533,1.789,0.678c0.695,0.145,1.487,0.219,2.378,0.224c0.766,0.004,1.497-0.057,2.192-0.182
			C88.752,15.068,89.343,14.854,89.829,14.553z"/>
		
			<linearGradient id="SVGID_4_" gradientUnits="userSpaceOnUse" x1="4.8328" y1="12.4687" x2="300.0531" y2="12.4687" gradientTransform="matrix(1 0.0053 -0.0053 1 -4.7328 -1.3558)">
			<stop  offset="0.0056" style="stop-color:#BD2F2E"/>
			<stop  offset="1" style="stop-color:#FDD025"/>
		</linearGradient>
		<path fill="url(#SVGID_4_)" d="M132.652,14.184c-0.003,0.633-0.26,1.193-0.771,1.683c-0.51,0.49-1.188,0.896-2.034,1.22
			c-1.065,0.409-2.188,0.682-3.368,0.82c-1.181,0.139-2.583,0.203-4.208,0.194l-16.031-0.086l0.07-13.16l15.352,0.082
			c1.922,0.01,3.336,0.049,4.242,0.116s1.796,0.225,2.669,0.472c0.92,0.255,1.61,0.59,2.069,1.007
			c0.459,0.417,0.687,0.91,0.684,1.48c-0.003,0.648-0.377,1.215-1.122,1.699c-0.745,0.484-1.642,0.853-2.69,1.104l0,0.129
			c1.452,0.188,2.673,0.555,3.662,1.104C132.165,12.597,132.657,13.309,132.652,14.184z M123.958,14.008
			c0.003-0.57-0.319-0.973-0.966-1.206c-0.647-0.234-1.604-0.354-2.869-0.361l-5.484-0.029l-0.016,3.012l5.625,0.03
			c1.156,0.006,2.063-0.12,2.721-0.378C123.625,14.816,123.955,14.461,123.958,14.008z M122.813,8.904
			c0.002-0.484-0.289-0.83-0.874-1.036c-0.585-0.206-1.525-0.313-2.822-0.32l-4.453-0.023l-0.014,2.625l4.594,0.024
			c1.141,0.006,2.02-0.104,2.639-0.332C122.5,9.615,122.811,9.302,122.813,8.904z"/>
		
			<linearGradient id="SVGID_5_" gradientUnits="userSpaceOnUse" x1="4.8328" y1="12.4687" x2="300.0531" y2="12.4687" gradientTransform="matrix(1 0.0053 -0.0053 1 -4.7328 -1.3558)">
			<stop  offset="0.0056" style="stop-color:#BD2F2E"/>
			<stop  offset="1" style="stop-color:#FDD025"/>
		</linearGradient>
		<path fill="url(#SVGID_5_)" d="M165.689,11.757c-0.012,2.165-1.282,3.863-3.813,5.095s-6.076,1.837-10.639,1.813
			s-8.102-0.666-10.619-1.926c-2.517-1.26-3.769-2.972-3.758-5.136c0.012-2.18,1.291-3.884,3.836-5.112
			c2.546-1.229,6.084-1.831,10.616-1.807c4.593,0.024,8.141,0.668,10.642,1.932S165.701,9.593,165.689,11.757z M155.289,14.901
			c0.549-0.333,0.961-0.735,1.237-1.206c0.276-0.472,0.416-1.125,0.421-1.961c0.004-0.773-0.133-1.423-0.412-1.948
			c-0.278-0.525-0.666-0.945-1.165-1.26c-0.498-0.323-1.099-0.553-1.801-0.689c-0.702-0.137-1.46-0.207-2.271-0.211
			c-0.813-0.004-1.536,0.046-2.169,0.152c-0.634,0.106-1.241,0.322-1.82,0.646c-0.518,0.302-0.93,0.718-1.237,1.248
			c-0.308,0.529-0.463,1.197-0.468,2.001c-0.004,0.719,0.125,1.343,0.389,1.871c0.263,0.529,0.651,0.955,1.165,1.278
			c0.498,0.307,1.095,0.533,1.789,0.678c0.695,0.144,1.487,0.219,2.378,0.223c0.766,0.005,1.496-0.056,2.192-0.182
			C154.213,15.417,154.804,15.203,155.289,14.901z"/>
		
			<linearGradient id="SVGID_6_" gradientUnits="userSpaceOnUse" x1="4.8328" y1="12.4687" x2="300.0531" y2="12.4687" gradientTransform="matrix(1 0.0053 -0.0053 1 -4.7328 -1.3558)">
			<stop  offset="0.0056" style="stop-color:#BD2F2E"/>
			<stop  offset="1" style="stop-color:#FDD025"/>
		</linearGradient>
		<path fill="url(#SVGID_6_)" d="M197.787,18.503l-8.461-0.045l0.055-10.219l-6.938-0.037c-0.05,0.585-0.088,1.041-0.113,1.365
			c-0.024,0.324-0.054,0.701-0.088,1.13c-0.116,1.257-0.332,2.279-0.649,3.067c-0.316,0.787-0.718,1.43-1.205,1.927
			c-0.472,0.506-0.978,0.905-1.519,1.199c-0.54,0.294-1.085,0.549-1.633,0.765c-0.626,0.247-1.443,0.441-2.452,0.585
			c-1.009,0.143-1.981,0.212-2.919,0.207c-0.734-0.004-1.477-0.021-2.227-0.053c-0.75-0.032-1.195-0.048-1.336-0.049l0.018-3.375
			l0.258,0.002c0.063,0,0.172,0.005,0.328,0.013c0.156,0.009,0.313,0.014,0.469,0.015c0.406,0.002,0.824-0.016,1.255-0.052
			c0.43-0.037,0.785-0.121,1.067-0.252c1.05-0.495,1.752-1.118,2.107-1.87s0.615-1.866,0.78-3.342
			c0.065-0.546,0.131-1.171,0.197-1.874s0.125-1.5,0.177-2.39l22.898,0.122L197.787,18.503z"/>
		
			<linearGradient id="SVGID_7_" gradientUnits="userSpaceOnUse" x1="4.8328" y1="12.4687" x2="300.0531" y2="12.4687" gradientTransform="matrix(1 0.0053 -0.0053 1 -4.7328 -1.3558)">
			<stop  offset="0.0056" style="stop-color:#BD2F2E"/>
			<stop  offset="1" style="stop-color:#FDD025"/>
		</linearGradient>
		<path fill="url(#SVGID_7_)" d="M232.696,12.114c-0.011,2.164-1.282,3.863-3.813,5.096c-2.529,1.232-6.076,1.837-10.639,1.813
			s-8.102-0.666-10.619-1.926c-2.517-1.26-3.769-2.972-3.758-5.136c0.012-2.18,1.291-3.884,3.836-5.113
			c2.546-1.229,6.085-1.831,10.616-1.807c4.594,0.024,8.141,0.668,10.642,1.932C231.464,8.237,232.708,9.95,232.696,12.114z
			 M222.297,15.259c0.549-0.333,0.961-0.735,1.237-1.206c0.275-0.472,0.416-1.125,0.42-1.961c0.004-0.774-0.133-1.423-0.411-1.948
			c-0.278-0.525-0.667-0.945-1.165-1.26c-0.499-0.323-1.099-0.553-1.802-0.689c-0.702-0.137-1.459-0.207-2.271-0.211
			s-1.536,0.046-2.169,0.152c-0.634,0.106-1.24,0.322-1.82,0.647c-0.518,0.302-0.93,0.718-1.237,1.247
			c-0.308,0.53-0.463,1.197-0.468,2.002c-0.004,0.719,0.126,1.343,0.389,1.871s0.651,0.955,1.165,1.277
			c0.498,0.308,1.095,0.533,1.789,0.678c0.695,0.145,1.487,0.219,2.378,0.224c0.766,0.004,1.497-0.057,2.192-0.182
			C221.22,15.774,221.811,15.561,222.297,15.259z"/>
		
			<linearGradient id="SVGID_8_" gradientUnits="userSpaceOnUse" x1="4.8328" y1="12.4687" x2="300.0531" y2="12.4687" gradientTransform="matrix(1 0.0053 -0.0053 1 -4.7328 -1.3558)">
			<stop  offset="0.0056" style="stop-color:#BD2F2E"/>
			<stop  offset="1" style="stop-color:#FDD025"/>
		</linearGradient>
		<path fill="url(#SVGID_8_)" d="M266.646,18.87l-9.742-0.052l-7.022-5.253l-2.684-0.014l-0.027,5.215l-8.461-0.046l0.069-13.16
			l8.461,0.045l-0.028,5.285c1.561,0,2.637-0.078,3.231-0.235c0.594-0.157,1.283-0.577,2.066-1.26
			c0.235-0.202,0.518-0.462,0.848-0.781c0.328-0.319,0.587-0.563,0.775-0.734c0.862-0.761,1.868-1.324,3.018-1.689
			c1.148-0.365,2.745-0.542,4.789-0.531c0.593,0.003,1.221,0.011,1.884,0.022s1.112,0.018,1.347,0.019l-0.019,3.516l-2.286-0.012
			c-0.933-0.005-1.677,0.108-2.229,0.339c-0.554,0.231-1.034,0.577-1.442,1.036c-0.347,0.381-0.662,0.682-0.947,0.903
			s-0.649,0.409-1.093,0.563L266.646,18.87z"/>
		
			<linearGradient id="SVGID_9_" gradientUnits="userSpaceOnUse" x1="4.8328" y1="12.4687" x2="300.0531" y2="12.4687" gradientTransform="matrix(1 0.0053 -0.0053 1 -4.7328 -1.3558)">
			<stop  offset="0.0056" style="stop-color:#BD2F2E"/>
			<stop  offset="1" style="stop-color:#FDD025"/>
		</linearGradient>
		<path fill="url(#SVGID_9_)" d="M286.856,17.583c-0.454,0.17-1.018,0.374-1.691,0.612c-0.673,0.238-1.307,0.427-1.901,0.564
			c-0.829,0.183-1.689,0.316-2.58,0.402c-0.892,0.085-1.868,0.124-2.931,0.119c-2.5-0.014-4.592-0.411-6.275-1.194
			c-1.683-0.782-2.521-1.774-2.515-2.978c0.005-0.961,0.438-1.744,1.301-2.349c0.863-0.605,2.084-1.08,3.664-1.422
			c1.564-0.343,3.504-0.583,5.816-0.719c2.313-0.136,4.713-0.233,7.197-0.29l0.001-0.07c0.004-0.727-0.588-1.232-1.773-1.516
			c-1.187-0.284-2.936-0.432-5.248-0.444c-1.391-0.007-2.876,0.107-4.455,0.345s-2.713,0.421-3.401,0.55l-0.773-0.004l0.017-3.176
			c0.892-0.113,2.342-0.244,4.351-0.393c2.008-0.149,4.021-0.219,6.036-0.208c4.797,0.025,8.26,0.413,10.389,1.163
			c2.129,0.75,3.188,1.914,3.181,3.492l-0.048,8.954l-8.367-0.045L286.856,17.583z M286.867,15.535l0.015-2.733
			c-1.142,0.041-2.376,0.099-3.704,0.174c-1.329,0.074-2.337,0.164-3.025,0.27c-0.845,0.128-1.49,0.317-1.937,0.567
			c-0.446,0.252-0.671,0.583-0.674,0.995c-0.001,0.273,0.045,0.495,0.138,0.667s0.326,0.337,0.7,0.494
			c0.358,0.158,0.788,0.275,1.287,0.352c0.5,0.077,1.281,0.118,2.344,0.124c0.844,0.004,1.699-0.076,2.567-0.243
			S286.209,15.813,286.867,15.535z"/>
	</g>
	<g>
		
			<linearGradient id="SVGID_10_" gradientUnits="userSpaceOnUse" x1="8.8326" y1="12.4685" x2="296.0531" y2="12.4685" gradientTransform="matrix(1 0.0053 -0.0053 1 -4.7328 -1.3558)">
			<stop  offset="0" style="stop-color:#FDD025"/>
			<stop  offset="1" style="stop-color:#BD2F2E"/>
		</linearGradient>
		<path fill="url(#SVGID_10_)" d="M26.31,13.589l0.05-9.449l1,0.005l-0.05,9.449L26.31,13.589z M4.021,13.471l0.05-9.45l1,0.005
			l-0.05,9.449L4.021,13.471z"/>
		
			<linearGradient id="SVGID_11_" gradientUnits="userSpaceOnUse" x1="8.8326" y1="12.4685" x2="296.0531" y2="12.4685" gradientTransform="matrix(1 0.0053 -0.0053 1 -4.7328 -1.3558)">
			<stop  offset="0" style="stop-color:#FDD025"/>
			<stop  offset="1" style="stop-color:#BD2F2E"/>
		</linearGradient>
		<path fill="url(#SVGID_11_)" d="M43.721,18.51l0.053-9.988l0.461,0.002l-0.05,9.445l-0.002,0.544L43.721,18.51z M62.46,12.18
			c0.047-0.349,0.072-0.706,0.074-1.072c0.003-0.574-0.047-1.126-0.147-1.653c0.71,0.5,0.847,0.942,0.843,1.569
			c-0.001,0.192-0.035,0.348-0.206,0.575C62.866,11.809,62.679,12.002,62.46,12.18z"/>
		
			<linearGradient id="SVGID_12_" gradientUnits="userSpaceOnUse" x1="8.8326" y1="12.4685" x2="296.0531" y2="12.4685" gradientTransform="matrix(1 0.0053 -0.0053 1 -4.7328 -1.3558)">
			<stop  offset="0" style="stop-color:#FDD025"/>
			<stop  offset="1" style="stop-color:#BD2F2E"/>
		</linearGradient>
		<path fill="url(#SVGID_12_)" d="M95.429,12.477c0.037-0.342,0.056-0.699,0.058-1.07c0.002-0.392-0.019-0.773-0.062-1.143
			c0.807,0.551,0.805,0.938,0.804,1.124C96.228,11.554,96.226,11.94,95.429,12.477z M76.199,12.381
			c-0.801-0.549-0.799-0.938-0.798-1.105c0.001-0.186,0.003-0.571,0.815-1.107c-0.046,0.367-0.071,0.745-0.073,1.134
			C76.141,11.67,76.16,12.03,76.199,12.381z"/>
		
			<linearGradient id="SVGID_13_" gradientUnits="userSpaceOnUse" x1="8.8326" y1="12.4685" x2="296.0531" y2="12.4685" gradientTransform="matrix(1 0.0053 -0.0053 1 -4.7328 -1.3558)">
			<stop  offset="0" style="stop-color:#FDD025"/>
			<stop  offset="1" style="stop-color:#BD2F2E"/>
		</linearGradient>
		<polygon fill="url(#SVGID_13_)" points="110.262,14.036 110.289,8.876 110.657,8.878 110.629,14.038 		"/>
		
			<linearGradient id="SVGID_14_" gradientUnits="userSpaceOnUse" x1="8.8326" y1="12.4685" x2="296.0531" y2="12.4685" gradientTransform="matrix(1 0.0053 -0.0053 1 -4.7328 -1.3558)">
			<stop  offset="0" style="stop-color:#FDD025"/>
			<stop  offset="1" style="stop-color:#BD2F2E"/>
		</linearGradient>
		<path fill="url(#SVGID_14_)" d="M160.889,12.825c0.037-0.341,0.057-0.696,0.059-1.067c0.002-0.393-0.019-0.775-0.062-1.146
			c0.807,0.551,0.805,0.938,0.804,1.124C161.688,11.902,161.687,12.289,160.889,12.825z M141.66,12.729
			c-0.801-0.549-0.799-0.938-0.798-1.105c0.001-0.186,0.003-0.571,0.815-1.107c-0.046,0.367-0.071,0.745-0.073,1.135
			C141.602,12.02,141.62,12.379,141.66,12.729z"/>
		
			<linearGradient id="SVGID_15_" gradientUnits="userSpaceOnUse" x1="8.8326" y1="12.4685" x2="296.0531" y2="12.4685" gradientTransform="matrix(1 0.0053 -0.0053 1 -4.7328 -1.3558)">
			<stop  offset="0" style="stop-color:#FDD025"/>
			<stop  offset="1" style="stop-color:#BD2F2E"/>
		</linearGradient>
		<polygon fill="url(#SVGID_15_)" points="193.348,14.479 193.375,9.319 193.836,9.321 193.809,14.481 		"/>
		
			<linearGradient id="SVGID_16_" gradientUnits="userSpaceOnUse" x1="8.8326" y1="12.4685" x2="296.0531" y2="12.4685" gradientTransform="matrix(1 0.0053 -0.0053 1 -4.7328 -1.3558)">
			<stop  offset="0" style="stop-color:#FDD025"/>
			<stop  offset="1" style="stop-color:#BD2F2E"/>
		</linearGradient>
		<path fill="url(#SVGID_16_)" d="M227.895,13.184c0.038-0.345,0.058-0.703,0.06-1.073c0.002-0.391-0.019-0.772-0.062-1.141
			c0.807,0.551,0.805,0.938,0.804,1.124C228.695,12.26,228.693,12.646,227.895,13.184z M208.667,13.087
			c-0.802-0.549-0.8-0.938-0.799-1.106c0.001-0.185,0.003-0.57,0.815-1.107c-0.047,0.366-0.071,0.744-0.073,1.133
			C208.608,12.375,208.627,12.735,208.667,13.087z"/>
		
			<linearGradient id="SVGID_17_" gradientUnits="userSpaceOnUse" x1="8.8326" y1="12.4685" x2="296.0531" y2="12.4685" gradientTransform="matrix(1 0.0053 -0.0053 1 -4.7328 -1.3558)">
			<stop  offset="0" style="stop-color:#FDD025"/>
			<stop  offset="1" style="stop-color:#BD2F2E"/>
		</linearGradient>
		<polygon fill="url(#SVGID_17_)" points="242.73,14.742 242.757,9.582 243.218,9.584 243.19,14.745 		"/>
		
			<linearGradient id="SVGID_18_" gradientUnits="userSpaceOnUse" x1="8.8326" y1="12.4685" x2="296.0531" y2="12.4685" gradientTransform="matrix(1 0.0053 -0.0053 1 -4.7328 -1.3558)">
			<stop  offset="0" style="stop-color:#FDD025"/>
			<stop  offset="1" style="stop-color:#BD2F2E"/>
		</linearGradient>
		<path fill="url(#SVGID_18_)" d="M290.871,14.999l0.004-0.758l0.013-0.001l0.053-3.821c0.131,0.051,0.237,0.099,0.32,0.141
			l-0.023,4.441L290.871,14.999z"/>
	</g>
	<g>
		
			<linearGradient id="SVGID_19_" gradientUnits="userSpaceOnUse" x1="4.8328" y1="12.4687" x2="300.0531" y2="12.4687" gradientTransform="matrix(1 0.0053 -0.0053 1 -4.7328 -1.3558)">
			<stop  offset="0.0056" style="stop-color:#BD2F2E"/>
			<stop  offset="1" style="stop-color:#FDD025"/>
		</linearGradient>
		<path fill="url(#SVGID_19_)" d="M31.289,17.615l-9-0.048l0.075-14.074L9.074,3.423L9,17.497l-9-0.048L0.093,0l31.289,0.167
			L31.289,17.615z"/>
		
			<linearGradient id="SVGID_20_" gradientUnits="userSpaceOnUse" x1="4.8328" y1="12.4687" x2="300.0531" y2="12.4687" gradientTransform="matrix(1 0.0053 -0.0053 1 -4.7328 -1.3558)">
			<stop  offset="0.0056" style="stop-color:#BD2F2E"/>
			<stop  offset="1" style="stop-color:#FDD025"/>
		</linearGradient>
		<path fill="url(#SVGID_20_)" d="M67.23,11.045c-0.006,1.086-0.343,2.073-1.011,2.96s-1.542,1.617-2.622,2.189
			c-1.127,0.604-2.401,1.058-3.823,1.362c-1.422,0.305-2.944,0.453-4.567,0.444c-1.498-0.008-2.769-0.095-3.814-0.261
			s-2.113-0.396-3.203-0.69l-0.029,5.484L39.7,22.488L39.796,4.5l8.461,0.045L48.25,5.917c1.298-0.509,2.623-0.92,3.975-1.233
			c1.351-0.313,2.908-0.465,4.672-0.456c3.277,0.018,5.822,0.633,7.633,1.845C66.341,7.286,67.241,8.943,67.23,11.045z
			 M58.534,11.086c0.007-1.279-0.425-2.209-1.294-2.792c-0.87-0.582-2.249-0.878-4.134-0.888c-0.796-0.004-1.614,0.052-2.457,0.168
			c-0.843,0.116-1.646,0.286-2.411,0.508l-0.036,6.611c0.561,0.112,1.16,0.186,1.8,0.22c0.639,0.035,1.271,0.054,1.894,0.058
			c2.229,0.012,3.89-0.305,4.985-0.951C57.976,13.376,58.527,12.397,58.534,11.086z"/>
		
			<linearGradient id="SVGID_21_" gradientUnits="userSpaceOnUse" x1="4.8328" y1="12.4687" x2="300.0531" y2="12.4687" gradientTransform="matrix(1 0.0053 -0.0053 1 -4.7328 -1.3558)">
			<stop  offset="0.0056" style="stop-color:#BD2F2E"/>
			<stop  offset="1" style="stop-color:#FDD025"/>
		</linearGradient>
		<path fill="url(#SVGID_21_)" d="M100.229,11.408c-0.011,2.164-1.282,3.863-3.813,5.096c-2.53,1.232-6.076,1.837-10.639,1.813
			s-8.102-0.666-10.619-1.926c-2.517-1.26-3.769-2.972-3.758-5.136c0.012-2.18,1.291-3.884,3.836-5.113
			c2.546-1.229,6.084-1.831,10.616-1.807c4.594,0.024,8.141,0.668,10.642,1.932C98.996,7.531,100.241,9.244,100.229,11.408z
			 M89.829,14.553c0.549-0.333,0.961-0.735,1.237-1.206c0.276-0.472,0.416-1.125,0.42-1.961c0.004-0.773-0.133-1.422-0.412-1.948
			c-0.278-0.525-0.667-0.945-1.165-1.26c-0.499-0.323-1.099-0.553-1.801-0.689c-0.702-0.137-1.459-0.207-2.272-0.211
			s-1.536,0.046-2.169,0.152c-0.633,0.106-1.24,0.322-1.82,0.647c-0.518,0.302-0.93,0.718-1.237,1.247
			c-0.308,0.53-0.463,1.197-0.468,2.001c-0.004,0.719,0.125,1.343,0.389,1.872c0.263,0.528,0.651,0.955,1.165,1.277
			c0.498,0.308,1.095,0.533,1.789,0.678c0.695,0.145,1.487,0.219,2.378,0.224c0.766,0.004,1.497-0.057,2.192-0.182
			C88.752,15.068,89.343,14.854,89.829,14.553z"/>
		
			<linearGradient id="SVGID_22_" gradientUnits="userSpaceOnUse" x1="4.8328" y1="12.4687" x2="300.0531" y2="12.4687" gradientTransform="matrix(1 0.0053 -0.0053 1 -4.7328 -1.3558)">
			<stop  offset="0.0056" style="stop-color:#BD2F2E"/>
			<stop  offset="1" style="stop-color:#FDD025"/>
		</linearGradient>
		<path fill="url(#SVGID_22_)" d="M132.652,14.184c-0.003,0.633-0.26,1.193-0.771,1.683c-0.51,0.49-1.188,0.896-2.034,1.22
			c-1.065,0.409-2.188,0.682-3.368,0.82c-1.181,0.139-2.583,0.203-4.208,0.194l-16.031-0.086l0.07-13.16l15.352,0.082
			c1.922,0.01,3.336,0.049,4.242,0.116s1.796,0.225,2.669,0.472c0.92,0.255,1.61,0.59,2.069,1.007
			c0.459,0.417,0.687,0.91,0.684,1.48c-0.003,0.648-0.377,1.215-1.122,1.699c-0.745,0.484-1.642,0.853-2.69,1.104l0,0.129
			c1.452,0.188,2.673,0.555,3.662,1.104C132.165,12.597,132.657,13.309,132.652,14.184z M123.958,14.008
			c0.003-0.57-0.319-0.973-0.966-1.206c-0.647-0.234-1.604-0.354-2.869-0.361l-5.484-0.029l-0.016,3.012l5.625,0.03
			c1.156,0.006,2.063-0.12,2.721-0.378C123.625,14.816,123.955,14.461,123.958,14.008z M122.813,8.904
			c0.002-0.484-0.289-0.83-0.874-1.036c-0.585-0.206-1.525-0.313-2.822-0.32l-4.453-0.023l-0.014,2.625l4.594,0.024
			c1.141,0.006,2.02-0.104,2.639-0.332C122.5,9.615,122.811,9.302,122.813,8.904z"/>
		
			<linearGradient id="SVGID_23_" gradientUnits="userSpaceOnUse" x1="4.8328" y1="12.4687" x2="300.0531" y2="12.4687" gradientTransform="matrix(1 0.0053 -0.0053 1 -4.7328 -1.3558)">
			<stop  offset="0.0056" style="stop-color:#BD2F2E"/>
			<stop  offset="1" style="stop-color:#FDD025"/>
		</linearGradient>
		<path fill="url(#SVGID_23_)" d="M165.689,11.757c-0.012,2.165-1.282,3.863-3.813,5.095s-6.076,1.837-10.639,1.813
			s-8.102-0.666-10.619-1.926c-2.517-1.26-3.769-2.972-3.758-5.136c0.012-2.18,1.291-3.884,3.836-5.112
			c2.546-1.229,6.084-1.831,10.616-1.807c4.593,0.024,8.141,0.668,10.642,1.932S165.701,9.593,165.689,11.757z M155.289,14.901
			c0.549-0.333,0.961-0.735,1.237-1.206c0.276-0.472,0.416-1.125,0.421-1.961c0.004-0.773-0.133-1.423-0.412-1.948
			c-0.278-0.525-0.666-0.945-1.165-1.26c-0.498-0.323-1.099-0.553-1.801-0.689c-0.702-0.137-1.46-0.207-2.271-0.211
			c-0.813-0.004-1.536,0.046-2.169,0.152c-0.634,0.106-1.241,0.322-1.82,0.646c-0.518,0.302-0.93,0.718-1.237,1.248
			c-0.308,0.529-0.463,1.197-0.468,2.001c-0.004,0.719,0.125,1.343,0.389,1.871c0.263,0.529,0.651,0.955,1.165,1.278
			c0.498,0.307,1.095,0.533,1.789,0.678c0.695,0.144,1.487,0.219,2.378,0.223c0.766,0.005,1.496-0.056,2.192-0.182
			C154.213,15.417,154.804,15.203,155.289,14.901z"/>
		
			<linearGradient id="SVGID_24_" gradientUnits="userSpaceOnUse" x1="4.8328" y1="12.4687" x2="300.0531" y2="12.4687" gradientTransform="matrix(1 0.0053 -0.0053 1 -4.7328 -1.3558)">
			<stop  offset="0.0056" style="stop-color:#BD2F2E"/>
			<stop  offset="1" style="stop-color:#FDD025"/>
		</linearGradient>
		<path fill="url(#SVGID_24_)" d="M197.787,18.503l-8.461-0.045l0.055-10.219l-6.938-0.037c-0.05,0.585-0.088,1.041-0.113,1.365
			c-0.024,0.324-0.054,0.701-0.088,1.13c-0.116,1.257-0.332,2.279-0.649,3.067c-0.316,0.787-0.718,1.43-1.205,1.927
			c-0.472,0.506-0.978,0.905-1.519,1.199c-0.54,0.294-1.085,0.549-1.633,0.765c-0.626,0.247-1.443,0.441-2.452,0.585
			c-1.009,0.143-1.981,0.212-2.919,0.207c-0.734-0.004-1.477-0.021-2.227-0.053c-0.75-0.032-1.195-0.048-1.336-0.049l0.018-3.375
			l0.258,0.002c0.063,0,0.172,0.005,0.328,0.013c0.156,0.009,0.313,0.014,0.469,0.015c0.406,0.002,0.824-0.016,1.255-0.052
			c0.43-0.037,0.785-0.121,1.067-0.252c1.05-0.495,1.752-1.118,2.107-1.87s0.615-1.866,0.78-3.342
			c0.065-0.546,0.131-1.171,0.197-1.874s0.125-1.5,0.177-2.39l22.898,0.122L197.787,18.503z"/>
		
			<linearGradient id="SVGID_25_" gradientUnits="userSpaceOnUse" x1="4.8328" y1="12.4687" x2="300.0531" y2="12.4687" gradientTransform="matrix(1 0.0053 -0.0053 1 -4.7328 -1.3558)">
			<stop  offset="0.0056" style="stop-color:#BD2F2E"/>
			<stop  offset="1" style="stop-color:#FDD025"/>
		</linearGradient>
		<path fill="url(#SVGID_25_)" d="M232.696,12.114c-0.011,2.164-1.282,3.863-3.813,5.096c-2.529,1.232-6.076,1.837-10.639,1.813
			s-8.102-0.666-10.619-1.926c-2.517-1.26-3.769-2.972-3.758-5.136c0.012-2.18,1.291-3.884,3.836-5.113
			c2.546-1.229,6.085-1.831,10.616-1.807c4.594,0.024,8.141,0.668,10.642,1.932C231.464,8.237,232.708,9.95,232.696,12.114z
			 M222.297,15.259c0.549-0.333,0.961-0.735,1.237-1.206c0.275-0.472,0.416-1.125,0.42-1.961c0.004-0.774-0.133-1.423-0.411-1.948
			c-0.278-0.525-0.667-0.945-1.165-1.26c-0.499-0.323-1.099-0.553-1.802-0.689c-0.702-0.137-1.459-0.207-2.271-0.211
			s-1.536,0.046-2.169,0.152c-0.634,0.106-1.24,0.322-1.82,0.647c-0.518,0.302-0.93,0.718-1.237,1.247
			c-0.308,0.53-0.463,1.197-0.468,2.002c-0.004,0.719,0.126,1.343,0.389,1.871s0.651,0.955,1.165,1.277
			c0.498,0.308,1.095,0.533,1.789,0.678c0.695,0.145,1.487,0.219,2.378,0.224c0.766,0.004,1.497-0.057,2.192-0.182
			C221.22,15.774,221.811,15.561,222.297,15.259z"/>
		
			<linearGradient id="SVGID_26_" gradientUnits="userSpaceOnUse" x1="4.8328" y1="12.4687" x2="300.0531" y2="12.4687" gradientTransform="matrix(1 0.0053 -0.0053 1 -4.7328 -1.3558)">
			<stop  offset="0.0056" style="stop-color:#BD2F2E"/>
			<stop  offset="1" style="stop-color:#FDD025"/>
		</linearGradient>
		<path fill="url(#SVGID_26_)" d="M266.646,18.87l-9.742-0.052l-7.022-5.253l-2.684-0.014l-0.027,5.215l-8.461-0.046l0.069-13.16
			l8.461,0.045l-0.028,5.285c1.561,0,2.637-0.078,3.231-0.235c0.594-0.157,1.283-0.577,2.066-1.26
			c0.235-0.202,0.518-0.462,0.848-0.781c0.328-0.319,0.587-0.563,0.775-0.734c0.862-0.761,1.868-1.324,3.018-1.689
			c1.148-0.365,2.745-0.542,4.789-0.531c0.593,0.003,1.221,0.011,1.884,0.022s1.112,0.018,1.347,0.019l-0.019,3.516l-2.286-0.012
			c-0.933-0.005-1.677,0.108-2.229,0.339c-0.554,0.231-1.034,0.577-1.442,1.036c-0.347,0.381-0.662,0.682-0.947,0.903
			s-0.649,0.409-1.093,0.563L266.646,18.87z"/>
		
			<linearGradient id="SVGID_27_" gradientUnits="userSpaceOnUse" x1="4.8328" y1="12.4687" x2="300.0531" y2="12.4687" gradientTransform="matrix(1 0.0053 -0.0053 1 -4.7328 -1.3558)">
			<stop  offset="0.0056" style="stop-color:#BD2F2E"/>
			<stop  offset="1" style="stop-color:#FDD025"/>
		</linearGradient>
		<path fill="url(#SVGID_27_)" d="M286.856,17.583c-0.454,0.17-1.018,0.374-1.691,0.612c-0.673,0.238-1.307,0.427-1.901,0.564
			c-0.829,0.183-1.689,0.316-2.58,0.402c-0.892,0.085-1.868,0.124-2.931,0.119c-2.5-0.014-4.592-0.411-6.275-1.194
			c-1.683-0.782-2.521-1.774-2.515-2.978c0.005-0.961,0.438-1.744,1.301-2.349c0.863-0.605,2.084-1.08,3.664-1.422
			c1.564-0.343,3.504-0.583,5.816-0.719c2.313-0.136,4.713-0.233,7.197-0.29l0.001-0.07c0.004-0.727-0.588-1.232-1.773-1.516
			c-1.187-0.284-2.936-0.432-5.248-0.444c-1.391-0.007-2.876,0.107-4.455,0.345s-2.713,0.421-3.401,0.55l-0.773-0.004l0.017-3.176
			c0.892-0.113,2.342-0.244,4.351-0.393c2.008-0.149,4.021-0.219,6.036-0.208c4.797,0.025,8.26,0.413,10.389,1.163
			c2.129,0.75,3.188,1.914,3.181,3.492l-0.048,8.954l-8.367-0.045L286.856,17.583z M286.867,15.535l0.015-2.733
			c-1.142,0.041-2.376,0.099-3.704,0.174c-1.329,0.074-2.337,0.164-3.025,0.27c-0.845,0.128-1.49,0.317-1.937,0.567
			c-0.446,0.252-0.671,0.583-0.674,0.995c-0.001,0.273,0.045,0.495,0.138,0.667s0.326,0.337,0.7,0.494
			c0.358,0.158,0.788,0.275,1.287,0.352c0.5,0.077,1.281,0.118,2.344,0.124c0.844,0.004,1.699-0.076,2.567-0.243
			S286.209,15.813,286.867,15.535z"/>
	</g>
	<g>
		
			<linearGradient id="SVGID_28_" gradientUnits="userSpaceOnUse" x1="4.8328" y1="12.4687" x2="300.0531" y2="12.4687" gradientTransform="matrix(1 0.0053 -0.0053 1 -4.7328 -1.3558)">
			<stop  offset="0" style="stop-color:#FDD025"/>
			<stop  offset="1" style="stop-color:#BD2F2E"/>
		</linearGradient>
		<path fill="url(#SVGID_28_)" d="M31.289,17.615l-9-0.048l0.075-14.074L9.074,3.423L9,17.497l-9-0.048L0.093,0l31.289,0.167
			L31.289,17.615z"/>
		
			<linearGradient id="SVGID_29_" gradientUnits="userSpaceOnUse" x1="4.8328" y1="12.4687" x2="300.0531" y2="12.4687" gradientTransform="matrix(1 0.0053 -0.0053 1 -4.7328 -1.3558)">
			<stop  offset="0" style="stop-color:#FDD025"/>
			<stop  offset="1" style="stop-color:#BD2F2E"/>
		</linearGradient>
		<path fill="url(#SVGID_29_)" d="M67.23,11.045c-0.006,1.086-0.343,2.073-1.011,2.96s-1.542,1.617-2.622,2.189
			c-1.127,0.604-2.401,1.058-3.823,1.362c-1.422,0.305-2.944,0.453-4.567,0.444c-1.498-0.008-2.769-0.095-3.814-0.261
			s-2.113-0.396-3.203-0.69l-0.029,5.484L39.7,22.488L39.796,4.5l8.461,0.045L48.25,5.917c1.298-0.509,2.623-0.92,3.975-1.233
			c1.351-0.313,2.908-0.465,4.672-0.456c3.277,0.018,5.822,0.633,7.633,1.845C66.341,7.286,67.241,8.943,67.23,11.045z
			 M58.534,11.086c0.007-1.279-0.425-2.209-1.294-2.792c-0.87-0.582-2.249-0.878-4.134-0.888c-0.796-0.004-1.614,0.052-2.457,0.168
			c-0.843,0.116-1.646,0.286-2.411,0.508l-0.036,6.611c0.561,0.112,1.16,0.186,1.8,0.22c0.639,0.035,1.271,0.054,1.894,0.058
			c2.229,0.012,3.89-0.305,4.985-0.951C57.976,13.376,58.527,12.397,58.534,11.086z"/>
		
			<linearGradient id="SVGID_30_" gradientUnits="userSpaceOnUse" x1="4.8328" y1="12.4687" x2="300.0531" y2="12.4687" gradientTransform="matrix(1 0.0053 -0.0053 1 -4.7328 -1.3558)">
			<stop  offset="0" style="stop-color:#FDD025"/>
			<stop  offset="1" style="stop-color:#BD2F2E"/>
		</linearGradient>
		<path fill="url(#SVGID_30_)" d="M100.229,11.408c-0.011,2.164-1.282,3.863-3.813,5.096c-2.53,1.232-6.076,1.837-10.639,1.813
			s-8.102-0.666-10.619-1.926c-2.517-1.26-3.769-2.972-3.758-5.136c0.012-2.18,1.291-3.884,3.836-5.113
			c2.546-1.229,6.084-1.831,10.616-1.807c4.594,0.024,8.141,0.668,10.642,1.932C98.996,7.531,100.241,9.244,100.229,11.408z
			 M89.829,14.553c0.549-0.333,0.961-0.735,1.237-1.206c0.276-0.472,0.416-1.125,0.42-1.961c0.004-0.773-0.133-1.422-0.412-1.948
			c-0.278-0.525-0.667-0.945-1.165-1.26c-0.499-0.323-1.099-0.553-1.801-0.689c-0.702-0.137-1.459-0.207-2.272-0.211
			s-1.536,0.046-2.169,0.152c-0.633,0.106-1.24,0.322-1.82,0.647c-0.518,0.302-0.93,0.718-1.237,1.247
			c-0.308,0.53-0.463,1.197-0.468,2.001c-0.004,0.719,0.125,1.343,0.389,1.872c0.263,0.528,0.651,0.955,1.165,1.277
			c0.498,0.308,1.095,0.533,1.789,0.678c0.695,0.145,1.487,0.219,2.378,0.224c0.766,0.004,1.497-0.057,2.192-0.182
			C88.752,15.068,89.343,14.854,89.829,14.553z"/>
		
			<linearGradient id="SVGID_31_" gradientUnits="userSpaceOnUse" x1="4.8328" y1="12.4687" x2="300.0531" y2="12.4687" gradientTransform="matrix(1 0.0053 -0.0053 1 -4.7328 -1.3558)">
			<stop  offset="0" style="stop-color:#FDD025"/>
			<stop  offset="1" style="stop-color:#BD2F2E"/>
		</linearGradient>
		<path fill="url(#SVGID_31_)" d="M132.652,14.184c-0.003,0.633-0.26,1.193-0.771,1.683c-0.51,0.49-1.188,0.896-2.034,1.22
			c-1.065,0.409-2.188,0.682-3.368,0.82c-1.181,0.139-2.583,0.203-4.208,0.194l-16.031-0.086l0.07-13.16l15.352,0.082
			c1.922,0.01,3.336,0.049,4.242,0.116s1.796,0.225,2.669,0.472c0.92,0.255,1.61,0.59,2.069,1.007
			c0.459,0.417,0.687,0.91,0.684,1.48c-0.003,0.648-0.377,1.215-1.122,1.699c-0.745,0.484-1.642,0.853-2.69,1.104l0,0.129
			c1.452,0.188,2.673,0.555,3.662,1.104C132.165,12.597,132.657,13.309,132.652,14.184z M123.958,14.008
			c0.003-0.57-0.319-0.973-0.966-1.206c-0.647-0.234-1.604-0.354-2.869-0.361l-5.484-0.029l-0.016,3.012l5.625,0.03
			c1.156,0.006,2.063-0.12,2.721-0.378C123.625,14.816,123.955,14.461,123.958,14.008z M122.813,8.904
			c0.002-0.484-0.289-0.83-0.874-1.036c-0.585-0.206-1.525-0.313-2.822-0.32l-4.453-0.023l-0.014,2.625l4.594,0.024
			c1.141,0.006,2.02-0.104,2.639-0.332C122.5,9.615,122.811,9.302,122.813,8.904z"/>
		
			<linearGradient id="SVGID_32_" gradientUnits="userSpaceOnUse" x1="4.8328" y1="12.4687" x2="300.0531" y2="12.4687" gradientTransform="matrix(1 0.0053 -0.0053 1 -4.7328 -1.3558)">
			<stop  offset="0" style="stop-color:#FDD025"/>
			<stop  offset="1" style="stop-color:#BD2F2E"/>
		</linearGradient>
		<path fill="url(#SVGID_32_)" d="M165.689,11.757c-0.012,2.165-1.282,3.863-3.813,5.095s-6.076,1.837-10.639,1.813
			s-8.102-0.666-10.619-1.926c-2.517-1.26-3.769-2.972-3.758-5.136c0.012-2.18,1.291-3.884,3.836-5.112
			c2.546-1.229,6.084-1.831,10.616-1.807c4.593,0.024,8.141,0.668,10.642,1.932S165.701,9.593,165.689,11.757z M155.289,14.901
			c0.549-0.333,0.961-0.735,1.237-1.206c0.276-0.472,0.416-1.125,0.421-1.961c0.004-0.773-0.133-1.423-0.412-1.948
			c-0.278-0.525-0.666-0.945-1.165-1.26c-0.498-0.323-1.099-0.553-1.801-0.689c-0.702-0.137-1.46-0.207-2.271-0.211
			c-0.813-0.004-1.536,0.046-2.169,0.152c-0.634,0.106-1.241,0.322-1.82,0.646c-0.518,0.302-0.93,0.718-1.237,1.248
			c-0.308,0.529-0.463,1.197-0.468,2.001c-0.004,0.719,0.125,1.343,0.389,1.871c0.263,0.529,0.651,0.955,1.165,1.278
			c0.498,0.307,1.095,0.533,1.789,0.678c0.695,0.144,1.487,0.219,2.378,0.223c0.766,0.005,1.496-0.056,2.192-0.182
			C154.213,15.417,154.804,15.203,155.289,14.901z"/>
		
			<linearGradient id="SVGID_33_" gradientUnits="userSpaceOnUse" x1="4.8328" y1="12.4687" x2="300.0531" y2="12.4687" gradientTransform="matrix(1 0.0053 -0.0053 1 -4.7328 -1.3558)">
			<stop  offset="0" style="stop-color:#FDD025"/>
			<stop  offset="1" style="stop-color:#BD2F2E"/>
		</linearGradient>
		<path fill="url(#SVGID_33_)" d="M197.787,18.503l-8.461-0.045l0.055-10.219l-6.938-0.037c-0.05,0.585-0.088,1.041-0.113,1.365
			c-0.024,0.324-0.054,0.701-0.088,1.13c-0.116,1.257-0.332,2.279-0.649,3.067c-0.316,0.787-0.718,1.43-1.205,1.927
			c-0.472,0.506-0.978,0.905-1.519,1.199c-0.54,0.294-1.085,0.549-1.633,0.765c-0.626,0.247-1.443,0.441-2.452,0.585
			c-1.009,0.143-1.981,0.212-2.919,0.207c-0.734-0.004-1.477-0.021-2.227-0.053c-0.75-0.032-1.195-0.048-1.336-0.049l0.018-3.375
			l0.258,0.002c0.063,0,0.172,0.005,0.328,0.013c0.156,0.009,0.313,0.014,0.469,0.015c0.406,0.002,0.824-0.016,1.255-0.052
			c0.43-0.037,0.785-0.121,1.067-0.252c1.05-0.495,1.752-1.118,2.107-1.87s0.615-1.866,0.78-3.342
			c0.065-0.546,0.131-1.171,0.197-1.874s0.125-1.5,0.177-2.39l22.898,0.122L197.787,18.503z"/>
		
			<linearGradient id="SVGID_34_" gradientUnits="userSpaceOnUse" x1="4.8328" y1="12.4687" x2="300.0531" y2="12.4687" gradientTransform="matrix(1 0.0053 -0.0053 1 -4.7328 -1.3558)">
			<stop  offset="0" style="stop-color:#FDD025"/>
			<stop  offset="1" style="stop-color:#BD2F2E"/>
		</linearGradient>
		<path fill="url(#SVGID_34_)" d="M232.696,12.114c-0.011,2.164-1.282,3.863-3.813,5.096c-2.529,1.232-6.076,1.837-10.639,1.813
			s-8.102-0.666-10.619-1.926c-2.517-1.26-3.769-2.972-3.758-5.136c0.012-2.18,1.291-3.884,3.836-5.113
			c2.546-1.229,6.085-1.831,10.616-1.807c4.594,0.024,8.141,0.668,10.642,1.932C231.464,8.237,232.708,9.95,232.696,12.114z
			 M222.297,15.259c0.549-0.333,0.961-0.735,1.237-1.206c0.275-0.472,0.416-1.125,0.42-1.961c0.004-0.774-0.133-1.423-0.411-1.948
			c-0.278-0.525-0.667-0.945-1.165-1.26c-0.499-0.323-1.099-0.553-1.802-0.689c-0.702-0.137-1.459-0.207-2.271-0.211
			s-1.536,0.046-2.169,0.152c-0.634,0.106-1.24,0.322-1.82,0.647c-0.518,0.302-0.93,0.718-1.237,1.247
			c-0.308,0.53-0.463,1.197-0.468,2.002c-0.004,0.719,0.126,1.343,0.389,1.871s0.651,0.955,1.165,1.277
			c0.498,0.308,1.095,0.533,1.789,0.678c0.695,0.145,1.487,0.219,2.378,0.224c0.766,0.004,1.497-0.057,2.192-0.182
			C221.22,15.774,221.811,15.561,222.297,15.259z"/>
		
			<linearGradient id="SVGID_35_" gradientUnits="userSpaceOnUse" x1="4.8328" y1="12.4687" x2="300.0531" y2="12.4687" gradientTransform="matrix(1 0.0053 -0.0053 1 -4.7328 -1.3558)">
			<stop  offset="0" style="stop-color:#FDD025"/>
			<stop  offset="1" style="stop-color:#BD2F2E"/>
		</linearGradient>
		<path fill="url(#SVGID_35_)" d="M266.646,18.87l-9.742-0.052l-7.022-5.253l-2.684-0.014l-0.027,5.215l-8.461-0.046l0.069-13.16
			l8.461,0.045l-0.028,5.285c1.561,0,2.637-0.078,3.231-0.235c0.594-0.157,1.283-0.577,2.066-1.26
			c0.235-0.202,0.518-0.462,0.848-0.781c0.328-0.319,0.587-0.563,0.775-0.734c0.862-0.761,1.868-1.324,3.018-1.689
			c1.148-0.365,2.745-0.542,4.789-0.531c0.593,0.003,1.221,0.011,1.884,0.022s1.112,0.018,1.347,0.019l-0.019,3.516l-2.286-0.012
			c-0.933-0.005-1.677,0.108-2.229,0.339c-0.554,0.231-1.034,0.577-1.442,1.036c-0.347,0.381-0.662,0.682-0.947,0.903
			s-0.649,0.409-1.093,0.563L266.646,18.87z"/>
		
			<linearGradient id="SVGID_36_" gradientUnits="userSpaceOnUse" x1="4.8328" y1="12.4687" x2="300.0531" y2="12.4687" gradientTransform="matrix(1 0.0053 -0.0053 1 -4.7328 -1.3558)">
			<stop  offset="0" style="stop-color:#FDD025"/>
			<stop  offset="1" style="stop-color:#BD2F2E"/>
		</linearGradient>
		<path fill="url(#SVGID_36_)" d="M286.856,17.583c-0.454,0.17-1.018,0.374-1.691,0.612c-0.673,0.238-1.307,0.427-1.901,0.564
			c-0.829,0.183-1.689,0.316-2.58,0.402c-0.892,0.085-1.868,0.124-2.931,0.119c-2.5-0.014-4.592-0.411-6.275-1.194
			c-1.683-0.782-2.521-1.774-2.515-2.978c0.005-0.961,0.438-1.744,1.301-2.349c0.863-0.605,2.084-1.08,3.664-1.422
			c1.564-0.343,3.504-0.583,5.816-0.719c2.313-0.136,4.713-0.233,7.197-0.29l0.001-0.07c0.004-0.727-0.588-1.232-1.773-1.516
			c-1.187-0.284-2.936-0.432-5.248-0.444c-1.391-0.007-2.876,0.107-4.455,0.345s-2.713,0.421-3.401,0.55l-0.773-0.004l0.017-3.176
			c0.892-0.113,2.342-0.244,4.351-0.393c2.008-0.149,4.021-0.219,6.036-0.208c4.797,0.025,8.26,0.413,10.389,1.163
			c2.129,0.75,3.188,1.914,3.181,3.492l-0.048,8.954l-8.367-0.045L286.856,17.583z M286.867,15.535l0.015-2.733
			c-1.142,0.041-2.376,0.099-3.704,0.174c-1.329,0.074-2.337,0.164-3.025,0.27c-0.845,0.128-1.49,0.317-1.937,0.567
			c-0.446,0.252-0.671,0.583-0.674,0.995c-0.001,0.273,0.045,0.495,0.138,0.667s0.326,0.337,0.7,0.494
			c0.358,0.158,0.788,0.275,1.287,0.352c0.5,0.077,1.281,0.118,2.344,0.124c0.844,0.004,1.699-0.076,2.567-0.243
			S286.209,15.813,286.867,15.535z"/>
	</g>
	<g>
		
			<linearGradient id="SVGID_37_" gradientUnits="userSpaceOnUse" x1="4.8328" y1="12.4687" x2="300.0531" y2="12.4687" gradientTransform="matrix(1 0.0053 -0.0053 1 -4.7328 -1.3558)">
			<stop  offset="0.0056" style="stop-color:#BB2E3B"/>
			<stop  offset="1" style="stop-color:#FDD025"/>
		</linearGradient>
		<path fill="url(#SVGID_37_)" d="M31.289,17.615l-9-0.048l0.075-14.074L9.074,3.423L9,17.497l-9-0.048L0.093,0l31.289,0.167
			L31.289,17.615z"/>
		
			<linearGradient id="SVGID_38_" gradientUnits="userSpaceOnUse" x1="4.8328" y1="12.4687" x2="300.0531" y2="12.4687" gradientTransform="matrix(1 0.0053 -0.0053 1 -4.7328 -1.3558)">
			<stop  offset="0.0056" style="stop-color:#BB2E3B"/>
			<stop  offset="1" style="stop-color:#FDD025"/>
		</linearGradient>
		<path fill="url(#SVGID_38_)" d="M67.23,11.045c-0.006,1.086-0.343,2.073-1.011,2.96s-1.542,1.617-2.622,2.189
			c-1.127,0.604-2.401,1.058-3.823,1.362c-1.422,0.305-2.944,0.453-4.567,0.444c-1.498-0.008-2.769-0.095-3.814-0.261
			s-2.113-0.396-3.203-0.69l-0.029,5.484L39.7,22.488L39.796,4.5l8.461,0.045L48.25,5.917c1.298-0.509,2.623-0.92,3.975-1.233
			c1.351-0.313,2.908-0.465,4.672-0.456c3.277,0.018,5.822,0.633,7.633,1.845C66.341,7.286,67.241,8.943,67.23,11.045z
			 M58.534,11.086c0.007-1.279-0.425-2.209-1.294-2.792c-0.87-0.582-2.249-0.878-4.134-0.888c-0.796-0.004-1.614,0.052-2.457,0.168
			c-0.843,0.116-1.646,0.286-2.411,0.508l-0.036,6.611c0.561,0.112,1.16,0.186,1.8,0.22c0.639,0.035,1.271,0.054,1.894,0.058
			c2.229,0.012,3.89-0.305,4.985-0.951C57.976,13.376,58.527,12.397,58.534,11.086z"/>
		
			<linearGradient id="SVGID_39_" gradientUnits="userSpaceOnUse" x1="4.8328" y1="12.4687" x2="300.0531" y2="12.4687" gradientTransform="matrix(1 0.0053 -0.0053 1 -4.7328 -1.3558)">
			<stop  offset="0.0056" style="stop-color:#BB2E3B"/>
			<stop  offset="1" style="stop-color:#FDD025"/>
		</linearGradient>
		<path fill="url(#SVGID_39_)" d="M100.229,11.408c-0.011,2.164-1.282,3.863-3.813,5.096c-2.53,1.232-6.076,1.837-10.639,1.813
			s-8.102-0.666-10.619-1.926c-2.517-1.26-3.769-2.972-3.758-5.136c0.012-2.18,1.291-3.884,3.836-5.113
			c2.546-1.229,6.084-1.831,10.616-1.807c4.594,0.024,8.141,0.668,10.642,1.932C98.996,7.531,100.241,9.244,100.229,11.408z
			 M89.829,14.553c0.549-0.333,0.961-0.735,1.237-1.206c0.276-0.472,0.416-1.125,0.42-1.961c0.004-0.773-0.133-1.422-0.412-1.948
			c-0.278-0.525-0.667-0.945-1.165-1.26c-0.499-0.323-1.099-0.553-1.801-0.689c-0.702-0.137-1.459-0.207-2.272-0.211
			s-1.536,0.046-2.169,0.152c-0.633,0.106-1.24,0.322-1.82,0.647c-0.518,0.302-0.93,0.718-1.237,1.247
			c-0.308,0.53-0.463,1.197-0.468,2.001c-0.004,0.719,0.125,1.343,0.389,1.872c0.263,0.528,0.651,0.955,1.165,1.277
			c0.498,0.308,1.095,0.533,1.789,0.678c0.695,0.145,1.487,0.219,2.378,0.224c0.766,0.004,1.497-0.057,2.192-0.182
			C88.752,15.068,89.343,14.854,89.829,14.553z"/>
		
			<linearGradient id="SVGID_40_" gradientUnits="userSpaceOnUse" x1="4.8328" y1="12.4687" x2="300.0531" y2="12.4687" gradientTransform="matrix(1 0.0053 -0.0053 1 -4.7328 -1.3558)">
			<stop  offset="0.0056" style="stop-color:#BB2E3B"/>
			<stop  offset="1" style="stop-color:#FDD025"/>
		</linearGradient>
		<path fill="url(#SVGID_40_)" d="M132.652,14.184c-0.003,0.633-0.26,1.193-0.771,1.683c-0.51,0.49-1.188,0.896-2.034,1.22
			c-1.065,0.409-2.188,0.682-3.368,0.82c-1.181,0.139-2.583,0.203-4.208,0.194l-16.031-0.086l0.07-13.16l15.352,0.082
			c1.922,0.01,3.336,0.049,4.242,0.116s1.796,0.225,2.669,0.472c0.92,0.255,1.61,0.59,2.069,1.007
			c0.459,0.417,0.687,0.91,0.684,1.48c-0.003,0.648-0.377,1.215-1.122,1.699c-0.745,0.484-1.642,0.853-2.69,1.104l0,0.129
			c1.452,0.188,2.673,0.555,3.662,1.104C132.165,12.597,132.657,13.309,132.652,14.184z M123.958,14.008
			c0.003-0.57-0.319-0.973-0.966-1.206c-0.647-0.234-1.604-0.354-2.869-0.361l-5.484-0.029l-0.016,3.012l5.625,0.03
			c1.156,0.006,2.063-0.12,2.721-0.378C123.625,14.816,123.955,14.461,123.958,14.008z M122.813,8.904
			c0.002-0.484-0.289-0.83-0.874-1.036c-0.585-0.206-1.525-0.313-2.822-0.32l-4.453-0.023l-0.014,2.625l4.594,0.024
			c1.141,0.006,2.02-0.104,2.639-0.332C122.5,9.615,122.811,9.302,122.813,8.904z"/>
		
			<linearGradient id="SVGID_41_" gradientUnits="userSpaceOnUse" x1="4.8328" y1="12.4687" x2="300.0531" y2="12.4687" gradientTransform="matrix(1 0.0053 -0.0053 1 -4.7328 -1.3558)">
			<stop  offset="0.0056" style="stop-color:#BB2E3B"/>
			<stop  offset="1" style="stop-color:#FDD025"/>
		</linearGradient>
		<path fill="url(#SVGID_41_)" d="M165.689,11.757c-0.012,2.165-1.282,3.863-3.813,5.095s-6.076,1.837-10.639,1.813
			s-8.102-0.666-10.619-1.926c-2.517-1.26-3.769-2.972-3.758-5.136c0.012-2.18,1.291-3.884,3.836-5.112
			c2.546-1.229,6.084-1.831,10.616-1.807c4.593,0.024,8.141,0.668,10.642,1.932S165.701,9.593,165.689,11.757z M155.289,14.901
			c0.549-0.333,0.961-0.735,1.237-1.206c0.276-0.472,0.416-1.125,0.421-1.961c0.004-0.773-0.133-1.423-0.412-1.948
			c-0.278-0.525-0.666-0.945-1.165-1.26c-0.498-0.323-1.099-0.553-1.801-0.689c-0.702-0.137-1.46-0.207-2.271-0.211
			c-0.813-0.004-1.536,0.046-2.169,0.152c-0.634,0.106-1.241,0.322-1.82,0.646c-0.518,0.302-0.93,0.718-1.237,1.248
			c-0.308,0.529-0.463,1.197-0.468,2.001c-0.004,0.719,0.125,1.343,0.389,1.871c0.263,0.529,0.651,0.955,1.165,1.278
			c0.498,0.307,1.095,0.533,1.789,0.678c0.695,0.144,1.487,0.219,2.378,0.223c0.766,0.005,1.496-0.056,2.192-0.182
			C154.213,15.417,154.804,15.203,155.289,14.901z"/>
		
			<linearGradient id="SVGID_42_" gradientUnits="userSpaceOnUse" x1="4.8328" y1="12.4687" x2="300.0531" y2="12.4687" gradientTransform="matrix(1 0.0053 -0.0053 1 -4.7328 -1.3558)">
			<stop  offset="0.0056" style="stop-color:#BB2E3B"/>
			<stop  offset="1" style="stop-color:#FDD025"/>
		</linearGradient>
		<path fill="url(#SVGID_42_)" d="M197.787,18.503l-8.461-0.045l0.055-10.219l-6.938-0.037c-0.05,0.585-0.088,1.041-0.113,1.365
			c-0.024,0.324-0.054,0.701-0.088,1.13c-0.116,1.257-0.332,2.279-0.649,3.067c-0.316,0.787-0.718,1.43-1.205,1.927
			c-0.472,0.506-0.978,0.905-1.519,1.199c-0.54,0.294-1.085,0.549-1.633,0.765c-0.626,0.247-1.443,0.441-2.452,0.585
			c-1.009,0.143-1.981,0.212-2.919,0.207c-0.734-0.004-1.477-0.021-2.227-0.053c-0.75-0.032-1.195-0.048-1.336-0.049l0.018-3.375
			l0.258,0.002c0.063,0,0.172,0.005,0.328,0.013c0.156,0.009,0.313,0.014,0.469,0.015c0.406,0.002,0.824-0.016,1.255-0.052
			c0.43-0.037,0.785-0.121,1.067-0.252c1.05-0.495,1.752-1.118,2.107-1.87s0.615-1.866,0.78-3.342
			c0.065-0.546,0.131-1.171,0.197-1.874s0.125-1.5,0.177-2.39l22.898,0.122L197.787,18.503z"/>
		
			<linearGradient id="SVGID_43_" gradientUnits="userSpaceOnUse" x1="4.8328" y1="12.4687" x2="300.0531" y2="12.4687" gradientTransform="matrix(1 0.0053 -0.0053 1 -4.7328 -1.3558)">
			<stop  offset="0.0056" style="stop-color:#BB2E3B"/>
			<stop  offset="1" style="stop-color:#FDD025"/>
		</linearGradient>
		<path fill="url(#SVGID_43_)" d="M232.696,12.114c-0.011,2.164-1.282,3.863-3.813,5.096c-2.529,1.232-6.076,1.837-10.639,1.813
			s-8.102-0.666-10.619-1.926c-2.517-1.26-3.769-2.972-3.758-5.136c0.012-2.18,1.291-3.884,3.836-5.113
			c2.546-1.229,6.085-1.831,10.616-1.807c4.594,0.024,8.141,0.668,10.642,1.932C231.464,8.237,232.708,9.95,232.696,12.114z
			 M222.297,15.259c0.549-0.333,0.961-0.735,1.237-1.206c0.275-0.472,0.416-1.125,0.42-1.961c0.004-0.774-0.133-1.423-0.411-1.948
			c-0.278-0.525-0.667-0.945-1.165-1.26c-0.499-0.323-1.099-0.553-1.802-0.689c-0.702-0.137-1.459-0.207-2.271-0.211
			s-1.536,0.046-2.169,0.152c-0.634,0.106-1.24,0.322-1.82,0.647c-0.518,0.302-0.93,0.718-1.237,1.247
			c-0.308,0.53-0.463,1.197-0.468,2.002c-0.004,0.719,0.126,1.343,0.389,1.871s0.651,0.955,1.165,1.277
			c0.498,0.308,1.095,0.533,1.789,0.678c0.695,0.145,1.487,0.219,2.378,0.224c0.766,0.004,1.497-0.057,2.192-0.182
			C221.22,15.774,221.811,15.561,222.297,15.259z"/>
		
			<linearGradient id="SVGID_44_" gradientUnits="userSpaceOnUse" x1="4.8328" y1="12.4687" x2="300.0531" y2="12.4687" gradientTransform="matrix(1 0.0053 -0.0053 1 -4.7328 -1.3558)">
			<stop  offset="0.0056" style="stop-color:#BB2E3B"/>
			<stop  offset="1" style="stop-color:#FDD025"/>
		</linearGradient>
		<path fill="url(#SVGID_44_)" d="M266.646,18.87l-9.742-0.052l-7.022-5.253l-2.684-0.014l-0.027,5.215l-8.461-0.046l0.069-13.16
			l8.461,0.045l-0.028,5.285c1.561,0,2.637-0.078,3.231-0.235c0.594-0.157,1.283-0.577,2.066-1.26
			c0.235-0.202,0.518-0.462,0.848-0.781c0.328-0.319,0.587-0.563,0.775-0.734c0.862-0.761,1.868-1.324,3.018-1.689
			c1.148-0.365,2.745-0.542,4.789-0.531c0.593,0.003,1.221,0.011,1.884,0.022s1.112,0.018,1.347,0.019l-0.019,3.516l-2.286-0.012
			c-0.933-0.005-1.677,0.108-2.229,0.339c-0.554,0.231-1.034,0.577-1.442,1.036c-0.347,0.381-0.662,0.682-0.947,0.903
			s-0.649,0.409-1.093,0.563L266.646,18.87z"/>
		
			<linearGradient id="SVGID_45_" gradientUnits="userSpaceOnUse" x1="4.8328" y1="12.4687" x2="300.0531" y2="12.4687" gradientTransform="matrix(1 0.0053 -0.0053 1 -4.7328 -1.3558)">
			<stop  offset="0.0056" style="stop-color:#BB2E3B"/>
			<stop  offset="1" style="stop-color:#FDD025"/>
		</linearGradient>
		<path fill="url(#SVGID_45_)" d="M286.856,17.583c-0.454,0.17-1.018,0.374-1.691,0.612c-0.673,0.238-1.307,0.427-1.901,0.564
			c-0.829,0.183-1.689,0.316-2.58,0.402c-0.892,0.085-1.868,0.124-2.931,0.119c-2.5-0.014-4.592-0.411-6.275-1.194
			c-1.683-0.782-2.521-1.774-2.515-2.978c0.005-0.961,0.438-1.744,1.301-2.349c0.863-0.605,2.084-1.08,3.664-1.422
			c1.564-0.343,3.504-0.583,5.816-0.719c2.313-0.136,4.713-0.233,7.197-0.29l0.001-0.07c0.004-0.727-0.588-1.232-1.773-1.516
			c-1.187-0.284-2.936-0.432-5.248-0.444c-1.391-0.007-2.876,0.107-4.455,0.345s-2.713,0.421-3.401,0.55l-0.773-0.004l0.017-3.176
			c0.892-0.113,2.342-0.244,4.351-0.393c2.008-0.149,4.021-0.219,6.036-0.208c4.797,0.025,8.26,0.413,10.389,1.163
			c2.129,0.75,3.188,1.914,3.181,3.492l-0.048,8.954l-8.367-0.045L286.856,17.583z M286.867,15.535l0.015-2.733
			c-1.142,0.041-2.376,0.099-3.704,0.174c-1.329,0.074-2.337,0.164-3.025,0.27c-0.845,0.128-1.49,0.317-1.937,0.567
			c-0.446,0.252-0.671,0.583-0.674,0.995c-0.001,0.273,0.045,0.495,0.138,0.667s0.326,0.337,0.7,0.494
			c0.358,0.158,0.788,0.275,1.287,0.352c0.5,0.077,1.281,0.118,2.344,0.124c0.844,0.004,1.699-0.076,2.567-0.243
			S286.209,15.813,286.867,15.535z"/>
	</g>
	<g>
		
			<linearGradient id="SVGID_46_" gradientUnits="userSpaceOnUse" x1="4.8328" y1="12.4687" x2="300.0531" y2="12.4687" gradientTransform="matrix(1 0.0053 -0.0053 1 -4.7328 -1.3558)">
			<stop  offset="0" style="stop-color:#FDD025"/>
			<stop  offset="1" style="stop-color:#BD2F2E"/>
		</linearGradient>
		<path fill="url(#SVGID_46_)" d="M31.289,17.615l-9-0.048l0.075-14.074L9.074,3.423L9,17.497l-9-0.048L0.093,0l31.289,0.167
			L31.289,17.615z"/>
		
			<linearGradient id="SVGID_47_" gradientUnits="userSpaceOnUse" x1="4.8328" y1="12.4687" x2="300.0531" y2="12.4687" gradientTransform="matrix(1 0.0053 -0.0053 1 -4.7328 -1.3558)">
			<stop  offset="0" style="stop-color:#FDD025"/>
			<stop  offset="1" style="stop-color:#BD2F2E"/>
		</linearGradient>
		<path fill="url(#SVGID_47_)" d="M67.23,11.045c-0.006,1.086-0.343,2.073-1.011,2.96s-1.542,1.617-2.622,2.189
			c-1.127,0.604-2.401,1.058-3.823,1.362c-1.422,0.305-2.944,0.453-4.567,0.444c-1.498-0.008-2.769-0.095-3.814-0.261
			s-2.113-0.396-3.203-0.69l-0.029,5.484L39.7,22.488L39.796,4.5l8.461,0.045L48.25,5.917c1.298-0.509,2.623-0.92,3.975-1.233
			c1.351-0.313,2.908-0.465,4.672-0.456c3.277,0.018,5.822,0.633,7.633,1.845C66.341,7.286,67.241,8.943,67.23,11.045z
			 M58.534,11.086c0.007-1.279-0.425-2.209-1.294-2.792c-0.87-0.582-2.249-0.878-4.134-0.888c-0.796-0.004-1.614,0.052-2.457,0.168
			c-0.843,0.116-1.646,0.286-2.411,0.508l-0.036,6.611c0.561,0.112,1.16,0.186,1.8,0.22c0.639,0.035,1.271,0.054,1.894,0.058
			c2.229,0.012,3.89-0.305,4.985-0.951C57.976,13.376,58.527,12.397,58.534,11.086z"/>
		
			<linearGradient id="SVGID_48_" gradientUnits="userSpaceOnUse" x1="4.8328" y1="12.4687" x2="300.0531" y2="12.4687" gradientTransform="matrix(1 0.0053 -0.0053 1 -4.7328 -1.3558)">
			<stop  offset="0" style="stop-color:#FDD025"/>
			<stop  offset="1" style="stop-color:#BD2F2E"/>
		</linearGradient>
		<path fill="url(#SVGID_48_)" d="M100.229,11.408c-0.011,2.164-1.282,3.863-3.813,5.096c-2.53,1.232-6.076,1.837-10.639,1.813
			s-8.102-0.666-10.619-1.926c-2.517-1.26-3.769-2.972-3.758-5.136c0.012-2.18,1.291-3.884,3.836-5.113
			c2.546-1.229,6.084-1.831,10.616-1.807c4.594,0.024,8.141,0.668,10.642,1.932C98.996,7.531,100.241,9.244,100.229,11.408z
			 M89.829,14.553c0.549-0.333,0.961-0.735,1.237-1.206c0.276-0.472,0.416-1.125,0.42-1.961c0.004-0.773-0.133-1.422-0.412-1.948
			c-0.278-0.525-0.667-0.945-1.165-1.26c-0.499-0.323-1.099-0.553-1.801-0.689c-0.702-0.137-1.459-0.207-2.272-0.211
			s-1.536,0.046-2.169,0.152c-0.633,0.106-1.24,0.322-1.82,0.647c-0.518,0.302-0.93,0.718-1.237,1.247
			c-0.308,0.53-0.463,1.197-0.468,2.001c-0.004,0.719,0.125,1.343,0.389,1.872c0.263,0.528,0.651,0.955,1.165,1.277
			c0.498,0.308,1.095,0.533,1.789,0.678c0.695,0.145,1.487,0.219,2.378,0.224c0.766,0.004,1.497-0.057,2.192-0.182
			C88.752,15.068,89.343,14.854,89.829,14.553z"/>
		
			<linearGradient id="SVGID_49_" gradientUnits="userSpaceOnUse" x1="4.8328" y1="12.4687" x2="300.0531" y2="12.4687" gradientTransform="matrix(1 0.0053 -0.0053 1 -4.7328 -1.3558)">
			<stop  offset="0" style="stop-color:#FDD025"/>
			<stop  offset="1" style="stop-color:#BD2F2E"/>
		</linearGradient>
		<path fill="url(#SVGID_49_)" d="M132.652,14.184c-0.003,0.633-0.26,1.193-0.771,1.683c-0.51,0.49-1.188,0.896-2.034,1.22
			c-1.065,0.409-2.188,0.682-3.368,0.82c-1.181,0.139-2.583,0.203-4.208,0.194l-16.031-0.086l0.07-13.16l15.352,0.082
			c1.922,0.01,3.336,0.049,4.242,0.116s1.796,0.225,2.669,0.472c0.92,0.255,1.61,0.59,2.069,1.007
			c0.459,0.417,0.687,0.91,0.684,1.48c-0.003,0.648-0.377,1.215-1.122,1.699c-0.745,0.484-1.642,0.853-2.69,1.104l0,0.129
			c1.452,0.188,2.673,0.555,3.662,1.104C132.165,12.597,132.657,13.309,132.652,14.184z M123.958,14.008
			c0.003-0.57-0.319-0.973-0.966-1.206c-0.647-0.234-1.604-0.354-2.869-0.361l-5.484-0.029l-0.016,3.012l5.625,0.03
			c1.156,0.006,2.063-0.12,2.721-0.378C123.625,14.816,123.955,14.461,123.958,14.008z M122.813,8.904
			c0.002-0.484-0.289-0.83-0.874-1.036c-0.585-0.206-1.525-0.313-2.822-0.32l-4.453-0.023l-0.014,2.625l4.594,0.024
			c1.141,0.006,2.02-0.104,2.639-0.332C122.5,9.615,122.811,9.302,122.813,8.904z"/>
		
			<linearGradient id="SVGID_50_" gradientUnits="userSpaceOnUse" x1="4.8328" y1="12.4687" x2="300.0531" y2="12.4687" gradientTransform="matrix(1 0.0053 -0.0053 1 -4.7328 -1.3558)">
			<stop  offset="0" style="stop-color:#FDD025"/>
			<stop  offset="1" style="stop-color:#BD2F2E"/>
		</linearGradient>
		<path fill="url(#SVGID_50_)" d="M165.689,11.757c-0.012,2.165-1.282,3.863-3.813,5.095s-6.076,1.837-10.639,1.813
			s-8.102-0.666-10.619-1.926c-2.517-1.26-3.769-2.972-3.758-5.136c0.012-2.18,1.291-3.884,3.836-5.112
			c2.546-1.229,6.084-1.831,10.616-1.807c4.593,0.024,8.141,0.668,10.642,1.932S165.701,9.593,165.689,11.757z M155.289,14.901
			c0.549-0.333,0.961-0.735,1.237-1.206c0.276-0.472,0.416-1.125,0.421-1.961c0.004-0.773-0.133-1.423-0.412-1.948
			c-0.278-0.525-0.666-0.945-1.165-1.26c-0.498-0.323-1.099-0.553-1.801-0.689c-0.702-0.137-1.46-0.207-2.271-0.211
			c-0.813-0.004-1.536,0.046-2.169,0.152c-0.634,0.106-1.241,0.322-1.82,0.646c-0.518,0.302-0.93,0.718-1.237,1.248
			c-0.308,0.529-0.463,1.197-0.468,2.001c-0.004,0.719,0.125,1.343,0.389,1.871c0.263,0.529,0.651,0.955,1.165,1.278
			c0.498,0.307,1.095,0.533,1.789,0.678c0.695,0.144,1.487,0.219,2.378,0.223c0.766,0.005,1.496-0.056,2.192-0.182
			C154.213,15.417,154.804,15.203,155.289,14.901z"/>
		
			<linearGradient id="SVGID_51_" gradientUnits="userSpaceOnUse" x1="4.8328" y1="12.4687" x2="300.0531" y2="12.4687" gradientTransform="matrix(1 0.0053 -0.0053 1 -4.7328 -1.3558)">
			<stop  offset="0" style="stop-color:#FDD025"/>
			<stop  offset="1" style="stop-color:#BD2F2E"/>
		</linearGradient>
		<path fill="url(#SVGID_51_)" d="M197.787,18.503l-8.461-0.045l0.055-10.219l-6.938-0.037c-0.05,0.585-0.088,1.041-0.113,1.365
			c-0.024,0.324-0.054,0.701-0.088,1.13c-0.116,1.257-0.332,2.279-0.649,3.067c-0.316,0.787-0.718,1.43-1.205,1.927
			c-0.472,0.506-0.978,0.905-1.519,1.199c-0.54,0.294-1.085,0.549-1.633,0.765c-0.626,0.247-1.443,0.441-2.452,0.585
			c-1.009,0.143-1.981,0.212-2.919,0.207c-0.734-0.004-1.477-0.021-2.227-0.053c-0.75-0.032-1.195-0.048-1.336-0.049l0.018-3.375
			l0.258,0.002c0.063,0,0.172,0.005,0.328,0.013c0.156,0.009,0.313,0.014,0.469,0.015c0.406,0.002,0.824-0.016,1.255-0.052
			c0.43-0.037,0.785-0.121,1.067-0.252c1.05-0.495,1.752-1.118,2.107-1.87s0.615-1.866,0.78-3.342
			c0.065-0.546,0.131-1.171,0.197-1.874s0.125-1.5,0.177-2.39l22.898,0.122L197.787,18.503z"/>
		
			<linearGradient id="SVGID_52_" gradientUnits="userSpaceOnUse" x1="4.8328" y1="12.4687" x2="300.0531" y2="12.4687" gradientTransform="matrix(1 0.0053 -0.0053 1 -4.7328 -1.3558)">
			<stop  offset="0" style="stop-color:#FDD025"/>
			<stop  offset="1" style="stop-color:#BD2F2E"/>
		</linearGradient>
		<path fill="url(#SVGID_52_)" d="M232.696,12.114c-0.011,2.164-1.282,3.863-3.813,5.096c-2.529,1.232-6.076,1.837-10.639,1.813
			s-8.102-0.666-10.619-1.926c-2.517-1.26-3.769-2.972-3.758-5.136c0.012-2.18,1.291-3.884,3.836-5.113
			c2.546-1.229,6.085-1.831,10.616-1.807c4.594,0.024,8.141,0.668,10.642,1.932C231.464,8.237,232.708,9.95,232.696,12.114z
			 M222.297,15.259c0.549-0.333,0.961-0.735,1.237-1.206c0.275-0.472,0.416-1.125,0.42-1.961c0.004-0.774-0.133-1.423-0.411-1.948
			c-0.278-0.525-0.667-0.945-1.165-1.26c-0.499-0.323-1.099-0.553-1.802-0.689c-0.702-0.137-1.459-0.207-2.271-0.211
			s-1.536,0.046-2.169,0.152c-0.634,0.106-1.24,0.322-1.82,0.647c-0.518,0.302-0.93,0.718-1.237,1.247
			c-0.308,0.53-0.463,1.197-0.468,2.002c-0.004,0.719,0.126,1.343,0.389,1.871s0.651,0.955,1.165,1.277
			c0.498,0.308,1.095,0.533,1.789,0.678c0.695,0.145,1.487,0.219,2.378,0.224c0.766,0.004,1.497-0.057,2.192-0.182
			C221.22,15.774,221.811,15.561,222.297,15.259z"/>
		
			<linearGradient id="SVGID_53_" gradientUnits="userSpaceOnUse" x1="4.8328" y1="12.4687" x2="300.0531" y2="12.4687" gradientTransform="matrix(1 0.0053 -0.0053 1 -4.7328 -1.3558)">
			<stop  offset="0" style="stop-color:#FDD025"/>
			<stop  offset="1" style="stop-color:#BD2F2E"/>
		</linearGradient>
		<path fill="url(#SVGID_53_)" d="M266.646,18.87l-9.742-0.052l-7.022-5.253l-2.684-0.014l-0.027,5.215l-8.461-0.046l0.069-13.16
			l8.461,0.045l-0.028,5.285c1.561,0,2.637-0.078,3.231-0.235c0.594-0.157,1.283-0.577,2.066-1.26
			c0.235-0.202,0.518-0.462,0.848-0.781c0.328-0.319,0.587-0.563,0.775-0.734c0.862-0.761,1.868-1.324,3.018-1.689
			c1.148-0.365,2.745-0.542,4.789-0.531c0.593,0.003,1.221,0.011,1.884,0.022s1.112,0.018,1.347,0.019l-0.019,3.516l-2.286-0.012
			c-0.933-0.005-1.677,0.108-2.229,0.339c-0.554,0.231-1.034,0.577-1.442,1.036c-0.347,0.381-0.662,0.682-0.947,0.903
			s-0.649,0.409-1.093,0.563L266.646,18.87z"/>
		
			<linearGradient id="SVGID_54_" gradientUnits="userSpaceOnUse" x1="4.8328" y1="12.4687" x2="300.0531" y2="12.4687" gradientTransform="matrix(1 0.0053 -0.0053 1 -4.7328 -1.3558)">
			<stop  offset="0" style="stop-color:#FDD025"/>
			<stop  offset="1" style="stop-color:#BD2F2E"/>
		</linearGradient>
		<path fill="url(#SVGID_54_)" d="M286.856,17.583c-0.454,0.17-1.018,0.374-1.691,0.612c-0.673,0.238-1.307,0.427-1.901,0.564
			c-0.829,0.183-1.689,0.316-2.58,0.402c-0.892,0.085-1.868,0.124-2.931,0.119c-2.5-0.014-4.592-0.411-6.275-1.194
			c-1.683-0.782-2.521-1.774-2.515-2.978c0.005-0.961,0.438-1.744,1.301-2.349c0.863-0.605,2.084-1.08,3.664-1.422
			c1.564-0.343,3.504-0.583,5.816-0.719c2.313-0.136,4.713-0.233,7.197-0.29l0.001-0.07c0.004-0.727-0.588-1.232-1.773-1.516
			c-1.187-0.284-2.936-0.432-5.248-0.444c-1.391-0.007-2.876,0.107-4.455,0.345s-2.713,0.421-3.401,0.55l-0.773-0.004l0.017-3.176
			c0.892-0.113,2.342-0.244,4.351-0.393c2.008-0.149,4.021-0.219,6.036-0.208c4.797,0.025,8.26,0.413,10.389,1.163
			c2.129,0.75,3.188,1.914,3.181,3.492l-0.048,8.954l-8.367-0.045L286.856,17.583z M286.867,15.535l0.015-2.733
			c-1.142,0.041-2.376,0.099-3.704,0.174c-1.329,0.074-2.337,0.164-3.025,0.27c-0.845,0.128-1.49,0.317-1.937,0.567
			c-0.446,0.252-0.671,0.583-0.674,0.995c-0.001,0.273,0.045,0.495,0.138,0.667s0.326,0.337,0.7,0.494
			c0.358,0.158,0.788,0.275,1.287,0.352c0.5,0.077,1.281,0.118,2.344,0.124c0.844,0.004,1.699-0.076,2.567-0.243
			S286.209,15.813,286.867,15.535z"/>
	</g>
	<g>
		
			<linearGradient id="SVGID_55_" gradientUnits="userSpaceOnUse" x1="4.8328" y1="12.4687" x2="300.0531" y2="12.4687" gradientTransform="matrix(1 0.0053 -0.0053 1 -4.7328 -1.3558)">
			<stop  offset="0.0056" style="stop-color:#BD2F2E"/>
			<stop  offset="1" style="stop-color:#FDD025"/>
		</linearGradient>
		<path fill="url(#SVGID_55_)" d="M31.289,17.615l-9-0.048l0.075-14.074L9.074,3.423L9,17.497l-9-0.048L0.093,0l31.289,0.167
			L31.289,17.615z"/>
		
			<linearGradient id="SVGID_56_" gradientUnits="userSpaceOnUse" x1="4.8328" y1="12.4687" x2="300.0531" y2="12.4687" gradientTransform="matrix(1 0.0053 -0.0053 1 -4.7328 -1.3558)">
			<stop  offset="0.0056" style="stop-color:#BD2F2E"/>
			<stop  offset="1" style="stop-color:#FDD025"/>
		</linearGradient>
		<path fill="url(#SVGID_56_)" d="M67.23,11.045c-0.006,1.086-0.343,2.073-1.011,2.96s-1.542,1.617-2.622,2.189
			c-1.127,0.604-2.401,1.058-3.823,1.362c-1.422,0.305-2.944,0.453-4.567,0.444c-1.498-0.008-2.769-0.095-3.814-0.261
			s-2.113-0.396-3.203-0.69l-0.029,5.484L39.7,22.488L39.796,4.5l8.461,0.045L48.25,5.917c1.298-0.509,2.623-0.92,3.975-1.233
			c1.351-0.313,2.908-0.465,4.672-0.456c3.277,0.018,5.822,0.633,7.633,1.845C66.341,7.286,67.241,8.943,67.23,11.045z
			 M58.534,11.086c0.007-1.279-0.425-2.209-1.294-2.792c-0.87-0.582-2.249-0.878-4.134-0.888c-0.796-0.004-1.614,0.052-2.457,0.168
			c-0.843,0.116-1.646,0.286-2.411,0.508l-0.036,6.611c0.561,0.112,1.16,0.186,1.8,0.22c0.639,0.035,1.271,0.054,1.894,0.058
			c2.229,0.012,3.89-0.305,4.985-0.951C57.976,13.376,58.527,12.397,58.534,11.086z"/>
		
			<linearGradient id="SVGID_57_" gradientUnits="userSpaceOnUse" x1="4.8328" y1="12.4687" x2="300.0531" y2="12.4687" gradientTransform="matrix(1 0.0053 -0.0053 1 -4.7328 -1.3558)">
			<stop  offset="0.0056" style="stop-color:#BD2F2E"/>
			<stop  offset="1" style="stop-color:#FDD025"/>
		</linearGradient>
		<path fill="url(#SVGID_57_)" d="M100.229,11.408c-0.011,2.164-1.282,3.863-3.813,5.096c-2.53,1.232-6.076,1.837-10.639,1.813
			s-8.102-0.666-10.619-1.926c-2.517-1.26-3.769-2.972-3.758-5.136c0.012-2.18,1.291-3.884,3.836-5.113
			c2.546-1.229,6.084-1.831,10.616-1.807c4.594,0.024,8.141,0.668,10.642,1.932C98.996,7.531,100.241,9.244,100.229,11.408z
			 M89.829,14.553c0.549-0.333,0.961-0.735,1.237-1.206c0.276-0.472,0.416-1.125,0.42-1.961c0.004-0.773-0.133-1.422-0.412-1.948
			c-0.278-0.525-0.667-0.945-1.165-1.26c-0.499-0.323-1.099-0.553-1.801-0.689c-0.702-0.137-1.459-0.207-2.272-0.211
			s-1.536,0.046-2.169,0.152c-0.633,0.106-1.24,0.322-1.82,0.647c-0.518,0.302-0.93,0.718-1.237,1.247
			c-0.308,0.53-0.463,1.197-0.468,2.001c-0.004,0.719,0.125,1.343,0.389,1.872c0.263,0.528,0.651,0.955,1.165,1.277
			c0.498,0.308,1.095,0.533,1.789,0.678c0.695,0.145,1.487,0.219,2.378,0.224c0.766,0.004,1.497-0.057,2.192-0.182
			C88.752,15.068,89.343,14.854,89.829,14.553z"/>
		
			<linearGradient id="SVGID_58_" gradientUnits="userSpaceOnUse" x1="4.8328" y1="12.4687" x2="300.0531" y2="12.4687" gradientTransform="matrix(1 0.0053 -0.0053 1 -4.7328 -1.3558)">
			<stop  offset="0.0056" style="stop-color:#BD2F2E"/>
			<stop  offset="1" style="stop-color:#FDD025"/>
		</linearGradient>
		<path fill="url(#SVGID_58_)" d="M132.652,14.184c-0.003,0.633-0.26,1.193-0.771,1.683c-0.51,0.49-1.188,0.896-2.034,1.22
			c-1.065,0.409-2.188,0.682-3.368,0.82c-1.181,0.139-2.583,0.203-4.208,0.194l-16.031-0.086l0.07-13.16l15.352,0.082
			c1.922,0.01,3.336,0.049,4.242,0.116s1.796,0.225,2.669,0.472c0.92,0.255,1.61,0.59,2.069,1.007
			c0.459,0.417,0.687,0.91,0.684,1.48c-0.003,0.648-0.377,1.215-1.122,1.699c-0.745,0.484-1.642,0.853-2.69,1.104l0,0.129
			c1.452,0.188,2.673,0.555,3.662,1.104C132.165,12.597,132.657,13.309,132.652,14.184z M123.958,14.008
			c0.003-0.57-0.319-0.973-0.966-1.206c-0.647-0.234-1.604-0.354-2.869-0.361l-5.484-0.029l-0.016,3.012l5.625,0.03
			c1.156,0.006,2.063-0.12,2.721-0.378C123.625,14.816,123.955,14.461,123.958,14.008z M122.813,8.904
			c0.002-0.484-0.289-0.83-0.874-1.036c-0.585-0.206-1.525-0.313-2.822-0.32l-4.453-0.023l-0.014,2.625l4.594,0.024
			c1.141,0.006,2.02-0.104,2.639-0.332C122.5,9.615,122.811,9.302,122.813,8.904z"/>
		
			<linearGradient id="SVGID_59_" gradientUnits="userSpaceOnUse" x1="4.8328" y1="12.4687" x2="300.0531" y2="12.4687" gradientTransform="matrix(1 0.0053 -0.0053 1 -4.7328 -1.3558)">
			<stop  offset="0.0056" style="stop-color:#BD2F2E"/>
			<stop  offset="1" style="stop-color:#FDD025"/>
		</linearGradient>
		<path fill="url(#SVGID_59_)" d="M165.689,11.757c-0.012,2.165-1.282,3.863-3.813,5.095s-6.076,1.837-10.639,1.813
			s-8.102-0.666-10.619-1.926c-2.517-1.26-3.769-2.972-3.758-5.136c0.012-2.18,1.291-3.884,3.836-5.112
			c2.546-1.229,6.084-1.831,10.616-1.807c4.593,0.024,8.141,0.668,10.642,1.932S165.701,9.593,165.689,11.757z M155.289,14.901
			c0.549-0.333,0.961-0.735,1.237-1.206c0.276-0.472,0.416-1.125,0.421-1.961c0.004-0.773-0.133-1.423-0.412-1.948
			c-0.278-0.525-0.666-0.945-1.165-1.26c-0.498-0.323-1.099-0.553-1.801-0.689c-0.702-0.137-1.46-0.207-2.271-0.211
			c-0.813-0.004-1.536,0.046-2.169,0.152c-0.634,0.106-1.241,0.322-1.82,0.646c-0.518,0.302-0.93,0.718-1.237,1.248
			c-0.308,0.529-0.463,1.197-0.468,2.001c-0.004,0.719,0.125,1.343,0.389,1.871c0.263,0.529,0.651,0.955,1.165,1.278
			c0.498,0.307,1.095,0.533,1.789,0.678c0.695,0.144,1.487,0.219,2.378,0.223c0.766,0.005,1.496-0.056,2.192-0.182
			C154.213,15.417,154.804,15.203,155.289,14.901z"/>
		
			<linearGradient id="SVGID_60_" gradientUnits="userSpaceOnUse" x1="4.8328" y1="12.4687" x2="300.0531" y2="12.4687" gradientTransform="matrix(1 0.0053 -0.0053 1 -4.7328 -1.3558)">
			<stop  offset="0.0056" style="stop-color:#BD2F2E"/>
			<stop  offset="1" style="stop-color:#FDD025"/>
		</linearGradient>
		<path fill="url(#SVGID_60_)" d="M197.787,18.503l-8.461-0.045l0.055-10.219l-6.938-0.037c-0.05,0.585-0.088,1.041-0.113,1.365
			c-0.024,0.324-0.054,0.701-0.088,1.13c-0.116,1.257-0.332,2.279-0.649,3.067c-0.316,0.787-0.718,1.43-1.205,1.927
			c-0.472,0.506-0.978,0.905-1.519,1.199c-0.54,0.294-1.085,0.549-1.633,0.765c-0.626,0.247-1.443,0.441-2.452,0.585
			c-1.009,0.143-1.981,0.212-2.919,0.207c-0.734-0.004-1.477-0.021-2.227-0.053c-0.75-0.032-1.195-0.048-1.336-0.049l0.018-3.375
			l0.258,0.002c0.063,0,0.172,0.005,0.328,0.013c0.156,0.009,0.313,0.014,0.469,0.015c0.406,0.002,0.824-0.016,1.255-0.052
			c0.43-0.037,0.785-0.121,1.067-0.252c1.05-0.495,1.752-1.118,2.107-1.87s0.615-1.866,0.78-3.342
			c0.065-0.546,0.131-1.171,0.197-1.874s0.125-1.5,0.177-2.39l22.898,0.122L197.787,18.503z"/>
		
			<linearGradient id="SVGID_61_" gradientUnits="userSpaceOnUse" x1="4.8328" y1="12.4687" x2="300.0531" y2="12.4687" gradientTransform="matrix(1 0.0053 -0.0053 1 -4.7328 -1.3558)">
			<stop  offset="0.0056" style="stop-color:#BD2F2E"/>
			<stop  offset="1" style="stop-color:#FDD025"/>
		</linearGradient>
		<path fill="url(#SVGID_61_)" d="M232.696,12.114c-0.011,2.164-1.282,3.863-3.813,5.096c-2.529,1.232-6.076,1.837-10.639,1.813
			s-8.102-0.666-10.619-1.926c-2.517-1.26-3.769-2.972-3.758-5.136c0.012-2.18,1.291-3.884,3.836-5.113
			c2.546-1.229,6.085-1.831,10.616-1.807c4.594,0.024,8.141,0.668,10.642,1.932C231.464,8.237,232.708,9.95,232.696,12.114z
			 M222.297,15.259c0.549-0.333,0.961-0.735,1.237-1.206c0.275-0.472,0.416-1.125,0.42-1.961c0.004-0.774-0.133-1.423-0.411-1.948
			c-0.278-0.525-0.667-0.945-1.165-1.26c-0.499-0.323-1.099-0.553-1.802-0.689c-0.702-0.137-1.459-0.207-2.271-0.211
			s-1.536,0.046-2.169,0.152c-0.634,0.106-1.24,0.322-1.82,0.647c-0.518,0.302-0.93,0.718-1.237,1.247
			c-0.308,0.53-0.463,1.197-0.468,2.002c-0.004,0.719,0.126,1.343,0.389,1.871s0.651,0.955,1.165,1.277
			c0.498,0.308,1.095,0.533,1.789,0.678c0.695,0.145,1.487,0.219,2.378,0.224c0.766,0.004,1.497-0.057,2.192-0.182
			C221.22,15.774,221.811,15.561,222.297,15.259z"/>
		
			<linearGradient id="SVGID_62_" gradientUnits="userSpaceOnUse" x1="4.8328" y1="12.4687" x2="300.0531" y2="12.4687" gradientTransform="matrix(1 0.0053 -0.0053 1 -4.7328 -1.3558)">
			<stop  offset="0.0056" style="stop-color:#BD2F2E"/>
			<stop  offset="1" style="stop-color:#FDD025"/>
		</linearGradient>
		<path fill="url(#SVGID_62_)" d="M266.646,18.87l-9.742-0.052l-7.022-5.253l-2.684-0.014l-0.027,5.215l-8.461-0.046l0.069-13.16
			l8.461,0.045l-0.028,5.285c1.561,0,2.637-0.078,3.231-0.235c0.594-0.157,1.283-0.577,2.066-1.26
			c0.235-0.202,0.518-0.462,0.848-0.781c0.328-0.319,0.587-0.563,0.775-0.734c0.862-0.761,1.868-1.324,3.018-1.689
			c1.148-0.365,2.745-0.542,4.789-0.531c0.593,0.003,1.221,0.011,1.884,0.022s1.112,0.018,1.347,0.019l-0.019,3.516l-2.286-0.012
			c-0.933-0.005-1.677,0.108-2.229,0.339c-0.554,0.231-1.034,0.577-1.442,1.036c-0.347,0.381-0.662,0.682-0.947,0.903
			s-0.649,0.409-1.093,0.563L266.646,18.87z"/>
		
			<linearGradient id="SVGID_63_" gradientUnits="userSpaceOnUse" x1="4.8328" y1="12.4687" x2="300.0531" y2="12.4687" gradientTransform="matrix(1 0.0053 -0.0053 1 -4.7328 -1.3558)">
			<stop  offset="0.0056" style="stop-color:#BD2F2E"/>
			<stop  offset="1" style="stop-color:#FDD025"/>
		</linearGradient>
		<path fill="url(#SVGID_63_)" d="M286.856,17.583c-0.454,0.17-1.018,0.374-1.691,0.612c-0.673,0.238-1.307,0.427-1.901,0.564
			c-0.829,0.183-1.689,0.316-2.58,0.402c-0.892,0.085-1.868,0.124-2.931,0.119c-2.5-0.014-4.592-0.411-6.275-1.194
			c-1.683-0.782-2.521-1.774-2.515-2.978c0.005-0.961,0.438-1.744,1.301-2.349c0.863-0.605,2.084-1.08,3.664-1.422
			c1.564-0.343,3.504-0.583,5.816-0.719c2.313-0.136,4.713-0.233,7.197-0.29l0.001-0.07c0.004-0.727-0.588-1.232-1.773-1.516
			c-1.187-0.284-2.936-0.432-5.248-0.444c-1.391-0.007-2.876,0.107-4.455,0.345s-2.713,0.421-3.401,0.55l-0.773-0.004l0.017-3.176
			c0.892-0.113,2.342-0.244,4.351-0.393c2.008-0.149,4.021-0.219,6.036-0.208c4.797,0.025,8.26,0.413,10.389,1.163
			c2.129,0.75,3.188,1.914,3.181,3.492l-0.048,8.954l-8.367-0.045L286.856,17.583z M286.867,15.535l0.015-2.733
			c-1.142,0.041-2.376,0.099-3.704,0.174c-1.329,0.074-2.337,0.164-3.025,0.27c-0.845,0.128-1.49,0.317-1.937,0.567
			c-0.446,0.252-0.671,0.583-0.674,0.995c-0.001,0.273,0.045,0.495,0.138,0.667s0.326,0.337,0.7,0.494
			c0.358,0.158,0.788,0.275,1.287,0.352c0.5,0.077,1.281,0.118,2.344,0.124c0.844,0.004,1.699-0.076,2.567-0.243
			S286.209,15.813,286.867,15.535z"/>
	</g>
	<g>
		
			<linearGradient id="SVGID_64_" gradientUnits="userSpaceOnUse" x1="31.0778" y1="12.4687" x2="225.0376" y2="12.4687" gradientTransform="matrix(1 0.0053 -0.0053 1 -4.7328 -1.3558)">
			<stop  offset="0" style="stop-color:#FDD025"/>
			<stop  offset="0.9944" style="stop-color:#BD2F2E"/>
		</linearGradient>
		<path fill="url(#SVGID_64_)" d="M31.289,17.615l-9-0.048l0.075-14.074L9.074,3.423L9,17.497l-9-0.048L0.093,0l31.289,0.167
			L31.289,17.615z"/>
		
			<linearGradient id="SVGID_65_" gradientUnits="userSpaceOnUse" x1="31.0778" y1="12.4687" x2="225.0376" y2="12.4687" gradientTransform="matrix(1 0.0053 -0.0053 1 -4.7328 -1.3558)">
			<stop  offset="0" style="stop-color:#FDD025"/>
			<stop  offset="0.9944" style="stop-color:#BD2F2E"/>
		</linearGradient>
		<path fill="url(#SVGID_65_)" d="M67.23,11.045c-0.006,1.086-0.343,2.073-1.011,2.96s-1.542,1.617-2.622,2.189
			c-1.127,0.604-2.401,1.058-3.823,1.362c-1.422,0.305-2.944,0.453-4.567,0.444c-1.498-0.008-2.769-0.095-3.814-0.261
			s-2.113-0.396-3.203-0.69l-0.029,5.484L39.7,22.488L39.796,4.5l8.461,0.045L48.25,5.917c1.298-0.509,2.623-0.92,3.975-1.233
			c1.351-0.313,2.908-0.465,4.672-0.456c3.277,0.018,5.822,0.633,7.633,1.845C66.341,7.286,67.241,8.943,67.23,11.045z
			 M58.534,11.086c0.007-1.279-0.425-2.209-1.294-2.792c-0.87-0.582-2.249-0.878-4.134-0.888c-0.796-0.004-1.614,0.052-2.457,0.168
			c-0.843,0.116-1.646,0.286-2.411,0.508l-0.036,6.611c0.561,0.112,1.16,0.186,1.8,0.22c0.639,0.035,1.271,0.054,1.894,0.058
			c2.229,0.012,3.89-0.305,4.985-0.951C57.976,13.376,58.527,12.397,58.534,11.086z"/>
		
			<linearGradient id="SVGID_66_" gradientUnits="userSpaceOnUse" x1="31.0778" y1="12.4687" x2="225.0376" y2="12.4687" gradientTransform="matrix(1 0.0053 -0.0053 1 -4.7328 -1.3558)">
			<stop  offset="0" style="stop-color:#FDD025"/>
			<stop  offset="0.9944" style="stop-color:#BD2F2E"/>
		</linearGradient>
		<path fill="url(#SVGID_66_)" d="M100.229,11.408c-0.011,2.164-1.282,3.863-3.813,5.096c-2.53,1.232-6.076,1.837-10.639,1.813
			s-8.102-0.666-10.619-1.926c-2.517-1.26-3.769-2.972-3.758-5.136c0.012-2.18,1.291-3.884,3.836-5.113
			c2.546-1.229,6.084-1.831,10.616-1.807c4.594,0.024,8.141,0.668,10.642,1.932C98.996,7.531,100.241,9.244,100.229,11.408z
			 M89.829,14.553c0.549-0.333,0.961-0.735,1.237-1.206c0.276-0.472,0.416-1.125,0.42-1.961c0.004-0.773-0.133-1.422-0.412-1.948
			c-0.278-0.525-0.667-0.945-1.165-1.26c-0.499-0.323-1.099-0.553-1.801-0.689c-0.702-0.137-1.459-0.207-2.272-0.211
			s-1.536,0.046-2.169,0.152c-0.633,0.106-1.24,0.322-1.82,0.647c-0.518,0.302-0.93,0.718-1.237,1.247
			c-0.308,0.53-0.463,1.197-0.468,2.001c-0.004,0.719,0.125,1.343,0.389,1.872c0.263,0.528,0.651,0.955,1.165,1.277
			c0.498,0.308,1.095,0.533,1.789,0.678c0.695,0.145,1.487,0.219,2.378,0.224c0.766,0.004,1.497-0.057,2.192-0.182
			C88.752,15.068,89.343,14.854,89.829,14.553z"/>
		
			<linearGradient id="SVGID_67_" gradientUnits="userSpaceOnUse" x1="31.0778" y1="12.4687" x2="225.0376" y2="12.4687" gradientTransform="matrix(1 0.0053 -0.0053 1 -4.7328 -1.3558)">
			<stop  offset="0" style="stop-color:#FDD025"/>
			<stop  offset="0.9944" style="stop-color:#BD2F2E"/>
		</linearGradient>
		<path fill="url(#SVGID_67_)" d="M132.652,14.184c-0.003,0.633-0.26,1.193-0.771,1.683c-0.51,0.49-1.188,0.896-2.034,1.22
			c-1.065,0.409-2.188,0.682-3.368,0.82c-1.181,0.139-2.583,0.203-4.208,0.194l-16.031-0.086l0.07-13.16l15.352,0.082
			c1.922,0.01,3.336,0.049,4.242,0.116s1.796,0.225,2.669,0.472c0.92,0.255,1.61,0.59,2.069,1.007
			c0.459,0.417,0.687,0.91,0.684,1.48c-0.003,0.648-0.377,1.215-1.122,1.699c-0.745,0.484-1.642,0.853-2.69,1.104l0,0.129
			c1.452,0.188,2.673,0.555,3.662,1.104C132.165,12.597,132.657,13.309,132.652,14.184z M123.958,14.008
			c0.003-0.57-0.319-0.973-0.966-1.206c-0.647-0.234-1.604-0.354-2.869-0.361l-5.484-0.029l-0.016,3.012l5.625,0.03
			c1.156,0.006,2.063-0.12,2.721-0.378C123.625,14.816,123.955,14.461,123.958,14.008z M122.813,8.904
			c0.002-0.484-0.289-0.83-0.874-1.036c-0.585-0.206-1.525-0.313-2.822-0.32l-4.453-0.023l-0.014,2.625l4.594,0.024
			c1.141,0.006,2.02-0.104,2.639-0.332C122.5,9.615,122.811,9.302,122.813,8.904z"/>
		
			<linearGradient id="SVGID_68_" gradientUnits="userSpaceOnUse" x1="31.0778" y1="12.4687" x2="225.0376" y2="12.4687" gradientTransform="matrix(1 0.0053 -0.0053 1 -4.7328 -1.3558)">
			<stop  offset="0" style="stop-color:#FDD025"/>
			<stop  offset="0.9944" style="stop-color:#BD2F2E"/>
		</linearGradient>
		<path fill="url(#SVGID_68_)" d="M165.689,11.757c-0.012,2.165-1.282,3.863-3.813,5.095s-6.076,1.837-10.639,1.813
			s-8.102-0.666-10.619-1.926c-2.517-1.26-3.769-2.972-3.758-5.136c0.012-2.18,1.291-3.884,3.836-5.112
			c2.546-1.229,6.084-1.831,10.616-1.807c4.593,0.024,8.141,0.668,10.642,1.932S165.701,9.593,165.689,11.757z M155.289,14.901
			c0.549-0.333,0.961-0.735,1.237-1.206c0.276-0.472,0.416-1.125,0.421-1.961c0.004-0.773-0.133-1.423-0.412-1.948
			c-0.278-0.525-0.666-0.945-1.165-1.26c-0.498-0.323-1.099-0.553-1.801-0.689c-0.702-0.137-1.46-0.207-2.271-0.211
			c-0.813-0.004-1.536,0.046-2.169,0.152c-0.634,0.106-1.241,0.322-1.82,0.646c-0.518,0.302-0.93,0.718-1.237,1.248
			c-0.308,0.529-0.463,1.197-0.468,2.001c-0.004,0.719,0.125,1.343,0.389,1.871c0.263,0.529,0.651,0.955,1.165,1.278
			c0.498,0.307,1.095,0.533,1.789,0.678c0.695,0.144,1.487,0.219,2.378,0.223c0.766,0.005,1.496-0.056,2.192-0.182
			C154.213,15.417,154.804,15.203,155.289,14.901z"/>
		
			<linearGradient id="SVGID_69_" gradientUnits="userSpaceOnUse" x1="31.0778" y1="12.4687" x2="225.0376" y2="12.4687" gradientTransform="matrix(1 0.0053 -0.0053 1 -4.7328 -1.3558)">
			<stop  offset="0" style="stop-color:#FDD025"/>
			<stop  offset="0.9944" style="stop-color:#BD2F2E"/>
		</linearGradient>
		<path fill="url(#SVGID_69_)" d="M197.787,18.503l-8.461-0.045l0.055-10.219l-6.938-0.037c-0.05,0.585-0.088,1.041-0.113,1.365
			c-0.024,0.324-0.054,0.701-0.088,1.13c-0.116,1.257-0.332,2.279-0.649,3.067c-0.316,0.787-0.718,1.43-1.205,1.927
			c-0.472,0.506-0.978,0.905-1.519,1.199c-0.54,0.294-1.085,0.549-1.633,0.765c-0.626,0.247-1.443,0.441-2.452,0.585
			c-1.009,0.143-1.981,0.212-2.919,0.207c-0.734-0.004-1.477-0.021-2.227-0.053c-0.75-0.032-1.195-0.048-1.336-0.049l0.018-3.375
			l0.258,0.002c0.063,0,0.172,0.005,0.328,0.013c0.156,0.009,0.313,0.014,0.469,0.015c0.406,0.002,0.824-0.016,1.255-0.052
			c0.43-0.037,0.785-0.121,1.067-0.252c1.05-0.495,1.752-1.118,2.107-1.87s0.615-1.866,0.78-3.342
			c0.065-0.546,0.131-1.171,0.197-1.874s0.125-1.5,0.177-2.39l22.898,0.122L197.787,18.503z"/>
		
			<linearGradient id="SVGID_70_" gradientUnits="userSpaceOnUse" x1="31.0778" y1="12.4687" x2="225.0376" y2="12.4687" gradientTransform="matrix(1 0.0053 -0.0053 1 -4.7328 -1.3558)">
			<stop  offset="0" style="stop-color:#FDD025"/>
			<stop  offset="0.9944" style="stop-color:#BD2F2E"/>
		</linearGradient>
		<path fill="url(#SVGID_70_)" d="M232.696,12.114c-0.011,2.164-1.282,3.863-3.813,5.096c-2.529,1.232-6.076,1.837-10.639,1.813
			s-8.102-0.666-10.619-1.926c-2.517-1.26-3.769-2.972-3.758-5.136c0.012-2.18,1.291-3.884,3.836-5.113
			c2.546-1.229,6.085-1.831,10.616-1.807c4.594,0.024,8.141,0.668,10.642,1.932C231.464,8.237,232.708,9.95,232.696,12.114z
			 M222.297,15.259c0.549-0.333,0.961-0.735,1.237-1.206c0.275-0.472,0.416-1.125,0.42-1.961c0.004-0.774-0.133-1.423-0.411-1.948
			c-0.278-0.525-0.667-0.945-1.165-1.26c-0.499-0.323-1.099-0.553-1.802-0.689c-0.702-0.137-1.459-0.207-2.271-0.211
			s-1.536,0.046-2.169,0.152c-0.634,0.106-1.24,0.322-1.82,0.647c-0.518,0.302-0.93,0.718-1.237,1.247
			c-0.308,0.53-0.463,1.197-0.468,2.002c-0.004,0.719,0.126,1.343,0.389,1.871s0.651,0.955,1.165,1.277
			c0.498,0.308,1.095,0.533,1.789,0.678c0.695,0.145,1.487,0.219,2.378,0.224c0.766,0.004,1.497-0.057,2.192-0.182
			C221.22,15.774,221.811,15.561,222.297,15.259z"/>
		
			<linearGradient id="SVGID_71_" gradientUnits="userSpaceOnUse" x1="31.0778" y1="12.4687" x2="225.0376" y2="12.4687" gradientTransform="matrix(1 0.0053 -0.0053 1 -4.7328 -1.3558)">
			<stop  offset="0" style="stop-color:#FDD025"/>
			<stop  offset="0.9944" style="stop-color:#BD2F2E"/>
		</linearGradient>
		<path fill="url(#SVGID_71_)" d="M266.646,18.87l-9.742-0.052l-7.022-5.253l-2.684-0.014l-0.027,5.215l-8.461-0.046l0.069-13.16
			l8.461,0.045l-0.028,5.285c1.561,0,2.637-0.078,3.231-0.235c0.594-0.157,1.283-0.577,2.066-1.26
			c0.235-0.202,0.518-0.462,0.848-0.781c0.328-0.319,0.587-0.563,0.775-0.734c0.862-0.761,1.868-1.324,3.018-1.689
			c1.148-0.365,2.745-0.542,4.789-0.531c0.593,0.003,1.221,0.011,1.884,0.022s1.112,0.018,1.347,0.019l-0.019,3.516l-2.286-0.012
			c-0.933-0.005-1.677,0.108-2.229,0.339c-0.554,0.231-1.034,0.577-1.442,1.036c-0.347,0.381-0.662,0.682-0.947,0.903
			s-0.649,0.409-1.093,0.563L266.646,18.87z"/>
		
			<linearGradient id="SVGID_72_" gradientUnits="userSpaceOnUse" x1="31.0778" y1="12.4687" x2="225.0376" y2="12.4687" gradientTransform="matrix(1 0.0053 -0.0053 1 -4.7328 -1.3558)">
			<stop  offset="0" style="stop-color:#FDD025"/>
			<stop  offset="0.9944" style="stop-color:#BD2F2E"/>
		</linearGradient>
		<path fill="url(#SVGID_72_)" d="M286.856,17.583c-0.454,0.17-1.018,0.374-1.691,0.612c-0.673,0.238-1.307,0.427-1.901,0.564
			c-0.829,0.183-1.689,0.316-2.58,0.402c-0.892,0.085-1.868,0.124-2.931,0.119c-2.5-0.014-4.592-0.411-6.275-1.194
			c-1.683-0.782-2.521-1.774-2.515-2.978c0.005-0.961,0.438-1.744,1.301-2.349c0.863-0.605,2.084-1.08,3.664-1.422
			c1.564-0.343,3.504-0.583,5.816-0.719c2.313-0.136,4.713-0.233,7.197-0.29l0.001-0.07c0.004-0.727-0.588-1.232-1.773-1.516
			c-1.187-0.284-2.936-0.432-5.248-0.444c-1.391-0.007-2.876,0.107-4.455,0.345s-2.713,0.421-3.401,0.55l-0.773-0.004l0.017-3.176
			c0.892-0.113,2.342-0.244,4.351-0.393c2.008-0.149,4.021-0.219,6.036-0.208c4.797,0.025,8.26,0.413,10.389,1.163
			c2.129,0.75,3.188,1.914,3.181,3.492l-0.048,8.954l-8.367-0.045L286.856,17.583z M286.867,15.535l0.015-2.733
			c-1.142,0.041-2.376,0.099-3.704,0.174c-1.329,0.074-2.337,0.164-3.025,0.27c-0.845,0.128-1.49,0.317-1.937,0.567
			c-0.446,0.252-0.671,0.583-0.674,0.995c-0.001,0.273,0.045,0.495,0.138,0.667s0.326,0.337,0.7,0.494
			c0.358,0.158,0.788,0.275,1.287,0.352c0.5,0.077,1.281,0.118,2.344,0.124c0.844,0.004,1.699-0.076,2.567-0.243
			S286.209,15.813,286.867,15.535z"/>
	</g>
</g>
</svg>
