<?xml version="1.0" encoding="utf-8"?>
<!-- Generator: Adobe Illustrator 17.0.0, SVG Export Plug-In . SVG Version: 6.00 Build 0)  -->
<!DOCTYPE svg PUBLIC "-//W3C//DTD SVG 1.1//EN" "http://www.w3.org/Graphics/SVG/1.1/DTD/svg11.dtd">
<svg version="1.1" id="Слой_1" xmlns="http://www.w3.org/2000/svg" xmlns:xlink="http://www.w3.org/1999/xlink" x="0px" y="0px"
	 width="233.18px" height="23.063px" viewBox="0 0 233.18 23.063" enable-background="new 0 0 233.18 23.063" xml:space="preserve">
<g>
	<g>
		<linearGradient id="SVGID_1_" gradientUnits="userSpaceOnUse" x1="0" y1="11.5313" x2="233.1797" y2="11.5313">
			<stop  offset="0.0056" style="stop-color:#BD2F2E"/>
			<stop  offset="1" style="stop-color:#FDD025"/>
		</linearGradient>
		<path fill="url(#SVGID_1_)" d="M25.172,4.16H9v14.074H0V0.785h25.172V4.16z"/>
		<linearGradient id="SVGID_2_" gradientUnits="userSpaceOnUse" x1="0" y1="11.5313" x2="233.1797" y2="11.5313">
			<stop  offset="0.0056" style="stop-color:#BD2F2E"/>
			<stop  offset="1" style="stop-color:#FDD025"/>
		</linearGradient>
		<path fill="url(#SVGID_2_)" d="M57.586,11.473c0,1.086-0.332,2.074-0.995,2.965s-1.533,1.625-2.61,2.203
			c-1.124,0.609-2.396,1.07-3.815,1.383c-1.42,0.313-2.942,0.469-4.565,0.469c-1.498,0-2.77-0.08-3.815-0.24
			c-1.046-0.16-2.115-0.385-3.207-0.674v5.484h-8.461V5.074h8.461v1.371c1.295-0.516,2.618-0.934,3.968-1.254
			c1.35-0.32,2.906-0.48,4.67-0.48c3.277,0,5.825,0.602,7.643,1.805C56.677,7.719,57.586,9.371,57.586,11.473z M48.891,11.561
			c0-1.279-0.437-2.208-1.31-2.785S45.328,7.91,43.442,7.91c-0.796,0-1.614,0.061-2.456,0.182c-0.842,0.121-1.645,0.294-2.409,0.521
			v6.611c0.561,0.109,1.161,0.18,1.801,0.21c0.639,0.031,1.271,0.047,1.894,0.047c2.229,0,3.889-0.325,4.981-0.978
			C48.345,13.853,48.891,12.872,48.891,11.561z"/>
		<linearGradient id="SVGID_3_" gradientUnits="userSpaceOnUse" x1="0" y1="11.5313" x2="233.1797" y2="11.5313">
			<stop  offset="0.0056" style="stop-color:#BD2F2E"/>
			<stop  offset="1" style="stop-color:#FDD025"/>
		</linearGradient>
		<path fill="url(#SVGID_3_)" d="M79.617,16.84c-0.453,0.172-1.016,0.379-1.688,0.621s-1.305,0.434-1.898,0.574
			c-0.828,0.188-1.688,0.326-2.578,0.416s-1.867,0.135-2.93,0.135c-2.5,0-4.594-0.387-6.281-1.16s-2.531-1.762-2.531-2.965
			c0-0.961,0.43-1.746,1.289-2.355s2.078-1.09,3.656-1.441c1.563-0.352,3.5-0.602,5.813-0.75s4.711-0.258,7.195-0.328v-0.07
			c0-0.727-0.594-1.229-1.781-1.506s-2.938-0.416-5.25-0.416c-1.391,0-2.875,0.123-4.453,0.369s-2.711,0.436-3.398,0.568h-0.773
			V5.355c0.891-0.117,2.34-0.256,4.348-0.416s4.02-0.24,6.035-0.24c4.797,0,8.262,0.369,10.395,1.107s3.199,1.896,3.199,3.475v8.953
			h-8.367V16.84z M79.617,14.792v-2.733c-1.141,0.047-2.375,0.111-3.703,0.192c-1.328,0.082-2.336,0.178-3.023,0.287
			c-0.844,0.132-1.488,0.324-1.934,0.578c-0.445,0.253-0.668,0.586-0.668,0.998c0,0.273,0.047,0.494,0.141,0.666
			s0.328,0.335,0.703,0.49c0.359,0.156,0.789,0.271,1.289,0.346c0.5,0.073,1.281,0.11,2.344,0.11c0.844,0,1.699-0.085,2.566-0.257
			S78.961,15.072,79.617,14.792z"/>
		<linearGradient id="SVGID_4_" gradientUnits="userSpaceOnUse" x1="0" y1="11.5313" x2="233.1797" y2="11.5313">
			<stop  offset="0.0056" style="stop-color:#BD2F2E"/>
			<stop  offset="1" style="stop-color:#FDD025"/>
		</linearGradient>
		<path fill="url(#SVGID_4_)" d="M136.008,11.355c0,1.133-0.289,2.143-0.867,3.029s-1.406,1.631-2.484,2.232
			c-1.094,0.609-2.324,1.061-3.691,1.354s-2.918,0.439-4.652,0.439c-1.281,0-2.344-0.078-3.188-0.234s-1.516-0.297-2.016-0.422
			v5.309h-8.344v-5.32c-0.641,0.188-1.414,0.346-2.32,0.475s-2.016,0.193-3.328,0.193c-3.531,0-6.289-0.59-8.273-1.77
			s-2.977-2.813-2.977-4.898c0-1.117,0.301-2.1,0.902-2.947s1.434-1.572,2.496-2.174c1.031-0.578,2.258-1.02,3.68-1.324
			s2.922-0.457,4.5-0.457c1.281,0,2.348,0.074,3.199,0.223s1.559,0.305,2.121,0.469V0h8.344v5.52
			c0.656-0.164,1.504-0.318,2.543-0.463s2.16-0.217,3.363-0.217c3.516,0,6.227,0.564,8.133,1.693S136.008,9.27,136.008,11.355z
			 M110.766,15.352V7.91c-0.234-0.023-0.535-0.045-0.902-0.064s-0.77-0.029-1.207-0.029c-2.141,0-3.715,0.316-4.723,0.949
			s-1.512,1.605-1.512,2.918s0.512,2.268,1.535,2.865s2.605,0.896,4.746,0.896c0.313,0,0.668-0.008,1.066-0.023
			S110.5,15.383,110.766,15.352z M127.453,11.578c0-1.313-0.504-2.268-1.512-2.865s-2.582-0.896-4.723-0.896
			c-0.391,0-0.746,0.008-1.066,0.023s-0.668,0.043-1.043,0.082v7.43c0.328,0.031,0.656,0.055,0.984,0.07s0.688,0.023,1.078,0.023
			c2.141,0,3.723-0.316,4.746-0.949S127.453,12.891,127.453,11.578z"/>
		<linearGradient id="SVGID_5_" gradientUnits="userSpaceOnUse" x1="0" y1="11.5313" x2="233.1797" y2="11.5313">
			<stop  offset="0.0056" style="stop-color:#BD2F2E"/>
			<stop  offset="1" style="stop-color:#FDD025"/>
		</linearGradient>
		<path fill="url(#SVGID_5_)" d="M168.703,18.234h-8.18v-8.051l-11.438,8.051h-6.984V5.074h8.18v7.207l10.594-7.207h7.828V18.234z"
			/>
		<linearGradient id="SVGID_6_" gradientUnits="userSpaceOnUse" x1="0" y1="11.5313" x2="233.1797" y2="11.5313">
			<stop  offset="0.0056" style="stop-color:#BD2F2E"/>
			<stop  offset="1" style="stop-color:#FDD025"/>
		</linearGradient>
		<path fill="url(#SVGID_6_)" d="M204.609,18.234h-9.743l-7.049-5.215h-2.685v5.215h-8.461V5.074h8.461v5.285
			c1.56-0.008,2.637-0.092,3.229-0.252s1.28-0.584,2.061-1.271c0.233-0.203,0.515-0.465,0.843-0.785
			c0.327-0.32,0.584-0.566,0.771-0.738c0.858-0.766,1.861-1.334,3.009-1.705c1.146-0.371,2.742-0.557,4.786-0.557
			c0.593,0,1.221,0.004,1.884,0.012s1.112,0.012,1.347,0.012V8.59h-2.286c-0.933,0-1.676,0.117-2.228,0.352
			c-0.553,0.234-1.031,0.582-1.438,1.043c-0.344,0.383-0.657,0.686-0.941,0.908s-0.647,0.412-1.09,0.568L204.609,18.234z"/>
		<linearGradient id="SVGID_7_" gradientUnits="userSpaceOnUse" x1="0" y1="11.5313" x2="233.1797" y2="11.5313">
			<stop  offset="0.0056" style="stop-color:#BD2F2E"/>
			<stop  offset="1" style="stop-color:#FDD025"/>
		</linearGradient>
		<path fill="url(#SVGID_7_)" d="M224.813,16.84c-0.453,0.172-1.016,0.379-1.688,0.621s-1.305,0.434-1.898,0.574
			c-0.828,0.188-1.688,0.326-2.578,0.416s-1.867,0.135-2.93,0.135c-2.5,0-4.594-0.387-6.281-1.16s-2.531-1.762-2.531-2.965
			c0-0.961,0.43-1.746,1.289-2.355s2.078-1.09,3.656-1.441c1.563-0.352,3.5-0.602,5.813-0.75s4.711-0.258,7.195-0.328v-0.07
			c0-0.727-0.594-1.229-1.781-1.506s-2.938-0.416-5.25-0.416c-1.391,0-2.875,0.123-4.453,0.369s-2.711,0.436-3.398,0.568h-0.773
			V5.355c0.891-0.117,2.34-0.256,4.348-0.416s4.02-0.24,6.035-0.24c4.797,0,8.262,0.369,10.395,1.107s3.199,1.896,3.199,3.475v8.953
			h-8.367V16.84z M224.813,14.792v-2.733c-1.141,0.047-2.375,0.111-3.703,0.192c-1.328,0.082-2.336,0.178-3.023,0.287
			c-0.844,0.132-1.488,0.324-1.934,0.578c-0.445,0.253-0.668,0.586-0.668,0.998c0,0.273,0.047,0.494,0.141,0.666
			s0.328,0.335,0.703,0.49c0.359,0.156,0.789,0.271,1.289,0.346c0.5,0.073,1.281,0.11,2.344,0.11c0.844,0,1.699-0.085,2.566-0.257
			S224.156,15.072,224.813,14.792z"/>
	</g>
	<g>
		<linearGradient id="SVGID_8_" gradientUnits="userSpaceOnUse" x1="4" y1="11.5313" x2="229.1797" y2="11.5313">
			<stop  offset="0" style="stop-color:#FDD025"/>
			<stop  offset="1" style="stop-color:#BD2F2E"/>
		</linearGradient>
		<rect x="4" y="4.785" fill="url(#SVGID_8_)" width="1" height="9.449"/>
		<linearGradient id="SVGID_9_" gradientUnits="userSpaceOnUse" x1="4" y1="11.5313" x2="229.1797" y2="11.5313">
			<stop  offset="0" style="stop-color:#FDD025"/>
			<stop  offset="1" style="stop-color:#BD2F2E"/>
		</linearGradient>
		<path fill="url(#SVGID_9_)" d="M34.117,19.063V9.074h0.461v9.988H34.117z M52.823,12.632c0.045-0.349,0.068-0.706,0.068-1.071
			c0-0.574-0.053-1.126-0.156-1.653c0.713,0.497,0.851,0.938,0.851,1.565c0,0.192-0.033,0.348-0.204,0.576
			C53.225,12.26,53.04,12.453,52.823,12.632z"/>
		<linearGradient id="SVGID_10_" gradientUnits="userSpaceOnUse" x1="4" y1="11.5313" x2="229.1797" y2="11.5313">
			<stop  offset="0" style="stop-color:#FDD025"/>
			<stop  offset="1" style="stop-color:#BD2F2E"/>
		</linearGradient>
		<path fill="url(#SVGID_10_)" d="M83.617,14.234v-0.759l0.047-0.001V9.655c0.131,0.05,0.236,0.097,0.32,0.139v4.44H83.617z"/>
		<linearGradient id="SVGID_11_" gradientUnits="userSpaceOnUse" x1="4" y1="11.5313" x2="229.1797" y2="11.5313">
			<stop  offset="0" style="stop-color:#FDD025"/>
			<stop  offset="1" style="stop-color:#BD2F2E"/>
		</linearGradient>
		<path fill="url(#SVGID_11_)" d="M114.766,19.063V4h0.344v15.063H114.766z M98.516,12.956c-0.648-0.486-0.648-0.87-0.648-1.214
			c0-0.352,0.079-0.512,0.165-0.632c0.12-0.168,0.271-0.333,0.455-0.491c-0.043,0.346-0.065,0.701-0.065,1.064
			C98.422,12.121,98.454,12.546,98.516,12.956z M131.386,12.655c0.045-0.35,0.067-0.709,0.067-1.077
			c0-0.506-0.042-0.996-0.125-1.465c0.629,0.429,0.68,0.779,0.68,1.243c0,0.453-0.116,0.689-0.218,0.845
			C131.688,12.357,131.553,12.509,131.386,12.655z"/>
		<linearGradient id="SVGID_12_" gradientUnits="userSpaceOnUse" x1="4" y1="11.5313" x2="229.1797" y2="11.5313">
			<stop  offset="0" style="stop-color:#FDD025"/>
			<stop  offset="1" style="stop-color:#BD2F2E"/>
		</linearGradient>
		<path fill="url(#SVGID_12_)" d="M164.523,14.234v-5.16h0.18v5.16H164.523z M146.102,14.234v-5.16h0.18v5.16H146.102z"/>
		<linearGradient id="SVGID_13_" gradientUnits="userSpaceOnUse" x1="4" y1="11.5313" x2="229.1797" y2="11.5313">
			<stop  offset="0" style="stop-color:#FDD025"/>
			<stop  offset="1" style="stop-color:#BD2F2E"/>
		</linearGradient>
		<rect x="180.672" y="9.074" fill="url(#SVGID_13_)" width="0.461" height="5.16"/>
		<linearGradient id="SVGID_14_" gradientUnits="userSpaceOnUse" x1="4" y1="11.5313" x2="229.1797" y2="11.5313">
			<stop  offset="0" style="stop-color:#FDD025"/>
			<stop  offset="1" style="stop-color:#BD2F2E"/>
		</linearGradient>
		<path fill="url(#SVGID_14_)" d="M228.813,14.234v-0.759l0.047-0.001V9.655c0.131,0.05,0.236,0.097,0.32,0.139v4.44H228.813z"/>
	</g>
	<g>
		<linearGradient id="SVGID_15_" gradientUnits="userSpaceOnUse" x1="0" y1="11.5313" x2="233.1797" y2="11.5313">
			<stop  offset="0.0056" style="stop-color:#BD2F2E"/>
			<stop  offset="1" style="stop-color:#FDD025"/>
		</linearGradient>
		<path fill="url(#SVGID_15_)" d="M25.172,4.16H9v14.074H0V0.785h25.172V4.16z"/>
		<linearGradient id="SVGID_16_" gradientUnits="userSpaceOnUse" x1="0" y1="11.5313" x2="233.1797" y2="11.5313">
			<stop  offset="0.0056" style="stop-color:#BD2F2E"/>
			<stop  offset="1" style="stop-color:#FDD025"/>
		</linearGradient>
		<path fill="url(#SVGID_16_)" d="M57.586,11.473c0,1.086-0.332,2.074-0.995,2.965s-1.533,1.625-2.61,2.203
			c-1.124,0.609-2.396,1.07-3.815,1.383c-1.42,0.313-2.942,0.469-4.565,0.469c-1.498,0-2.77-0.08-3.815-0.24
			c-1.046-0.16-2.115-0.385-3.207-0.674v5.484h-8.461V5.074h8.461v1.371c1.295-0.516,2.618-0.934,3.968-1.254
			c1.35-0.32,2.906-0.48,4.67-0.48c3.277,0,5.825,0.602,7.643,1.805C56.677,7.719,57.586,9.371,57.586,11.473z M48.891,11.561
			c0-1.279-0.437-2.208-1.31-2.785S45.328,7.91,43.442,7.91c-0.796,0-1.614,0.061-2.456,0.182c-0.842,0.121-1.645,0.294-2.409,0.521
			v6.611c0.561,0.109,1.161,0.18,1.801,0.21c0.639,0.031,1.271,0.047,1.894,0.047c2.229,0,3.889-0.325,4.981-0.978
			C48.345,13.853,48.891,12.872,48.891,11.561z"/>
		<linearGradient id="SVGID_17_" gradientUnits="userSpaceOnUse" x1="0" y1="11.5313" x2="233.1797" y2="11.5313">
			<stop  offset="0.0056" style="stop-color:#BD2F2E"/>
			<stop  offset="1" style="stop-color:#FDD025"/>
		</linearGradient>
		<path fill="url(#SVGID_17_)" d="M79.617,16.84c-0.453,0.172-1.016,0.379-1.688,0.621s-1.305,0.434-1.898,0.574
			c-0.828,0.188-1.688,0.326-2.578,0.416s-1.867,0.135-2.93,0.135c-2.5,0-4.594-0.387-6.281-1.16s-2.531-1.762-2.531-2.965
			c0-0.961,0.43-1.746,1.289-2.355s2.078-1.09,3.656-1.441c1.563-0.352,3.5-0.602,5.813-0.75s4.711-0.258,7.195-0.328v-0.07
			c0-0.727-0.594-1.229-1.781-1.506s-2.938-0.416-5.25-0.416c-1.391,0-2.875,0.123-4.453,0.369s-2.711,0.436-3.398,0.568h-0.773
			V5.355c0.891-0.117,2.34-0.256,4.348-0.416s4.02-0.24,6.035-0.24c4.797,0,8.262,0.369,10.395,1.107s3.199,1.896,3.199,3.475v8.953
			h-8.367V16.84z M79.617,14.792v-2.733c-1.141,0.047-2.375,0.111-3.703,0.192c-1.328,0.082-2.336,0.178-3.023,0.287
			c-0.844,0.132-1.488,0.324-1.934,0.578c-0.445,0.253-0.668,0.586-0.668,0.998c0,0.273,0.047,0.494,0.141,0.666
			s0.328,0.335,0.703,0.49c0.359,0.156,0.789,0.271,1.289,0.346c0.5,0.073,1.281,0.11,2.344,0.11c0.844,0,1.699-0.085,2.566-0.257
			S78.961,15.072,79.617,14.792z"/>
		<linearGradient id="SVGID_18_" gradientUnits="userSpaceOnUse" x1="0" y1="11.5313" x2="233.1797" y2="11.5313">
			<stop  offset="0.0056" style="stop-color:#BD2F2E"/>
			<stop  offset="1" style="stop-color:#FDD025"/>
		</linearGradient>
		<path fill="url(#SVGID_18_)" d="M136.008,11.355c0,1.133-0.289,2.143-0.867,3.029s-1.406,1.631-2.484,2.232
			c-1.094,0.609-2.324,1.061-3.691,1.354s-2.918,0.439-4.652,0.439c-1.281,0-2.344-0.078-3.188-0.234s-1.516-0.297-2.016-0.422
			v5.309h-8.344v-5.32c-0.641,0.188-1.414,0.346-2.32,0.475s-2.016,0.193-3.328,0.193c-3.531,0-6.289-0.59-8.273-1.77
			s-2.977-2.813-2.977-4.898c0-1.117,0.301-2.1,0.902-2.947s1.434-1.572,2.496-2.174c1.031-0.578,2.258-1.02,3.68-1.324
			s2.922-0.457,4.5-0.457c1.281,0,2.348,0.074,3.199,0.223s1.559,0.305,2.121,0.469V0h8.344v5.52
			c0.656-0.164,1.504-0.318,2.543-0.463s2.16-0.217,3.363-0.217c3.516,0,6.227,0.564,8.133,1.693S136.008,9.27,136.008,11.355z
			 M110.766,15.352V7.91c-0.234-0.023-0.535-0.045-0.902-0.064s-0.77-0.029-1.207-0.029c-2.141,0-3.715,0.316-4.723,0.949
			s-1.512,1.605-1.512,2.918s0.512,2.268,1.535,2.865s2.605,0.896,4.746,0.896c0.313,0,0.668-0.008,1.066-0.023
			S110.5,15.383,110.766,15.352z M127.453,11.578c0-1.313-0.504-2.268-1.512-2.865s-2.582-0.896-4.723-0.896
			c-0.391,0-0.746,0.008-1.066,0.023s-0.668,0.043-1.043,0.082v7.43c0.328,0.031,0.656,0.055,0.984,0.07s0.688,0.023,1.078,0.023
			c2.141,0,3.723-0.316,4.746-0.949S127.453,12.891,127.453,11.578z"/>
		<linearGradient id="SVGID_19_" gradientUnits="userSpaceOnUse" x1="0" y1="11.5313" x2="233.1797" y2="11.5313">
			<stop  offset="0.0056" style="stop-color:#BD2F2E"/>
			<stop  offset="1" style="stop-color:#FDD025"/>
		</linearGradient>
		<path fill="url(#SVGID_19_)" d="M168.703,18.234h-8.18v-8.051l-11.438,8.051h-6.984V5.074h8.18v7.207l10.594-7.207h7.828V18.234z"
			/>
		<linearGradient id="SVGID_20_" gradientUnits="userSpaceOnUse" x1="0" y1="11.5313" x2="233.1797" y2="11.5313">
			<stop  offset="0.0056" style="stop-color:#BD2F2E"/>
			<stop  offset="1" style="stop-color:#FDD025"/>
		</linearGradient>
		<path fill="url(#SVGID_20_)" d="M204.609,18.234h-9.743l-7.049-5.215h-2.685v5.215h-8.461V5.074h8.461v5.285
			c1.56-0.008,2.637-0.092,3.229-0.252s1.28-0.584,2.061-1.271c0.233-0.203,0.515-0.465,0.843-0.785
			c0.327-0.32,0.584-0.566,0.771-0.738c0.858-0.766,1.861-1.334,3.009-1.705c1.146-0.371,2.742-0.557,4.786-0.557
			c0.593,0,1.221,0.004,1.884,0.012s1.112,0.012,1.347,0.012V8.59h-2.286c-0.933,0-1.676,0.117-2.228,0.352
			c-0.553,0.234-1.031,0.582-1.438,1.043c-0.344,0.383-0.657,0.686-0.941,0.908s-0.647,0.412-1.09,0.568L204.609,18.234z"/>
		<linearGradient id="SVGID_21_" gradientUnits="userSpaceOnUse" x1="0" y1="11.5313" x2="233.1797" y2="11.5313">
			<stop  offset="0.0056" style="stop-color:#BD2F2E"/>
			<stop  offset="1" style="stop-color:#FDD025"/>
		</linearGradient>
		<path fill="url(#SVGID_21_)" d="M224.813,16.84c-0.453,0.172-1.016,0.379-1.688,0.621s-1.305,0.434-1.898,0.574
			c-0.828,0.188-1.688,0.326-2.578,0.416s-1.867,0.135-2.93,0.135c-2.5,0-4.594-0.387-6.281-1.16s-2.531-1.762-2.531-2.965
			c0-0.961,0.43-1.746,1.289-2.355s2.078-1.09,3.656-1.441c1.563-0.352,3.5-0.602,5.813-0.75s4.711-0.258,7.195-0.328v-0.07
			c0-0.727-0.594-1.229-1.781-1.506s-2.938-0.416-5.25-0.416c-1.391,0-2.875,0.123-4.453,0.369s-2.711,0.436-3.398,0.568h-0.773
			V5.355c0.891-0.117,2.34-0.256,4.348-0.416s4.02-0.24,6.035-0.24c4.797,0,8.262,0.369,10.395,1.107s3.199,1.896,3.199,3.475v8.953
			h-8.367V16.84z M224.813,14.792v-2.733c-1.141,0.047-2.375,0.111-3.703,0.192c-1.328,0.082-2.336,0.178-3.023,0.287
			c-0.844,0.132-1.488,0.324-1.934,0.578c-0.445,0.253-0.668,0.586-0.668,0.998c0,0.273,0.047,0.494,0.141,0.666
			s0.328,0.335,0.703,0.49c0.359,0.156,0.789,0.271,1.289,0.346c0.5,0.073,1.281,0.11,2.344,0.11c0.844,0,1.699-0.085,2.566-0.257
			S224.156,15.072,224.813,14.792z"/>
	</g>
	<g>
		<linearGradient id="SVGID_22_" gradientUnits="userSpaceOnUse" x1="0" y1="11.5313" x2="233.1797" y2="11.5313">
			<stop  offset="0" style="stop-color:#FDD025"/>
			<stop  offset="1" style="stop-color:#BD2F2E"/>
		</linearGradient>
		<path fill="url(#SVGID_22_)" d="M25.172,4.16H9v14.074H0V0.785h25.172V4.16z"/>
		<linearGradient id="SVGID_23_" gradientUnits="userSpaceOnUse" x1="0" y1="11.5313" x2="233.1797" y2="11.5313">
			<stop  offset="0" style="stop-color:#FDD025"/>
			<stop  offset="1" style="stop-color:#BD2F2E"/>
		</linearGradient>
		<path fill="url(#SVGID_23_)" d="M57.586,11.473c0,1.086-0.332,2.074-0.995,2.965s-1.533,1.625-2.61,2.203
			c-1.124,0.609-2.396,1.07-3.815,1.383c-1.42,0.313-2.942,0.469-4.565,0.469c-1.498,0-2.77-0.08-3.815-0.24
			c-1.046-0.16-2.115-0.385-3.207-0.674v5.484h-8.461V5.074h8.461v1.371c1.295-0.516,2.618-0.934,3.968-1.254
			c1.35-0.32,2.906-0.48,4.67-0.48c3.277,0,5.825,0.602,7.643,1.805C56.677,7.719,57.586,9.371,57.586,11.473z M48.891,11.561
			c0-1.279-0.437-2.208-1.31-2.785S45.328,7.91,43.442,7.91c-0.796,0-1.614,0.061-2.456,0.182c-0.842,0.121-1.645,0.294-2.409,0.521
			v6.611c0.561,0.109,1.161,0.18,1.801,0.21c0.639,0.031,1.271,0.047,1.894,0.047c2.229,0,3.889-0.325,4.981-0.978
			C48.345,13.853,48.891,12.872,48.891,11.561z"/>
		<linearGradient id="SVGID_24_" gradientUnits="userSpaceOnUse" x1="0" y1="11.5313" x2="233.1797" y2="11.5313">
			<stop  offset="0" style="stop-color:#FDD025"/>
			<stop  offset="1" style="stop-color:#BD2F2E"/>
		</linearGradient>
		<path fill="url(#SVGID_24_)" d="M79.617,16.84c-0.453,0.172-1.016,0.379-1.688,0.621s-1.305,0.434-1.898,0.574
			c-0.828,0.188-1.688,0.326-2.578,0.416s-1.867,0.135-2.93,0.135c-2.5,0-4.594-0.387-6.281-1.16s-2.531-1.762-2.531-2.965
			c0-0.961,0.43-1.746,1.289-2.355s2.078-1.09,3.656-1.441c1.563-0.352,3.5-0.602,5.813-0.75s4.711-0.258,7.195-0.328v-0.07
			c0-0.727-0.594-1.229-1.781-1.506s-2.938-0.416-5.25-0.416c-1.391,0-2.875,0.123-4.453,0.369s-2.711,0.436-3.398,0.568h-0.773
			V5.355c0.891-0.117,2.34-0.256,4.348-0.416s4.02-0.24,6.035-0.24c4.797,0,8.262,0.369,10.395,1.107s3.199,1.896,3.199,3.475v8.953
			h-8.367V16.84z M79.617,14.792v-2.733c-1.141,0.047-2.375,0.111-3.703,0.192c-1.328,0.082-2.336,0.178-3.023,0.287
			c-0.844,0.132-1.488,0.324-1.934,0.578c-0.445,0.253-0.668,0.586-0.668,0.998c0,0.273,0.047,0.494,0.141,0.666
			s0.328,0.335,0.703,0.49c0.359,0.156,0.789,0.271,1.289,0.346c0.5,0.073,1.281,0.11,2.344,0.11c0.844,0,1.699-0.085,2.566-0.257
			S78.961,15.072,79.617,14.792z"/>
		<linearGradient id="SVGID_25_" gradientUnits="userSpaceOnUse" x1="0" y1="11.5313" x2="233.1797" y2="11.5313">
			<stop  offset="0" style="stop-color:#FDD025"/>
			<stop  offset="1" style="stop-color:#BD2F2E"/>
		</linearGradient>
		<path fill="url(#SVGID_25_)" d="M136.008,11.355c0,1.133-0.289,2.143-0.867,3.029s-1.406,1.631-2.484,2.232
			c-1.094,0.609-2.324,1.061-3.691,1.354s-2.918,0.439-4.652,0.439c-1.281,0-2.344-0.078-3.188-0.234s-1.516-0.297-2.016-0.422
			v5.309h-8.344v-5.32c-0.641,0.188-1.414,0.346-2.32,0.475s-2.016,0.193-3.328,0.193c-3.531,0-6.289-0.59-8.273-1.77
			s-2.977-2.813-2.977-4.898c0-1.117,0.301-2.1,0.902-2.947s1.434-1.572,2.496-2.174c1.031-0.578,2.258-1.02,3.68-1.324
			s2.922-0.457,4.5-0.457c1.281,0,2.348,0.074,3.199,0.223s1.559,0.305,2.121,0.469V0h8.344v5.52
			c0.656-0.164,1.504-0.318,2.543-0.463s2.16-0.217,3.363-0.217c3.516,0,6.227,0.564,8.133,1.693S136.008,9.27,136.008,11.355z
			 M110.766,15.352V7.91c-0.234-0.023-0.535-0.045-0.902-0.064s-0.77-0.029-1.207-0.029c-2.141,0-3.715,0.316-4.723,0.949
			s-1.512,1.605-1.512,2.918s0.512,2.268,1.535,2.865s2.605,0.896,4.746,0.896c0.313,0,0.668-0.008,1.066-0.023
			S110.5,15.383,110.766,15.352z M127.453,11.578c0-1.313-0.504-2.268-1.512-2.865s-2.582-0.896-4.723-0.896
			c-0.391,0-0.746,0.008-1.066,0.023s-0.668,0.043-1.043,0.082v7.43c0.328,0.031,0.656,0.055,0.984,0.07s0.688,0.023,1.078,0.023
			c2.141,0,3.723-0.316,4.746-0.949S127.453,12.891,127.453,11.578z"/>
		<linearGradient id="SVGID_26_" gradientUnits="userSpaceOnUse" x1="0" y1="11.5313" x2="233.1797" y2="11.5313">
			<stop  offset="0" style="stop-color:#FDD025"/>
			<stop  offset="1" style="stop-color:#BD2F2E"/>
		</linearGradient>
		<path fill="url(#SVGID_26_)" d="M168.703,18.234h-8.18v-8.051l-11.438,8.051h-6.984V5.074h8.18v7.207l10.594-7.207h7.828V18.234z"
			/>
		<linearGradient id="SVGID_27_" gradientUnits="userSpaceOnUse" x1="0" y1="11.5313" x2="233.1797" y2="11.5313">
			<stop  offset="0" style="stop-color:#FDD025"/>
			<stop  offset="1" style="stop-color:#BD2F2E"/>
		</linearGradient>
		<path fill="url(#SVGID_27_)" d="M204.609,18.234h-9.743l-7.049-5.215h-2.685v5.215h-8.461V5.074h8.461v5.285
			c1.56-0.008,2.637-0.092,3.229-0.252s1.28-0.584,2.061-1.271c0.233-0.203,0.515-0.465,0.843-0.785
			c0.327-0.32,0.584-0.566,0.771-0.738c0.858-0.766,1.861-1.334,3.009-1.705c1.146-0.371,2.742-0.557,4.786-0.557
			c0.593,0,1.221,0.004,1.884,0.012s1.112,0.012,1.347,0.012V8.59h-2.286c-0.933,0-1.676,0.117-2.228,0.352
			c-0.553,0.234-1.031,0.582-1.438,1.043c-0.344,0.383-0.657,0.686-0.941,0.908s-0.647,0.412-1.09,0.568L204.609,18.234z"/>
		<linearGradient id="SVGID_28_" gradientUnits="userSpaceOnUse" x1="0" y1="11.5313" x2="233.1797" y2="11.5313">
			<stop  offset="0" style="stop-color:#FDD025"/>
			<stop  offset="1" style="stop-color:#BD2F2E"/>
		</linearGradient>
		<path fill="url(#SVGID_28_)" d="M224.813,16.84c-0.453,0.172-1.016,0.379-1.688,0.621s-1.305,0.434-1.898,0.574
			c-0.828,0.188-1.688,0.326-2.578,0.416s-1.867,0.135-2.93,0.135c-2.5,0-4.594-0.387-6.281-1.16s-2.531-1.762-2.531-2.965
			c0-0.961,0.43-1.746,1.289-2.355s2.078-1.09,3.656-1.441c1.563-0.352,3.5-0.602,5.813-0.75s4.711-0.258,7.195-0.328v-0.07
			c0-0.727-0.594-1.229-1.781-1.506s-2.938-0.416-5.25-0.416c-1.391,0-2.875,0.123-4.453,0.369s-2.711,0.436-3.398,0.568h-0.773
			V5.355c0.891-0.117,2.34-0.256,4.348-0.416s4.02-0.24,6.035-0.24c4.797,0,8.262,0.369,10.395,1.107s3.199,1.896,3.199,3.475v8.953
			h-8.367V16.84z M224.813,14.792v-2.733c-1.141,0.047-2.375,0.111-3.703,0.192c-1.328,0.082-2.336,0.178-3.023,0.287
			c-0.844,0.132-1.488,0.324-1.934,0.578c-0.445,0.253-0.668,0.586-0.668,0.998c0,0.273,0.047,0.494,0.141,0.666
			s0.328,0.335,0.703,0.49c0.359,0.156,0.789,0.271,1.289,0.346c0.5,0.073,1.281,0.11,2.344,0.11c0.844,0,1.699-0.085,2.566-0.257
			S224.156,15.072,224.813,14.792z"/>
	</g>
	<g>
		<linearGradient id="SVGID_29_" gradientUnits="userSpaceOnUse" x1="0" y1="11.5313" x2="233.1797" y2="11.5313">
			<stop  offset="0.0056" style="stop-color:#BB2E3B"/>
			<stop  offset="1" style="stop-color:#FDD025"/>
		</linearGradient>
		<path fill="url(#SVGID_29_)" d="M25.172,4.16H9v14.074H0V0.785h25.172V4.16z"/>
		<linearGradient id="SVGID_30_" gradientUnits="userSpaceOnUse" x1="0" y1="11.5313" x2="233.1797" y2="11.5313">
			<stop  offset="0.0056" style="stop-color:#BB2E3B"/>
			<stop  offset="1" style="stop-color:#FDD025"/>
		</linearGradient>
		<path fill="url(#SVGID_30_)" d="M57.586,11.473c0,1.086-0.332,2.074-0.995,2.965s-1.533,1.625-2.61,2.203
			c-1.124,0.609-2.396,1.07-3.815,1.383c-1.42,0.313-2.942,0.469-4.565,0.469c-1.498,0-2.77-0.08-3.815-0.24
			c-1.046-0.16-2.115-0.385-3.207-0.674v5.484h-8.461V5.074h8.461v1.371c1.295-0.516,2.618-0.934,3.968-1.254
			c1.35-0.32,2.906-0.48,4.67-0.48c3.277,0,5.825,0.602,7.643,1.805C56.677,7.719,57.586,9.371,57.586,11.473z M48.891,11.561
			c0-1.279-0.437-2.208-1.31-2.785S45.328,7.91,43.442,7.91c-0.796,0-1.614,0.061-2.456,0.182c-0.842,0.121-1.645,0.294-2.409,0.521
			v6.611c0.561,0.109,1.161,0.18,1.801,0.21c0.639,0.031,1.271,0.047,1.894,0.047c2.229,0,3.889-0.325,4.981-0.978
			C48.345,13.853,48.891,12.872,48.891,11.561z"/>
		<linearGradient id="SVGID_31_" gradientUnits="userSpaceOnUse" x1="0" y1="11.5313" x2="233.1797" y2="11.5313">
			<stop  offset="0.0056" style="stop-color:#BB2E3B"/>
			<stop  offset="1" style="stop-color:#FDD025"/>
		</linearGradient>
		<path fill="url(#SVGID_31_)" d="M79.617,16.84c-0.453,0.172-1.016,0.379-1.688,0.621s-1.305,0.434-1.898,0.574
			c-0.828,0.188-1.688,0.326-2.578,0.416s-1.867,0.135-2.93,0.135c-2.5,0-4.594-0.387-6.281-1.16s-2.531-1.762-2.531-2.965
			c0-0.961,0.43-1.746,1.289-2.355s2.078-1.09,3.656-1.441c1.563-0.352,3.5-0.602,5.813-0.75s4.711-0.258,7.195-0.328v-0.07
			c0-0.727-0.594-1.229-1.781-1.506s-2.938-0.416-5.25-0.416c-1.391,0-2.875,0.123-4.453,0.369s-2.711,0.436-3.398,0.568h-0.773
			V5.355c0.891-0.117,2.34-0.256,4.348-0.416s4.02-0.24,6.035-0.24c4.797,0,8.262,0.369,10.395,1.107s3.199,1.896,3.199,3.475v8.953
			h-8.367V16.84z M79.617,14.792v-2.733c-1.141,0.047-2.375,0.111-3.703,0.192c-1.328,0.082-2.336,0.178-3.023,0.287
			c-0.844,0.132-1.488,0.324-1.934,0.578c-0.445,0.253-0.668,0.586-0.668,0.998c0,0.273,0.047,0.494,0.141,0.666
			s0.328,0.335,0.703,0.49c0.359,0.156,0.789,0.271,1.289,0.346c0.5,0.073,1.281,0.11,2.344,0.11c0.844,0,1.699-0.085,2.566-0.257
			S78.961,15.072,79.617,14.792z"/>
		<linearGradient id="SVGID_32_" gradientUnits="userSpaceOnUse" x1="0" y1="11.5313" x2="233.1797" y2="11.5313">
			<stop  offset="0.0056" style="stop-color:#BB2E3B"/>
			<stop  offset="1" style="stop-color:#FDD025"/>
		</linearGradient>
		<path fill="url(#SVGID_32_)" d="M136.008,11.355c0,1.133-0.289,2.143-0.867,3.029s-1.406,1.631-2.484,2.232
			c-1.094,0.609-2.324,1.061-3.691,1.354s-2.918,0.439-4.652,0.439c-1.281,0-2.344-0.078-3.188-0.234s-1.516-0.297-2.016-0.422
			v5.309h-8.344v-5.32c-0.641,0.188-1.414,0.346-2.32,0.475s-2.016,0.193-3.328,0.193c-3.531,0-6.289-0.59-8.273-1.77
			s-2.977-2.813-2.977-4.898c0-1.117,0.301-2.1,0.902-2.947s1.434-1.572,2.496-2.174c1.031-0.578,2.258-1.02,3.68-1.324
			s2.922-0.457,4.5-0.457c1.281,0,2.348,0.074,3.199,0.223s1.559,0.305,2.121,0.469V0h8.344v5.52
			c0.656-0.164,1.504-0.318,2.543-0.463s2.16-0.217,3.363-0.217c3.516,0,6.227,0.564,8.133,1.693S136.008,9.27,136.008,11.355z
			 M110.766,15.352V7.91c-0.234-0.023-0.535-0.045-0.902-0.064s-0.77-0.029-1.207-0.029c-2.141,0-3.715,0.316-4.723,0.949
			s-1.512,1.605-1.512,2.918s0.512,2.268,1.535,2.865s2.605,0.896,4.746,0.896c0.313,0,0.668-0.008,1.066-0.023
			S110.5,15.383,110.766,15.352z M127.453,11.578c0-1.313-0.504-2.268-1.512-2.865s-2.582-0.896-4.723-0.896
			c-0.391,0-0.746,0.008-1.066,0.023s-0.668,0.043-1.043,0.082v7.43c0.328,0.031,0.656,0.055,0.984,0.07s0.688,0.023,1.078,0.023
			c2.141,0,3.723-0.316,4.746-0.949S127.453,12.891,127.453,11.578z"/>
		<linearGradient id="SVGID_33_" gradientUnits="userSpaceOnUse" x1="0" y1="11.5313" x2="233.1797" y2="11.5313">
			<stop  offset="0.0056" style="stop-color:#BB2E3B"/>
			<stop  offset="1" style="stop-color:#FDD025"/>
		</linearGradient>
		<path fill="url(#SVGID_33_)" d="M168.703,18.234h-8.18v-8.051l-11.438,8.051h-6.984V5.074h8.18v7.207l10.594-7.207h7.828V18.234z"
			/>
		<linearGradient id="SVGID_34_" gradientUnits="userSpaceOnUse" x1="0" y1="11.5313" x2="233.1797" y2="11.5313">
			<stop  offset="0.0056" style="stop-color:#BB2E3B"/>
			<stop  offset="1" style="stop-color:#FDD025"/>
		</linearGradient>
		<path fill="url(#SVGID_34_)" d="M204.609,18.234h-9.743l-7.049-5.215h-2.685v5.215h-8.461V5.074h8.461v5.285
			c1.56-0.008,2.637-0.092,3.229-0.252s1.28-0.584,2.061-1.271c0.233-0.203,0.515-0.465,0.843-0.785
			c0.327-0.32,0.584-0.566,0.771-0.738c0.858-0.766,1.861-1.334,3.009-1.705c1.146-0.371,2.742-0.557,4.786-0.557
			c0.593,0,1.221,0.004,1.884,0.012s1.112,0.012,1.347,0.012V8.59h-2.286c-0.933,0-1.676,0.117-2.228,0.352
			c-0.553,0.234-1.031,0.582-1.438,1.043c-0.344,0.383-0.657,0.686-0.941,0.908s-0.647,0.412-1.09,0.568L204.609,18.234z"/>
		<linearGradient id="SVGID_35_" gradientUnits="userSpaceOnUse" x1="0" y1="11.5313" x2="233.1797" y2="11.5313">
			<stop  offset="0.0056" style="stop-color:#BB2E3B"/>
			<stop  offset="1" style="stop-color:#FDD025"/>
		</linearGradient>
		<path fill="url(#SVGID_35_)" d="M224.813,16.84c-0.453,0.172-1.016,0.379-1.688,0.621s-1.305,0.434-1.898,0.574
			c-0.828,0.188-1.688,0.326-2.578,0.416s-1.867,0.135-2.93,0.135c-2.5,0-4.594-0.387-6.281-1.16s-2.531-1.762-2.531-2.965
			c0-0.961,0.43-1.746,1.289-2.355s2.078-1.09,3.656-1.441c1.563-0.352,3.5-0.602,5.813-0.75s4.711-0.258,7.195-0.328v-0.07
			c0-0.727-0.594-1.229-1.781-1.506s-2.938-0.416-5.25-0.416c-1.391,0-2.875,0.123-4.453,0.369s-2.711,0.436-3.398,0.568h-0.773
			V5.355c0.891-0.117,2.34-0.256,4.348-0.416s4.02-0.24,6.035-0.24c4.797,0,8.262,0.369,10.395,1.107s3.199,1.896,3.199,3.475v8.953
			h-8.367V16.84z M224.813,14.792v-2.733c-1.141,0.047-2.375,0.111-3.703,0.192c-1.328,0.082-2.336,0.178-3.023,0.287
			c-0.844,0.132-1.488,0.324-1.934,0.578c-0.445,0.253-0.668,0.586-0.668,0.998c0,0.273,0.047,0.494,0.141,0.666
			s0.328,0.335,0.703,0.49c0.359,0.156,0.789,0.271,1.289,0.346c0.5,0.073,1.281,0.11,2.344,0.11c0.844,0,1.699-0.085,2.566-0.257
			S224.156,15.072,224.813,14.792z"/>
	</g>
	<g>
		<linearGradient id="SVGID_36_" gradientUnits="userSpaceOnUse" x1="0" y1="11.5313" x2="233.1797" y2="11.5313">
			<stop  offset="0" style="stop-color:#FDD025"/>
			<stop  offset="1" style="stop-color:#BD2F2E"/>
		</linearGradient>
		<path fill="url(#SVGID_36_)" d="M25.172,4.16H9v14.074H0V0.785h25.172V4.16z"/>
		<linearGradient id="SVGID_37_" gradientUnits="userSpaceOnUse" x1="0" y1="11.5313" x2="233.1797" y2="11.5313">
			<stop  offset="0" style="stop-color:#FDD025"/>
			<stop  offset="1" style="stop-color:#BD2F2E"/>
		</linearGradient>
		<path fill="url(#SVGID_37_)" d="M57.586,11.473c0,1.086-0.332,2.074-0.995,2.965s-1.533,1.625-2.61,2.203
			c-1.124,0.609-2.396,1.07-3.815,1.383c-1.42,0.313-2.942,0.469-4.565,0.469c-1.498,0-2.77-0.08-3.815-0.24
			c-1.046-0.16-2.115-0.385-3.207-0.674v5.484h-8.461V5.074h8.461v1.371c1.295-0.516,2.618-0.934,3.968-1.254
			c1.35-0.32,2.906-0.48,4.67-0.48c3.277,0,5.825,0.602,7.643,1.805C56.677,7.719,57.586,9.371,57.586,11.473z M48.891,11.561
			c0-1.279-0.437-2.208-1.31-2.785S45.328,7.91,43.442,7.91c-0.796,0-1.614,0.061-2.456,0.182c-0.842,0.121-1.645,0.294-2.409,0.521
			v6.611c0.561,0.109,1.161,0.18,1.801,0.21c0.639,0.031,1.271,0.047,1.894,0.047c2.229,0,3.889-0.325,4.981-0.978
			C48.345,13.853,48.891,12.872,48.891,11.561z"/>
		<linearGradient id="SVGID_38_" gradientUnits="userSpaceOnUse" x1="0" y1="11.5313" x2="233.1797" y2="11.5313">
			<stop  offset="0" style="stop-color:#FDD025"/>
			<stop  offset="1" style="stop-color:#BD2F2E"/>
		</linearGradient>
		<path fill="url(#SVGID_38_)" d="M79.617,16.84c-0.453,0.172-1.016,0.379-1.688,0.621s-1.305,0.434-1.898,0.574
			c-0.828,0.188-1.688,0.326-2.578,0.416s-1.867,0.135-2.93,0.135c-2.5,0-4.594-0.387-6.281-1.16s-2.531-1.762-2.531-2.965
			c0-0.961,0.43-1.746,1.289-2.355s2.078-1.09,3.656-1.441c1.563-0.352,3.5-0.602,5.813-0.75s4.711-0.258,7.195-0.328v-0.07
			c0-0.727-0.594-1.229-1.781-1.506s-2.938-0.416-5.25-0.416c-1.391,0-2.875,0.123-4.453,0.369s-2.711,0.436-3.398,0.568h-0.773
			V5.355c0.891-0.117,2.34-0.256,4.348-0.416s4.02-0.24,6.035-0.24c4.797,0,8.262,0.369,10.395,1.107s3.199,1.896,3.199,3.475v8.953
			h-8.367V16.84z M79.617,14.792v-2.733c-1.141,0.047-2.375,0.111-3.703,0.192c-1.328,0.082-2.336,0.178-3.023,0.287
			c-0.844,0.132-1.488,0.324-1.934,0.578c-0.445,0.253-0.668,0.586-0.668,0.998c0,0.273,0.047,0.494,0.141,0.666
			s0.328,0.335,0.703,0.49c0.359,0.156,0.789,0.271,1.289,0.346c0.5,0.073,1.281,0.11,2.344,0.11c0.844,0,1.699-0.085,2.566-0.257
			S78.961,15.072,79.617,14.792z"/>
		<linearGradient id="SVGID_39_" gradientUnits="userSpaceOnUse" x1="0" y1="11.5313" x2="233.1797" y2="11.5313">
			<stop  offset="0" style="stop-color:#FDD025"/>
			<stop  offset="1" style="stop-color:#BD2F2E"/>
		</linearGradient>
		<path fill="url(#SVGID_39_)" d="M136.008,11.355c0,1.133-0.289,2.143-0.867,3.029s-1.406,1.631-2.484,2.232
			c-1.094,0.609-2.324,1.061-3.691,1.354s-2.918,0.439-4.652,0.439c-1.281,0-2.344-0.078-3.188-0.234s-1.516-0.297-2.016-0.422
			v5.309h-8.344v-5.32c-0.641,0.188-1.414,0.346-2.32,0.475s-2.016,0.193-3.328,0.193c-3.531,0-6.289-0.59-8.273-1.77
			s-2.977-2.813-2.977-4.898c0-1.117,0.301-2.1,0.902-2.947s1.434-1.572,2.496-2.174c1.031-0.578,2.258-1.02,3.68-1.324
			s2.922-0.457,4.5-0.457c1.281,0,2.348,0.074,3.199,0.223s1.559,0.305,2.121,0.469V0h8.344v5.52
			c0.656-0.164,1.504-0.318,2.543-0.463s2.16-0.217,3.363-0.217c3.516,0,6.227,0.564,8.133,1.693S136.008,9.27,136.008,11.355z
			 M110.766,15.352V7.91c-0.234-0.023-0.535-0.045-0.902-0.064s-0.77-0.029-1.207-0.029c-2.141,0-3.715,0.316-4.723,0.949
			s-1.512,1.605-1.512,2.918s0.512,2.268,1.535,2.865s2.605,0.896,4.746,0.896c0.313,0,0.668-0.008,1.066-0.023
			S110.5,15.383,110.766,15.352z M127.453,11.578c0-1.313-0.504-2.268-1.512-2.865s-2.582-0.896-4.723-0.896
			c-0.391,0-0.746,0.008-1.066,0.023s-0.668,0.043-1.043,0.082v7.43c0.328,0.031,0.656,0.055,0.984,0.07s0.688,0.023,1.078,0.023
			c2.141,0,3.723-0.316,4.746-0.949S127.453,12.891,127.453,11.578z"/>
		<linearGradient id="SVGID_40_" gradientUnits="userSpaceOnUse" x1="0" y1="11.5313" x2="233.1797" y2="11.5313">
			<stop  offset="0" style="stop-color:#FDD025"/>
			<stop  offset="1" style="stop-color:#BD2F2E"/>
		</linearGradient>
		<path fill="url(#SVGID_40_)" d="M168.703,18.234h-8.18v-8.051l-11.438,8.051h-6.984V5.074h8.18v7.207l10.594-7.207h7.828V18.234z"
			/>
		<linearGradient id="SVGID_41_" gradientUnits="userSpaceOnUse" x1="0" y1="11.5313" x2="233.1797" y2="11.5313">
			<stop  offset="0" style="stop-color:#FDD025"/>
			<stop  offset="1" style="stop-color:#BD2F2E"/>
		</linearGradient>
		<path fill="url(#SVGID_41_)" d="M204.609,18.234h-9.743l-7.049-5.215h-2.685v5.215h-8.461V5.074h8.461v5.285
			c1.56-0.008,2.637-0.092,3.229-0.252s1.28-0.584,2.061-1.271c0.233-0.203,0.515-0.465,0.843-0.785
			c0.327-0.32,0.584-0.566,0.771-0.738c0.858-0.766,1.861-1.334,3.009-1.705c1.146-0.371,2.742-0.557,4.786-0.557
			c0.593,0,1.221,0.004,1.884,0.012s1.112,0.012,1.347,0.012V8.59h-2.286c-0.933,0-1.676,0.117-2.228,0.352
			c-0.553,0.234-1.031,0.582-1.438,1.043c-0.344,0.383-0.657,0.686-0.941,0.908s-0.647,0.412-1.09,0.568L204.609,18.234z"/>
		<linearGradient id="SVGID_42_" gradientUnits="userSpaceOnUse" x1="0" y1="11.5313" x2="233.1797" y2="11.5313">
			<stop  offset="0" style="stop-color:#FDD025"/>
			<stop  offset="1" style="stop-color:#BD2F2E"/>
		</linearGradient>
		<path fill="url(#SVGID_42_)" d="M224.813,16.84c-0.453,0.172-1.016,0.379-1.688,0.621s-1.305,0.434-1.898,0.574
			c-0.828,0.188-1.688,0.326-2.578,0.416s-1.867,0.135-2.93,0.135c-2.5,0-4.594-0.387-6.281-1.16s-2.531-1.762-2.531-2.965
			c0-0.961,0.43-1.746,1.289-2.355s2.078-1.09,3.656-1.441c1.563-0.352,3.5-0.602,5.813-0.75s4.711-0.258,7.195-0.328v-0.07
			c0-0.727-0.594-1.229-1.781-1.506s-2.938-0.416-5.25-0.416c-1.391,0-2.875,0.123-4.453,0.369s-2.711,0.436-3.398,0.568h-0.773
			V5.355c0.891-0.117,2.34-0.256,4.348-0.416s4.02-0.24,6.035-0.24c4.797,0,8.262,0.369,10.395,1.107s3.199,1.896,3.199,3.475v8.953
			h-8.367V16.84z M224.813,14.792v-2.733c-1.141,0.047-2.375,0.111-3.703,0.192c-1.328,0.082-2.336,0.178-3.023,0.287
			c-0.844,0.132-1.488,0.324-1.934,0.578c-0.445,0.253-0.668,0.586-0.668,0.998c0,0.273,0.047,0.494,0.141,0.666
			s0.328,0.335,0.703,0.49c0.359,0.156,0.789,0.271,1.289,0.346c0.5,0.073,1.281,0.11,2.344,0.11c0.844,0,1.699-0.085,2.566-0.257
			S224.156,15.072,224.813,14.792z"/>
	</g>
	<g>
		<linearGradient id="SVGID_43_" gradientUnits="userSpaceOnUse" x1="0" y1="11.5313" x2="233.1797" y2="11.5313">
			<stop  offset="0.0056" style="stop-color:#BD2F2E"/>
			<stop  offset="1" style="stop-color:#FDD025"/>
		</linearGradient>
		<path fill="url(#SVGID_43_)" d="M25.172,4.16H9v14.074H0V0.785h25.172V4.16z"/>
		<linearGradient id="SVGID_44_" gradientUnits="userSpaceOnUse" x1="0" y1="11.5313" x2="233.1797" y2="11.5313">
			<stop  offset="0.0056" style="stop-color:#BD2F2E"/>
			<stop  offset="1" style="stop-color:#FDD025"/>
		</linearGradient>
		<path fill="url(#SVGID_44_)" d="M57.586,11.473c0,1.086-0.332,2.074-0.995,2.965s-1.533,1.625-2.61,2.203
			c-1.124,0.609-2.396,1.07-3.815,1.383c-1.42,0.313-2.942,0.469-4.565,0.469c-1.498,0-2.77-0.08-3.815-0.24
			c-1.046-0.16-2.115-0.385-3.207-0.674v5.484h-8.461V5.074h8.461v1.371c1.295-0.516,2.618-0.934,3.968-1.254
			c1.35-0.32,2.906-0.48,4.67-0.48c3.277,0,5.825,0.602,7.643,1.805C56.677,7.719,57.586,9.371,57.586,11.473z M48.891,11.561
			c0-1.279-0.437-2.208-1.31-2.785S45.328,7.91,43.442,7.91c-0.796,0-1.614,0.061-2.456,0.182c-0.842,0.121-1.645,0.294-2.409,0.521
			v6.611c0.561,0.109,1.161,0.18,1.801,0.21c0.639,0.031,1.271,0.047,1.894,0.047c2.229,0,3.889-0.325,4.981-0.978
			C48.345,13.853,48.891,12.872,48.891,11.561z"/>
		<linearGradient id="SVGID_45_" gradientUnits="userSpaceOnUse" x1="0" y1="11.5313" x2="233.1797" y2="11.5313">
			<stop  offset="0.0056" style="stop-color:#BD2F2E"/>
			<stop  offset="1" style="stop-color:#FDD025"/>
		</linearGradient>
		<path fill="url(#SVGID_45_)" d="M79.617,16.84c-0.453,0.172-1.016,0.379-1.688,0.621s-1.305,0.434-1.898,0.574
			c-0.828,0.188-1.688,0.326-2.578,0.416s-1.867,0.135-2.93,0.135c-2.5,0-4.594-0.387-6.281-1.16s-2.531-1.762-2.531-2.965
			c0-0.961,0.43-1.746,1.289-2.355s2.078-1.09,3.656-1.441c1.563-0.352,3.5-0.602,5.813-0.75s4.711-0.258,7.195-0.328v-0.07
			c0-0.727-0.594-1.229-1.781-1.506s-2.938-0.416-5.25-0.416c-1.391,0-2.875,0.123-4.453,0.369s-2.711,0.436-3.398,0.568h-0.773
			V5.355c0.891-0.117,2.34-0.256,4.348-0.416s4.02-0.24,6.035-0.24c4.797,0,8.262,0.369,10.395,1.107s3.199,1.896,3.199,3.475v8.953
			h-8.367V16.84z M79.617,14.792v-2.733c-1.141,0.047-2.375,0.111-3.703,0.192c-1.328,0.082-2.336,0.178-3.023,0.287
			c-0.844,0.132-1.488,0.324-1.934,0.578c-0.445,0.253-0.668,0.586-0.668,0.998c0,0.273,0.047,0.494,0.141,0.666
			s0.328,0.335,0.703,0.49c0.359,0.156,0.789,0.271,1.289,0.346c0.5,0.073,1.281,0.11,2.344,0.11c0.844,0,1.699-0.085,2.566-0.257
			S78.961,15.072,79.617,14.792z"/>
		<linearGradient id="SVGID_46_" gradientUnits="userSpaceOnUse" x1="0" y1="11.5313" x2="233.1797" y2="11.5313">
			<stop  offset="0.0056" style="stop-color:#BD2F2E"/>
			<stop  offset="1" style="stop-color:#FDD025"/>
		</linearGradient>
		<path fill="url(#SVGID_46_)" d="M136.008,11.355c0,1.133-0.289,2.143-0.867,3.029s-1.406,1.631-2.484,2.232
			c-1.094,0.609-2.324,1.061-3.691,1.354s-2.918,0.439-4.652,0.439c-1.281,0-2.344-0.078-3.188-0.234s-1.516-0.297-2.016-0.422
			v5.309h-8.344v-5.32c-0.641,0.188-1.414,0.346-2.32,0.475s-2.016,0.193-3.328,0.193c-3.531,0-6.289-0.59-8.273-1.77
			s-2.977-2.813-2.977-4.898c0-1.117,0.301-2.1,0.902-2.947s1.434-1.572,2.496-2.174c1.031-0.578,2.258-1.02,3.68-1.324
			s2.922-0.457,4.5-0.457c1.281,0,2.348,0.074,3.199,0.223s1.559,0.305,2.121,0.469V0h8.344v5.52
			c0.656-0.164,1.504-0.318,2.543-0.463s2.16-0.217,3.363-0.217c3.516,0,6.227,0.564,8.133,1.693S136.008,9.27,136.008,11.355z
			 M110.766,15.352V7.91c-0.234-0.023-0.535-0.045-0.902-0.064s-0.77-0.029-1.207-0.029c-2.141,0-3.715,0.316-4.723,0.949
			s-1.512,1.605-1.512,2.918s0.512,2.268,1.535,2.865s2.605,0.896,4.746,0.896c0.313,0,0.668-0.008,1.066-0.023
			S110.5,15.383,110.766,15.352z M127.453,11.578c0-1.313-0.504-2.268-1.512-2.865s-2.582-0.896-4.723-0.896
			c-0.391,0-0.746,0.008-1.066,0.023s-0.668,0.043-1.043,0.082v7.43c0.328,0.031,0.656,0.055,0.984,0.07s0.688,0.023,1.078,0.023
			c2.141,0,3.723-0.316,4.746-0.949S127.453,12.891,127.453,11.578z"/>
		<linearGradient id="SVGID_47_" gradientUnits="userSpaceOnUse" x1="0" y1="11.5313" x2="233.1797" y2="11.5313">
			<stop  offset="0.0056" style="stop-color:#BD2F2E"/>
			<stop  offset="1" style="stop-color:#FDD025"/>
		</linearGradient>
		<path fill="url(#SVGID_47_)" d="M168.703,18.234h-8.18v-8.051l-11.438,8.051h-6.984V5.074h8.18v7.207l10.594-7.207h7.828V18.234z"
			/>
		<linearGradient id="SVGID_48_" gradientUnits="userSpaceOnUse" x1="0" y1="11.5313" x2="233.1797" y2="11.5313">
			<stop  offset="0.0056" style="stop-color:#BD2F2E"/>
			<stop  offset="1" style="stop-color:#FDD025"/>
		</linearGradient>
		<path fill="url(#SVGID_48_)" d="M204.609,18.234h-9.743l-7.049-5.215h-2.685v5.215h-8.461V5.074h8.461v5.285
			c1.56-0.008,2.637-0.092,3.229-0.252s1.28-0.584,2.061-1.271c0.233-0.203,0.515-0.465,0.843-0.785
			c0.327-0.32,0.584-0.566,0.771-0.738c0.858-0.766,1.861-1.334,3.009-1.705c1.146-0.371,2.742-0.557,4.786-0.557
			c0.593,0,1.221,0.004,1.884,0.012s1.112,0.012,1.347,0.012V8.59h-2.286c-0.933,0-1.676,0.117-2.228,0.352
			c-0.553,0.234-1.031,0.582-1.438,1.043c-0.344,0.383-0.657,0.686-0.941,0.908s-0.647,0.412-1.09,0.568L204.609,18.234z"/>
		<linearGradient id="SVGID_49_" gradientUnits="userSpaceOnUse" x1="0" y1="11.5313" x2="233.1797" y2="11.5313">
			<stop  offset="0.0056" style="stop-color:#BD2F2E"/>
			<stop  offset="1" style="stop-color:#FDD025"/>
		</linearGradient>
		<path fill="url(#SVGID_49_)" d="M224.813,16.84c-0.453,0.172-1.016,0.379-1.688,0.621s-1.305,0.434-1.898,0.574
			c-0.828,0.188-1.688,0.326-2.578,0.416s-1.867,0.135-2.93,0.135c-2.5,0-4.594-0.387-6.281-1.16s-2.531-1.762-2.531-2.965
			c0-0.961,0.43-1.746,1.289-2.355s2.078-1.09,3.656-1.441c1.563-0.352,3.5-0.602,5.813-0.75s4.711-0.258,7.195-0.328v-0.07
			c0-0.727-0.594-1.229-1.781-1.506s-2.938-0.416-5.25-0.416c-1.391,0-2.875,0.123-4.453,0.369s-2.711,0.436-3.398,0.568h-0.773
			V5.355c0.891-0.117,2.34-0.256,4.348-0.416s4.02-0.24,6.035-0.24c4.797,0,8.262,0.369,10.395,1.107s3.199,1.896,3.199,3.475v8.953
			h-8.367V16.84z M224.813,14.792v-2.733c-1.141,0.047-2.375,0.111-3.703,0.192c-1.328,0.082-2.336,0.178-3.023,0.287
			c-0.844,0.132-1.488,0.324-1.934,0.578c-0.445,0.253-0.668,0.586-0.668,0.998c0,0.273,0.047,0.494,0.141,0.666
			s0.328,0.335,0.703,0.49c0.359,0.156,0.789,0.271,1.289,0.346c0.5,0.073,1.281,0.11,2.344,0.11c0.844,0,1.699-0.085,2.566-0.257
			S224.156,15.072,224.813,14.792z"/>
	</g>
	<g>
		<linearGradient id="SVGID_50_" gradientUnits="userSpaceOnUse" x1="20.7297" y1="11.5313" x2="173.9287" y2="11.5313">
			<stop  offset="0" style="stop-color:#FDD025"/>
			<stop  offset="0.9944" style="stop-color:#BD2F2E"/>
		</linearGradient>
		<path fill="url(#SVGID_50_)" d="M25.172,4.16H9v14.074H0V0.785h25.172V4.16z"/>
		<linearGradient id="SVGID_51_" gradientUnits="userSpaceOnUse" x1="20.7297" y1="11.5313" x2="173.9287" y2="11.5313">
			<stop  offset="0" style="stop-color:#FDD025"/>
			<stop  offset="0.9944" style="stop-color:#BD2F2E"/>
		</linearGradient>
		<path fill="url(#SVGID_51_)" d="M57.586,11.473c0,1.086-0.332,2.074-0.995,2.965s-1.533,1.625-2.61,2.203
			c-1.124,0.609-2.396,1.07-3.815,1.383c-1.42,0.313-2.942,0.469-4.565,0.469c-1.498,0-2.77-0.08-3.815-0.24
			c-1.046-0.16-2.115-0.385-3.207-0.674v5.484h-8.461V5.074h8.461v1.371c1.295-0.516,2.618-0.934,3.968-1.254
			c1.35-0.32,2.906-0.48,4.67-0.48c3.277,0,5.825,0.602,7.643,1.805C56.677,7.719,57.586,9.371,57.586,11.473z M48.891,11.561
			c0-1.279-0.437-2.208-1.31-2.785S45.328,7.91,43.442,7.91c-0.796,0-1.614,0.061-2.456,0.182c-0.842,0.121-1.645,0.294-2.409,0.521
			v6.611c0.561,0.109,1.161,0.18,1.801,0.21c0.639,0.031,1.271,0.047,1.894,0.047c2.229,0,3.889-0.325,4.981-0.978
			C48.345,13.853,48.891,12.872,48.891,11.561z"/>
		<linearGradient id="SVGID_52_" gradientUnits="userSpaceOnUse" x1="20.7297" y1="11.5313" x2="173.9287" y2="11.5313">
			<stop  offset="0" style="stop-color:#FDD025"/>
			<stop  offset="0.9944" style="stop-color:#BD2F2E"/>
		</linearGradient>
		<path fill="url(#SVGID_52_)" d="M79.617,16.84c-0.453,0.172-1.016,0.379-1.688,0.621s-1.305,0.434-1.898,0.574
			c-0.828,0.188-1.688,0.326-2.578,0.416s-1.867,0.135-2.93,0.135c-2.5,0-4.594-0.387-6.281-1.16s-2.531-1.762-2.531-2.965
			c0-0.961,0.43-1.746,1.289-2.355s2.078-1.09,3.656-1.441c1.563-0.352,3.5-0.602,5.813-0.75s4.711-0.258,7.195-0.328v-0.07
			c0-0.727-0.594-1.229-1.781-1.506s-2.938-0.416-5.25-0.416c-1.391,0-2.875,0.123-4.453,0.369s-2.711,0.436-3.398,0.568h-0.773
			V5.355c0.891-0.117,2.34-0.256,4.348-0.416s4.02-0.24,6.035-0.24c4.797,0,8.262,0.369,10.395,1.107s3.199,1.896,3.199,3.475v8.953
			h-8.367V16.84z M79.617,14.792v-2.733c-1.141,0.047-2.375,0.111-3.703,0.192c-1.328,0.082-2.336,0.178-3.023,0.287
			c-0.844,0.132-1.488,0.324-1.934,0.578c-0.445,0.253-0.668,0.586-0.668,0.998c0,0.273,0.047,0.494,0.141,0.666
			s0.328,0.335,0.703,0.49c0.359,0.156,0.789,0.271,1.289,0.346c0.5,0.073,1.281,0.11,2.344,0.11c0.844,0,1.699-0.085,2.566-0.257
			S78.961,15.072,79.617,14.792z"/>
		<linearGradient id="SVGID_53_" gradientUnits="userSpaceOnUse" x1="20.7297" y1="11.5313" x2="173.9287" y2="11.5313">
			<stop  offset="0" style="stop-color:#FDD025"/>
			<stop  offset="0.9944" style="stop-color:#BD2F2E"/>
		</linearGradient>
		<path fill="url(#SVGID_53_)" d="M136.008,11.355c0,1.133-0.289,2.143-0.867,3.029s-1.406,1.631-2.484,2.232
			c-1.094,0.609-2.324,1.061-3.691,1.354s-2.918,0.439-4.652,0.439c-1.281,0-2.344-0.078-3.188-0.234s-1.516-0.297-2.016-0.422
			v5.309h-8.344v-5.32c-0.641,0.188-1.414,0.346-2.32,0.475s-2.016,0.193-3.328,0.193c-3.531,0-6.289-0.59-8.273-1.77
			s-2.977-2.813-2.977-4.898c0-1.117,0.301-2.1,0.902-2.947s1.434-1.572,2.496-2.174c1.031-0.578,2.258-1.02,3.68-1.324
			s2.922-0.457,4.5-0.457c1.281,0,2.348,0.074,3.199,0.223s1.559,0.305,2.121,0.469V0h8.344v5.52
			c0.656-0.164,1.504-0.318,2.543-0.463s2.16-0.217,3.363-0.217c3.516,0,6.227,0.564,8.133,1.693S136.008,9.27,136.008,11.355z
			 M110.766,15.352V7.91c-0.234-0.023-0.535-0.045-0.902-0.064s-0.77-0.029-1.207-0.029c-2.141,0-3.715,0.316-4.723,0.949
			s-1.512,1.605-1.512,2.918s0.512,2.268,1.535,2.865s2.605,0.896,4.746,0.896c0.313,0,0.668-0.008,1.066-0.023
			S110.5,15.383,110.766,15.352z M127.453,11.578c0-1.313-0.504-2.268-1.512-2.865s-2.582-0.896-4.723-0.896
			c-0.391,0-0.746,0.008-1.066,0.023s-0.668,0.043-1.043,0.082v7.43c0.328,0.031,0.656,0.055,0.984,0.07s0.688,0.023,1.078,0.023
			c2.141,0,3.723-0.316,4.746-0.949S127.453,12.891,127.453,11.578z"/>
		<linearGradient id="SVGID_54_" gradientUnits="userSpaceOnUse" x1="20.7297" y1="11.5313" x2="173.9287" y2="11.5313">
			<stop  offset="0" style="stop-color:#FDD025"/>
			<stop  offset="0.9944" style="stop-color:#BD2F2E"/>
		</linearGradient>
		<path fill="url(#SVGID_54_)" d="M168.703,18.234h-8.18v-8.051l-11.438,8.051h-6.984V5.074h8.18v7.207l10.594-7.207h7.828V18.234z"
			/>
		<linearGradient id="SVGID_55_" gradientUnits="userSpaceOnUse" x1="20.7297" y1="11.5313" x2="173.9287" y2="11.5313">
			<stop  offset="0" style="stop-color:#FDD025"/>
			<stop  offset="0.9944" style="stop-color:#BD2F2E"/>
		</linearGradient>
		<path fill="url(#SVGID_55_)" d="M204.609,18.234h-9.743l-7.049-5.215h-2.685v5.215h-8.461V5.074h8.461v5.285
			c1.56-0.008,2.637-0.092,3.229-0.252s1.28-0.584,2.061-1.271c0.233-0.203,0.515-0.465,0.843-0.785
			c0.327-0.32,0.584-0.566,0.771-0.738c0.858-0.766,1.861-1.334,3.009-1.705c1.146-0.371,2.742-0.557,4.786-0.557
			c0.593,0,1.221,0.004,1.884,0.012s1.112,0.012,1.347,0.012V8.59h-2.286c-0.933,0-1.676,0.117-2.228,0.352
			c-0.553,0.234-1.031,0.582-1.438,1.043c-0.344,0.383-0.657,0.686-0.941,0.908s-0.647,0.412-1.09,0.568L204.609,18.234z"/>
		<linearGradient id="SVGID_56_" gradientUnits="userSpaceOnUse" x1="20.7297" y1="11.5313" x2="173.9287" y2="11.5313">
			<stop  offset="0" style="stop-color:#FDD025"/>
			<stop  offset="0.9944" style="stop-color:#BD2F2E"/>
		</linearGradient>
		<path fill="url(#SVGID_56_)" d="M224.813,16.84c-0.453,0.172-1.016,0.379-1.688,0.621s-1.305,0.434-1.898,0.574
			c-0.828,0.188-1.688,0.326-2.578,0.416s-1.867,0.135-2.93,0.135c-2.5,0-4.594-0.387-6.281-1.16s-2.531-1.762-2.531-2.965
			c0-0.961,0.43-1.746,1.289-2.355s2.078-1.09,3.656-1.441c1.563-0.352,3.5-0.602,5.813-0.75s4.711-0.258,7.195-0.328v-0.07
			c0-0.727-0.594-1.229-1.781-1.506s-2.938-0.416-5.25-0.416c-1.391,0-2.875,0.123-4.453,0.369s-2.711,0.436-3.398,0.568h-0.773
			V5.355c0.891-0.117,2.34-0.256,4.348-0.416s4.02-0.24,6.035-0.24c4.797,0,8.262,0.369,10.395,1.107s3.199,1.896,3.199,3.475v8.953
			h-8.367V16.84z M224.813,14.792v-2.733c-1.141,0.047-2.375,0.111-3.703,0.192c-1.328,0.082-2.336,0.178-3.023,0.287
			c-0.844,0.132-1.488,0.324-1.934,0.578c-0.445,0.253-0.668,0.586-0.668,0.998c0,0.273,0.047,0.494,0.141,0.666
			s0.328,0.335,0.703,0.49c0.359,0.156,0.789,0.271,1.289,0.346c0.5,0.073,1.281,0.11,2.344,0.11c0.844,0,1.699-0.085,2.566-0.257
			S224.156,15.072,224.813,14.792z"/>
	</g>
</g>
</svg>
