<?xml version="1.0" encoding="utf-8"?>
<!-- Generator: Adobe Illustrator 17.0.0, SVG Export Plug-In . SVG Version: 6.00 Build 0)  -->
<!DOCTYPE svg PUBLIC "-//W3C//DTD SVG 1.1//EN" "http://www.w3.org/Graphics/SVG/1.1/DTD/svg11.dtd">
<svg version="1.1" id="Слой_1" xmlns="http://www.w3.org/2000/svg" xmlns:xlink="http://www.w3.org/1999/xlink" x="0px" y="0px"
	 width="948px" height="150px" viewBox="0 0 948 150" enable-background="new 0 0 948 150" xml:space="preserve">
<rect id="white_background" fill="#FFFFFF" width="150" height="150"/>
<linearGradient id="Box_1_" gradientUnits="userSpaceOnUse" x1="0" y1="75" x2="150" y2="75">
	<stop  offset="0" style="stop-color:#C8BEAD;stop-opacity:0.6"/>
	<stop  offset="0.0066" style="stop-color:#C8BEAD;stop-opacity:0.5958"/>
	<stop  offset="0.3163" style="stop-color:#C8B8AD;stop-opacity:0.4"/>
	<stop  offset="0.4133" style="stop-color:#C8B7AD;stop-opacity:0.3"/>
	<stop  offset="0.4688" style="stop-color:#C8B7AD;stop-opacity:0.3"/>
	<stop  offset="0.8061" style="stop-color:#C8B7AD;stop-opacity:0.3"/>
	<stop  offset="0.8278" style="stop-color:#C8B7AD;stop-opacity:0.3424"/>
	<stop  offset="0.9592" style="stop-color:#C8B7AD;stop-opacity:0.6"/>
	<stop  offset="0.9687" style="stop-color:#C8BCAD;stop-opacity:0.6931"/>
	<stop  offset="1" style="stop-color:#C8BEAD"/>
</linearGradient>
<rect id="Box" fill="url(#Box_1_)" width="150" height="150"/>
<rect id="_x31_46_x2A_146" x="26.807" y="22.942" transform="matrix(0.7071 -0.7071 0.7071 0.7071 -30.4346 77.0111)" display="none" fill="none" stroke="#000000" stroke-miterlimit="10" width="101.873" height="104.602"/>
<polygon fill="#7994A2" points="24,93.49 4.833,74.279 24,55 24,55 "/>
<polygon points="24.007,93.436 24,55 30.022,49 30,99.535 "/>
<polygon id="Основной_ромб" fill="#E2D3D6" points="30,49.006 76.706,2.097 150.707,75.909 119.923,107.027 
	107.813,107.031 107.804,119.148 78.708,148.243 30,99.531 "/>
<polygon id="Горизонтальная" points="618,107 39.463,107 33.121,103.016 618,103 "/>
<polygon fill="#FAE90A" points="107.804,119.186 107.812,107.069 119.923,107.027 "/>
<polygon id="Вертикальная" points="108,118.989 104,122.969 104,29.301 108,33.311 "/>
<rect x="129" y="64.224" fill="none" width="487.136" height="54.864"/>
<text id="Font_design..." transform="matrix(1.51 0 0 1 128.9999 99.013)" display="none" stroke="#000000" stroke-width="2" font-family="'MyriadPro-Bold'" font-size="49">Interior design</text>
<g id="Curve_design...">
	<path fill="#E2D3D6" stroke="#333333" stroke-width="2" d="M145.204,65.99v33.023h-11.32V65.99H145.204z"/>
	<path fill="#E2D3D6" stroke="#333333" stroke-width="2" d="M154.821,82.697c0-2.988-0.148-5.536-0.296-7.643h9.767l0.518,3.283
		h0.222c1.479-1.52,5.179-3.822,11.172-3.822c7.399,0,12.948,3.234,12.948,10.289v14.209h-11.247V85.735
		c0-3.087-1.628-5.194-5.697-5.194c-3.107,0-4.957,1.421-5.697,2.793c-0.296,0.441-0.444,1.176-0.444,1.862v13.816h-11.247V82.697z"
		/>
	<path fill="#E2D3D6" stroke="#333333" stroke-width="2" d="M210.313,68.195v6.859h8.065v5.487h-8.065v8.673
		c0,2.891,1.036,4.214,4.439,4.214c1.406,0,2.516-0.099,3.329-0.196l0.074,5.635c-1.48,0.392-4.144,0.637-7.325,0.637
		c-3.625,0-6.659-0.833-8.435-2.058c-2.072-1.421-3.107-3.724-3.107-7.104v-9.8h-4.81v-5.487h4.81V69.86L210.313,68.195z"/>
	<path fill="#E2D3D6" stroke="#333333" stroke-width="2" d="M233.176,89.41c0.37,3.086,4.957,4.557,10.21,4.557
		c3.848,0,6.955-0.344,9.989-0.98l1.479,5.047c-3.699,0.979-8.213,1.47-13.096,1.47c-12.282,0-19.311-4.704-19.311-12.2
		c0-6.075,5.697-12.788,18.275-12.788c11.69,0,16.13,6.026,16.13,11.955c0,1.274-0.222,2.401-0.37,2.94H233.176z M246.42,84.314
		c0-1.813-1.184-4.851-6.363-4.851c-4.735,0-6.659,2.842-6.955,4.851H246.42z"/>
	<path fill="#E2D3D6" stroke="#333333" stroke-width="2" d="M263.586,82.942c0-3.527-0.148-5.831-0.296-7.888h9.693l0.37,4.41h0.296
		c1.85-3.479,6.289-4.949,9.767-4.949c1.036,0,1.554,0,2.368,0.098v7.006c-0.814-0.098-1.776-0.195-3.034-0.195
		c-4.144,0-6.955,1.47-7.695,3.772c-0.148,0.49-0.222,1.078-0.222,1.666v12.15h-11.247V82.942z"/>
	<path fill="#E2D3D6" stroke="#333333" stroke-width="2" d="M303.318,68.391c0,2.058-2.368,3.724-6.067,3.724
		c-3.551,0-5.919-1.666-5.845-3.724c-0.074-2.156,2.294-3.772,5.919-3.772S303.244,66.235,303.318,68.391z M291.701,99.013V75.054
		h11.247v23.958H291.701z"/>
	<path fill="#E2D3D6" stroke="#333333" stroke-width="2" d="M347.711,86.764c0,8.771-9.396,12.788-19.089,12.788
		c-10.581,0-18.719-4.605-18.719-12.347s7.695-12.69,19.311-12.69C340.312,74.515,347.711,79.562,347.711,86.764z M321.519,87.009
		c0,4.116,2.59,7.202,7.399,7.202c4.365,0,7.177-2.891,7.177-7.202c0-3.576-2.072-7.202-7.177-7.202
		C323.516,79.807,321.519,83.481,321.519,87.009z"/>
	<path fill="#E2D3D6" stroke="#333333" stroke-width="2" d="M354.666,82.942c0-3.527-0.148-5.831-0.296-7.888h9.693l0.37,4.41h0.296
		c1.85-3.479,6.289-4.949,9.767-4.949c1.036,0,1.554,0,2.368,0.098v7.006c-0.814-0.098-1.776-0.195-3.034-0.195
		c-4.144,0-6.955,1.47-7.695,3.772c-0.148,0.49-0.222,1.078-0.222,1.666v12.15h-11.247V82.942z"/>
	<path fill="#E2D3D6" stroke="#333333" stroke-width="2" d="M432.798,64.226v27.633c0,2.695,0.148,5.537,0.296,7.153h-9.988
		l-0.519-3.527h-0.147c-2.294,2.694-6.659,4.066-11.32,4.066c-8.583,0-15.464-4.851-15.464-12.298
		c-0.074-8.084,7.547-12.739,16.204-12.739c4.439,0,7.917,1.029,9.544,2.695h0.148V64.226H432.798z M421.552,85.196
		c0-0.393-0.074-0.931-0.148-1.323c-0.666-2.009-3.107-3.675-6.585-3.675c-5.105,0-7.769,3.038-7.769,6.811
		c0,4.066,3.034,6.614,7.695,6.614c3.255,0,5.845-1.47,6.511-3.576c0.222-0.539,0.296-1.078,0.296-1.715V85.196z"/>
	<path fill="#E2D3D6" stroke="#333333" stroke-width="2" d="M450.48,89.41c0.37,3.086,4.958,4.557,10.211,4.557
		c3.848,0,6.955-0.344,9.988-0.98l1.48,5.047c-3.7,0.979-8.213,1.47-13.097,1.47c-12.282,0-19.312-4.704-19.312-12.2
		c0-6.075,5.697-12.788,18.275-12.788c11.69,0,16.13,6.026,16.13,11.955c0,1.274-0.222,2.401-0.37,2.94H450.48z M463.725,84.314
		c0-1.813-1.184-4.851-6.363-4.851c-4.735,0-6.658,2.842-6.954,4.851H463.725z"/>
	<path fill="#E2D3D6" stroke="#333333" stroke-width="2" d="M480.816,92.496c2.071,0.833,6.363,1.813,9.692,1.813
		c3.403,0,4.81-0.784,4.81-2.009c0-1.226-1.109-1.813-5.327-2.744c-7.473-1.666-10.358-4.36-10.285-7.202
		c0-4.459,5.771-7.839,14.725-7.839c4.217,0,7.991,0.637,10.21,1.372l-1.997,5.144c-1.628-0.588-4.735-1.372-7.843-1.372
		c-2.738,0-4.292,0.735-4.292,1.96c0,1.127,1.406,1.715,5.846,2.744c6.881,1.567,9.767,3.87,9.841,7.398
		c0,4.458-5.328,7.741-15.687,7.741c-4.735,0-8.952-0.686-11.69-1.666L480.816,92.496z"/>
	<path fill="#E2D3D6" stroke="#333333" stroke-width="2" d="M524.618,68.391c0,2.058-2.368,3.724-6.067,3.724
		c-3.552,0-5.919-1.666-5.845-3.724c-0.074-2.156,2.293-3.772,5.919-3.772C522.25,64.618,524.544,66.235,524.618,68.391z
		 M513.002,99.013V75.054h11.246v23.958H513.002z"/>
	<path fill="#E2D3D6" stroke="#333333" stroke-width="2" d="M567.827,75.054c-0.147,1.519-0.296,3.528-0.296,7.104v13.376
		c0,4.605-1.405,8.378-5.475,10.779c-3.996,2.254-9.397,2.939-14.725,2.939c-4.735,0-9.767-0.637-13.022-1.861l2.22-5.635
		c2.294,0.882,6.289,1.813,10.507,1.813c5.327,0,9.396-1.91,9.396-6.32v-1.567h-0.147c-2.146,2.009-5.623,3.136-9.767,3.136
		c-8.953,0-15.316-4.802-15.316-11.711c0-7.691,7.547-12.591,16.426-12.591c4.958,0,8.065,1.421,9.915,3.38h0.147l0.37-2.841
		H567.827z M556.285,84.804c0-0.489-0.074-0.979-0.222-1.371c-0.814-1.96-2.96-3.283-6.067-3.283c-4.069,0-7.399,2.45-7.399,6.811
		c0,3.577,2.664,6.369,7.399,6.369c2.886,0,5.179-1.273,5.919-3.037c0.296-0.539,0.37-1.323,0.37-1.96V84.804z"/>
	<path fill="#E2D3D6" stroke="#333333" stroke-width="2" d="M576.558,82.697c0-2.988-0.148-5.536-0.296-7.643h9.767l0.518,3.283
		h0.222c1.48-1.52,5.18-3.822,11.173-3.822c7.399,0,12.948,3.234,12.948,10.289v14.209h-11.246V85.735
		c0-3.087-1.628-5.194-5.697-5.194c-3.108,0-4.958,1.421-5.697,2.793c-0.296,0.441-0.444,1.176-0.444,1.862v13.816h-11.246V82.697z"
		/>
</g>
</svg>
