<?xml version="1.0" encoding="utf-8"?>
<!-- Generator: Adobe Illustrator 17.0.0, SVG Export Plug-In . SVG Version: 6.00 Build 0)  -->
<!DOCTYPE svg PUBLIC "-//W3C//DTD SVG 1.1//EN" "http://www.w3.org/Graphics/SVG/1.1/DTD/svg11.dtd">
<svg version="1.1" id="Слой_1" xmlns="http://www.w3.org/2000/svg" xmlns:xlink="http://www.w3.org/1999/xlink" x="0px" y="0px"
	 width="948px" height="150px" viewBox="0 0 948 150" enable-background="new 0 0 948 150" xml:space="preserve">
<rect id="_x31_46_x2A_146" x="26.807" y="22.942" transform="matrix(0.7071 -0.7071 0.7071 0.7071 -30.4346 77.0111)" display="none" fill="none" stroke="#000000" stroke-miterlimit="10" width="101.873" height="104.602"/>
<rect id="Box-backgraund" fill="#FFFFFF" width="155" height="150"/>
<linearGradient id="Box_1_" gradientUnits="userSpaceOnUse" x1="0" y1="75" x2="155" y2="75">
	<stop  offset="0" style="stop-color:#C8BEAD;stop-opacity:0.6"/>
	<stop  offset="0.0066" style="stop-color:#C8BEAD;stop-opacity:0.5958"/>
	<stop  offset="0.3163" style="stop-color:#C8B8AD;stop-opacity:0.4"/>
	<stop  offset="0.4133" style="stop-color:#C8B7AD;stop-opacity:0.3"/>
	<stop  offset="0.4688" style="stop-color:#C8B7AD;stop-opacity:0.3"/>
	<stop  offset="0.8061" style="stop-color:#C8B7AD;stop-opacity:0.3"/>
	<stop  offset="0.8278" style="stop-color:#C8B7AD;stop-opacity:0.3424"/>
	<stop  offset="0.9592" style="stop-color:#C8B7AD;stop-opacity:0.6"/>
	<stop  offset="0.9687" style="stop-color:#C8BCAD;stop-opacity:0.6931"/>
	<stop  offset="1" style="stop-color:#C8BEAD"/>
</linearGradient>
<rect id="Box" fill="url(#Box_1_)" width="155" height="150"/>
<polygon id="Основной_ромб" fill="#E2D3D6" points="30,49.006 76.706,2.097 150.707,75.909 119.923,107.027 
	107.813,107.031 107.804,119.148 78.708,148.243 30,99.531 "/>
<polygon points="24.007,93.436 24,55 30.022,49 30,99.535 "/>
<polygon fill="#93258F" points="24,93.49 4.833,74.279 24,55 24,55 "/>
<polygon id="Горизонтальная" points="783,107 41.249,107 33.004,103.016 783,103 "/>
<rect x="129" y="64.224" fill="none" width="653" height="54.864"/>
<text id="Шрифт_flower..." transform="matrix(1.51 0 0 1 128.9999 99.013)" display="none" stroke="#000000" stroke-width="2" font-family="'MyriadPro-Bold'" font-size="49">Flower  in the </text>
<g id="Контур_flower..">
	<path fill="#F0E5E0" stroke="#333333" stroke-width="2" d="M133.884,65.803h30.484v6.125h-19.164v7.545h17.906v6.075h-17.906
		v13.278h-11.32V65.803z"/>
	<path fill="#F0E5E0" stroke="#333333" stroke-width="2" d="M171.396,64.039h11.247v34.787h-11.247V64.039z"/>
	<path fill="#F0E5E0" stroke="#333333" stroke-width="2" d="M227.48,86.577c0,8.771-9.396,12.788-19.089,12.788
		c-10.581,0-18.719-4.606-18.719-12.348s7.695-12.689,19.311-12.689C220.081,74.328,227.48,79.375,227.48,86.577z M201.288,86.822
		c0,4.115,2.59,7.202,7.399,7.202c4.365,0,7.177-2.891,7.177-7.202c0-3.577-2.072-7.203-7.177-7.203
		C203.285,79.619,201.288,83.294,201.288,86.822z"/>
	<path fill="#F0E5E0" stroke="#333333" stroke-width="2" d="M241.539,74.867l2.886,9.799c0.74,2.499,1.48,5.145,2.072,7.889h0.148
		c0.74-2.744,1.776-5.488,2.664-7.84l3.848-9.848h8.878l3.625,9.554c0.962,2.695,1.924,5.39,2.664,8.134h0.148
		c0.518-2.744,1.258-5.438,2.071-8.183l3.108-9.505h11.024l-11.099,23.959h-10.581l-3.403-8.428
		c-0.888-2.352-1.554-4.508-2.294-7.447h-0.148c-0.666,2.989-1.406,5.193-2.368,7.447l-3.625,8.428h-10.581L230.07,74.867H241.539z"
		/>
	<path fill="#F0E5E0" stroke="#333333" stroke-width="2" d="M297.474,89.223c0.37,3.087,4.957,4.557,10.21,4.557
		c3.848,0,6.955-0.343,9.989-0.979l1.479,5.046c-3.699,0.98-8.213,1.47-13.096,1.47c-12.282,0-19.311-4.703-19.311-12.199
		c0-6.076,5.697-12.788,18.275-12.788c11.69,0,16.13,6.026,16.13,11.955c0,1.273-0.222,2.4-0.37,2.939H297.474z M310.718,84.127
		c0-1.813-1.184-4.851-6.363-4.851c-4.735,0-6.659,2.842-6.955,4.851H310.718z"/>
	<path fill="#F0E5E0" stroke="#333333" stroke-width="2" d="M327.884,82.755c0-3.527-0.148-5.83-0.296-7.888h9.693l0.37,4.409h0.296
		c1.85-3.479,6.289-4.948,9.767-4.948c1.036,0,1.554,0,2.368,0.098v7.007c-0.814-0.099-1.776-0.196-3.034-0.196
		c-4.144,0-6.955,1.47-7.695,3.772c-0.148,0.49-0.222,1.078-0.222,1.666v12.151h-11.247V82.755z"/>
	<path fill="#F0E5E0" stroke="#333333" stroke-width="2" d="M397.507,68.204c0,2.058-2.368,3.724-6.067,3.724
		c-3.551,0-5.919-1.666-5.845-3.724c-0.074-2.156,2.294-3.772,5.919-3.772S397.433,66.048,397.507,68.204z M385.891,98.826V74.867
		h11.247v23.959H385.891z"/>
	<path fill="#F0E5E0" stroke="#333333" stroke-width="2" d="M406.163,82.511c0-2.989-0.148-5.537-0.296-7.644h9.767l0.518,3.282
		h0.222c1.479-1.519,5.179-3.821,11.172-3.821c7.399,0,12.948,3.233,12.948,10.289v14.209h-11.246V85.548
		c0-3.087-1.628-5.193-5.697-5.193c-3.107,0-4.957,1.421-5.697,2.793c-0.296,0.44-0.444,1.176-0.444,1.861v13.817h-11.247V82.511z"
		/>
	<path fill="#F0E5E0" stroke="#333333" stroke-width="2" d="M477.045,68.008v6.859h8.064v5.487h-8.064v8.672
		c0,2.892,1.036,4.214,4.439,4.214c1.405,0,2.516-0.098,3.329-0.196l0.074,5.635c-1.479,0.393-4.144,0.637-7.325,0.637
		c-3.625,0-6.659-0.832-8.435-2.058c-2.071-1.421-3.107-3.724-3.107-7.104v-9.799h-4.81v-5.487h4.81v-5.194L477.045,68.008z"/>
	<path fill="#F0E5E0" stroke="#333333" stroke-width="2" d="M491.62,64.039h11.246v13.67h0.148c1.184-1.029,2.663-1.813,4.439-2.45
		c1.627-0.588,3.773-0.931,5.845-0.931c7.177,0,12.652,3.282,12.652,10.485v14.013h-11.246v-13.18c0-3.136-1.628-5.292-5.846-5.292
		c-2.96,0-4.81,1.273-5.623,2.597c-0.296,0.49-0.37,1.127-0.37,1.666v14.209H491.62V64.039z"/>
	<path fill="#F0E5E0" stroke="#333333" stroke-width="2" d="M543.635,89.223c0.37,3.087,4.958,4.557,10.211,4.557
		c3.848,0,6.955-0.343,9.988-0.979l1.48,5.046c-3.7,0.98-8.213,1.47-13.097,1.47c-12.282,0-19.312-4.703-19.312-12.199
		c0-6.076,5.697-12.788,18.275-12.788c11.69,0,16.13,6.026,16.13,11.955c0,1.273-0.222,2.4-0.37,2.939H543.635z M556.879,84.127
		c0-1.813-1.184-4.851-6.363-4.851c-4.735,0-6.658,2.842-6.954,4.851H556.879z"/>
	<path fill="#F0E5E0" stroke="#333333" stroke-width="2" d="M590.248,98.826V80.354h-4.735v-5.487h4.735v-0.931
		c0-2.891,1.332-6.075,4.587-8.035c2.812-1.764,6.733-2.401,9.989-2.401c2.516,0,4.438,0.196,5.993,0.49l-0.444,5.732
		c-0.962-0.196-2.146-0.343-3.626-0.343c-3.699,0-5.253,1.911-5.253,4.263v1.225h7.251v5.487h-7.177v18.472H590.248z"/>
	<path fill="#F0E5E0" stroke="#333333" stroke-width="2" d="M614.22,82.755c0-3.527-0.148-5.83-0.296-7.888h9.692l0.37,4.409h0.296
		c1.85-3.479,6.289-4.948,9.767-4.948c1.036,0,1.554,0,2.367,0.098v7.007c-0.813-0.099-1.775-0.196-3.033-0.196
		c-4.144,0-6.955,1.47-7.695,3.772c-0.147,0.49-0.222,1.078-0.222,1.666v12.151H614.22V82.755z"/>
	<path fill="#F0E5E0" stroke="#333333" stroke-width="2" d="M662.092,98.826l-0.666-2.401h-0.223
		c-2.367,1.911-6.066,2.94-10.358,2.94c-7.325,0-11.69-3.528-11.69-7.35c0-6.223,8.435-9.211,21.235-9.162v-0.343
		c0-1.274-1.036-3.087-6.585-3.087c-3.699,0-7.621,0.833-9.989,1.813l-2.071-4.802c2.516-0.931,7.473-2.106,14.058-2.106
		c12.061,0,15.908,4.703,15.908,10.338v8.329c0,2.303,0.148,4.508,0.518,5.831H662.092z M660.76,87.508
		c-5.919-0.049-10.507,0.882-10.507,3.772c0,1.911,1.924,2.842,4.439,2.842c2.812,0,5.105-1.225,5.845-2.743
		c0.148-0.393,0.223-0.833,0.223-1.274V87.508z"/>
	<path fill="#F0E5E0" stroke="#333333" stroke-width="2" d="M680.589,82.511c0-2.989-0.148-5.537-0.296-7.644h9.471l0.518,3.233
		h0.222c1.554-1.519,4.735-3.772,10.951-3.772c4.661,0,8.36,1.567,9.914,4.066h0.148c1.332-1.225,2.959-2.205,4.661-2.891
		c1.998-0.784,4.218-1.176,6.881-1.176c6.955,0,12.209,3.233,12.209,10.387v14.111h-10.951V85.793c0-3.479-1.701-5.487-5.327-5.487
		c-2.59,0-4.439,1.176-5.18,2.597c-0.296,0.539-0.443,1.323-0.443,1.911v14.013h-10.95V85.401c0-3.038-1.628-5.096-5.18-5.096
		c-2.886,0-4.588,1.47-5.253,2.694c-0.37,0.588-0.444,1.274-0.444,1.862v13.964h-10.95V82.511z"/>
	<path fill="#F0E5E0" stroke="#333333" stroke-width="2" d="M752.875,88.223c0.37,3.087,4.958,4.557,10.211,4.557
		c3.848,0,6.955-0.343,9.988-0.979l1.48,5.046c-3.7,0.98-8.213,1.47-13.097,1.47c-12.282,0-19.312-4.703-19.312-12.199
		c0-6.076,5.697-12.788,18.275-12.788c11.69,0,16.13,6.026,16.13,11.955c0,1.273-0.222,2.4-0.37,2.939H752.875z M766.119,83.127
		c0-1.813-1.184-4.851-6.363-4.851c-4.735,0-6.658,2.842-6.954,4.851H766.119z"/>
</g>
<polygon fill="#FAE90A" points="107.804,119.186 107.812,107.069 119.923,107.027 "/>
<polygon id="Вертикальная" points="108,118.989 104,122.969 104,29.301 108,33.311 "/>
</svg>
