<?xml version="1.0" encoding="utf-8"?>
<!-- Generator: Adobe Illustrator 17.0.0, SVG Export Plug-In . SVG Version: 6.00 Build 0)  -->
<!DOCTYPE svg PUBLIC "-//W3C//DTD SVG 1.1//EN" "http://www.w3.org/Graphics/SVG/1.1/DTD/svg11.dtd">
<svg version="1.1" id="Слой_1" xmlns="http://www.w3.org/2000/svg" xmlns:xlink="http://www.w3.org/1999/xlink" x="0px" y="0px"
	 width="948px" height="150px" viewBox="0 0 948 150" enable-background="new 0 0 948 150" xml:space="preserve">
<rect id="Box-backgraund" fill="#FFFFFF" width="150" height="150"/>
<linearGradient id="Box_1_" gradientUnits="userSpaceOnUse" x1="0" y1="75" x2="150" y2="75">
	<stop  offset="0" style="stop-color:#C8BEAD;stop-opacity:0.6"/>
	<stop  offset="0.0066" style="stop-color:#C8BEAD;stop-opacity:0.5958"/>
	<stop  offset="0.3163" style="stop-color:#C8B8AD;stop-opacity:0.4"/>
	<stop  offset="0.4133" style="stop-color:#C8B7AD;stop-opacity:0.3"/>
	<stop  offset="0.4688" style="stop-color:#C8B7AD;stop-opacity:0.3"/>
	<stop  offset="0.8061" style="stop-color:#C8B7AD;stop-opacity:0.3"/>
	<stop  offset="0.8278" style="stop-color:#C8B7AD;stop-opacity:0.3424"/>
	<stop  offset="0.9592" style="stop-color:#C8B7AD;stop-opacity:0.6"/>
	<stop  offset="0.9687" style="stop-color:#C8BCAD;stop-opacity:0.6931"/>
	<stop  offset="1" style="stop-color:#C8BEAD"/>
</linearGradient>
<rect id="Box" fill="url(#Box_1_)" width="150" height="150"/>
<polygon id="Основной_ромб" fill="#E2D3D6" points="30,49.006 76.706,2.097 150.707,75.909 119.923,107.027 
	107.813,107.031 107.804,119.148 78.708,148.243 30,99.531 "/>
<polygon points="24.007,93.436 24,55 30.022,49 30,99.535 "/>
<polygon fill="#E36721" points="24,93.49 4.833,74.279 24,55 24,55 "/>
<polygon id="Горизонтальная" points="596,107 39.197,107 33,103.016 596,103 "/>
<polygon fill="#FAE90A" points="107.804,119.186 107.812,107.069 119.923,107.027 "/>
<polygon id="Вертикальная" points="108,118.989 104,122.969 104,29.301 108,33.311 "/>
<rect x="129" y="64.224" fill="none" width="465" height="54.864"/>
<text id="Font_shaving..." transform="matrix(1.51 0 0 1 128.9999 99.0131)" display="none" stroke="#000000" stroke-width="2" font-family="'MyriadPro-Bold'" font-size="49">Metal shaving</text>
<g>
	<path fill="#E2D3D6" stroke="#333333" stroke-width="2" d="M176.058,86.466C175.835,82.497,175.614,78,175.614,73h-0.222
		c-1.554,4-3.625,8.581-5.549,12.451L163.775,98h-8.805l-5.327-12.45c-1.627-3.871-3.33-8.55-4.513-12.55h-0.148
		c-0.296,4-0.518,9.448-0.888,13.563L143.206,99h-10.433l3.182-33h15.02l4.883,11.108c1.554,3.821,3.107,7.892,4.217,11.892h0.222
		c1.406-4,3.107-8.266,4.735-11.941L170.36,66h14.724l2.737,33h-11.024L176.058,86.466z"/>
	<path fill="#E2D3D6" stroke="#333333" stroke-width="2" d="M204.987,89c0.37,3,4.957,4.762,10.21,4.762
		c3.848,0,6.955-0.241,9.989-0.878l1.479,5.098c-3.699,0.979-8.213,1.495-13.096,1.495c-12.282,0-19.311-4.691-19.311-12.187
		c0-6.075,5.697-12.781,18.275-12.781c11.69,0,16.13,5.824,16.13,11.753c0,1.274-0.222,2.739-0.37,2.739H204.987z M218.231,84
		c0-1-1.184-4.851-6.363-4.851c-4.735,0-6.659,2.851-6.955,4.851H218.231z"/>
	<path fill="#E2D3D6" stroke="#333333" stroke-width="2" d="M248,68.195V75h8v6h-8v8.214c0,2.891,1.023,4.214,4.427,4.214
		c1.406,0,2.509-0.099,3.323-0.196l0.071,5.635c-1.48,0.392-4.145,0.637-7.327,0.637c-3.625,0-6.635-0.833-8.411-2.058
		c-2.072-1.421-3.084-3.724-3.084-7.104V81h-5v-6h5v-5.14L248,68.195z"/>
	<path fill="#E2D3D6" stroke="#333333" stroke-width="2" d="M283.119,99l-0.666-2h-0.222c-2.368,2-6.067,2.746-10.359,2.746
		c-7.325,0-11.899-3.624-11.899-7.447c0-6.222,9.027-9.308,21.027-9.259v-0.343c0-1.273-0.827-3.087-6.376-3.087
		c-3.7,0-7.517,0.833-9.884,1.813l-2.02-4.802c2.516-0.931,7.63-2.107,14.215-2.107c12.061,0,16.065,4.704,16.065,10.338v8.329
		c0,2.303-0.114,4.817,0.256,5.817H283.119z M282,87.695c-6-0.05-10.613,0.882-10.613,3.772c0,1.91,1.871,2.842,4.386,2.842
		c2.812,0,5.185-1.226,5.925-2.744c0.148-0.392,0.302-0.833,0.302-1.273V87.695z"/>
	<path fill="#E2D3D6" stroke="#333333" stroke-width="2" d="M302,64h11v35h-11V64z"/>
	<path fill="#E2D3D6" stroke="#333333" stroke-width="2" d="M336.835,92.496c2.072,0.833,6.363,1.813,9.692,1.813
		c3.404,0,4.81-0.784,4.81-2.009c0-1.226-1.11-1.813-5.327-2.744c-7.473-1.666-10.359-4.36-10.285-7.202
		c0-4.459,5.771-7.839,14.724-7.839c4.217,0,7.991,0.637,10.21,1.372l-1.998,5.144c-1.628-0.588-4.735-1.372-7.843-1.372
		c-2.737,0-4.292,0.735-4.292,1.96c0,1.127,1.406,1.715,5.845,2.744c6.881,1.567,9.767,3.87,9.841,7.398
		c0,4.458-5.327,7.741-15.686,7.741c-4.735,0-8.953-0.686-11.69-1.666L336.835,92.496z"/>
	<path fill="#E2D3D6" stroke="#333333" stroke-width="2" d="M369,64h11v14h0.415c1.184-1,2.664-1.865,4.439-2.501
		c1.628-0.588,3.598-0.957,5.669-0.957C397.701,74.541,403,77.798,403,85v14h-11V85.833c0-3.136-1.575-5.292-5.793-5.292
		c-2.959,0-4.916,1.274-5.73,2.598c-0.296,0.489-0.477,1.127-0.477,1.665V99h-11V64z"/>
	<path fill="#E2D3D6" stroke="#333333" stroke-width="2" d="M432.947,99l-0.666-2h-0.222c-2.368,2-6.067,2.746-10.358,2.746
		c-7.325,0-11.813-3.624-11.813-7.447c0-6.222,8.112-9.308,21.112-9.259v-0.343c0-1.273-0.913-3.087-6.462-3.087
		c-3.699,0-7.559,0.833-9.927,1.813l-2.041-4.802c2.516-0.931,7.705-2.107,14.29-2.107c12.061,0,16.14,4.704,16.14,10.338v8.329
		c0,2.303-0.286,4.817,0.084,5.817H432.947z M432,87.695c-6-0.05-10.698,0.882-10.698,3.772c0,1.91,1.827,2.842,4.342,2.842
		c2.813,0,5.25-1.226,5.99-2.744c0.147-0.392,0.366-0.833,0.366-1.273V87.695z"/>
	<path fill="#E2D3D6" stroke="#333333" stroke-width="2" d="M458.918,75l4.884,11.145c0.888,2.009,1.554,3.855,2.071,5.855h0.222
		c0.593-2,1.185-3.797,1.998-5.855L472.754,75h11.839l-13.466,24H459.88l-13.17-24H458.918z"/>
	<path fill="#E2D3D6" stroke="#333333" stroke-width="2" d="M501.389,68.391c0,2.058-2.368,3.724-6.067,3.724
		c-3.552,0-5.919-1.666-5.845-3.724c-0.074-2.156,2.293-3.772,5.919-3.772C499.021,64.618,501.314,66.235,501.389,68.391z M490,99
		V75h11v24H490z"/>
	<path fill="#E2D3D6" stroke="#333333" stroke-width="2" d="M510,82.697c0-2.988-0.104-5.697-0.251-7.697h9.767l0.518,3h0.222
		c1.48-1,4.992-3.653,10.985-3.653c7.399,0,12.76,3.402,12.76,10.457V99h-11V85.735c0-3.087-1.563-5.194-5.632-5.194
		c-3.108,0-5.071,1.421-5.81,2.793C521.261,83.775,521,84.51,521,85.196V99h-11V82.697z"/>
	<path fill="#E2D3D6" stroke="#333333" stroke-width="2" d="M587.956,75c-0.147,2,0.044,3.582,0.044,7.158v13.376
		c0,4.605-1.575,8.378-5.645,10.779c-3.996,2.254-9.482,2.939-14.81,2.939c-4.735,0-9.809-0.637-13.065-1.861l2.198-5.635
		c2.294,0.882,6.498,1.813,10.715,1.813c5.327,0,9.605-1.91,9.605-6.32V96h-0.586c-2.146,2-5.623,2.977-9.767,2.977
		c-8.953,0-15.316-4.881-15.316-11.791c0-7.691,7.547-12.579,16.426-12.579c4.958,0,8.065,1.393,9.915,3.393h0.147l0.37-3H587.956z
		 M576,84.804c0-0.489,0.133-0.979-0.015-1.371c-0.814-1.96-2.856-3.283-5.964-3.283c-4.069,0-7.348,2.45-7.348,6.811
		c0,3.577,2.69,6.369,7.425,6.369c2.886,0,4.985-1.273,5.725-3.037c0.296-0.539,0.176-1.323,0.176-1.96V84.804z"/>
</g>
</svg>
