<?xml version="1.0" encoding="utf-8"?>
<!-- Generator: Adobe Illustrator 17.0.0, SVG Export Plug-In . SVG Version: 6.00 Build 0)  -->
<!DOCTYPE svg PUBLIC "-//W3C//DTD SVG 1.1//EN" "http://www.w3.org/Graphics/SVG/1.1/DTD/svg11.dtd">
<svg version="1.1" id="Слой_1" xmlns="http://www.w3.org/2000/svg" xmlns:xlink="http://www.w3.org/1999/xlink" x="0px" y="0px"
	 width="948px" height="150px" viewBox="0 0 948 150" enable-background="new 0 0 948 150" xml:space="preserve">
<rect id="Box-backgraund" fill="#FFFFFF" width="150" height="150"/>
<linearGradient id="Box_1_" gradientUnits="userSpaceOnUse" x1="0" y1="75" x2="150" y2="75">
	<stop  offset="0" style="stop-color:#C8BEAD;stop-opacity:0.6"/>
	<stop  offset="0.0066" style="stop-color:#C8BEAD;stop-opacity:0.5958"/>
	<stop  offset="0.3163" style="stop-color:#C8B8AD;stop-opacity:0.4"/>
	<stop  offset="0.4133" style="stop-color:#C8B7AD;stop-opacity:0.3"/>
	<stop  offset="0.4688" style="stop-color:#C8B7AD;stop-opacity:0.3"/>
	<stop  offset="0.8061" style="stop-color:#C8B7AD;stop-opacity:0.3"/>
	<stop  offset="0.8278" style="stop-color:#C8B7AD;stop-opacity:0.3424"/>
	<stop  offset="0.9592" style="stop-color:#C8B7AD;stop-opacity:0.6"/>
	<stop  offset="0.9687" style="stop-color:#C8BCAD;stop-opacity:0.6931"/>
	<stop  offset="1" style="stop-color:#C8BEAD"/>
</linearGradient>
<rect id="Box" fill="url(#Box_1_)" width="150" height="150"/>
<polygon id="Основной_ромб" fill="#E2D3D6" points="30,49.006 76.706,2.097 150.707,75.909 119.923,107.027 
	107.813,107.031 107.804,119.148 78.708,148.243 30,99.531 "/>
<polygon points="24.007,93.436 24,55 30.022,49 30,99.535 "/>
<polygon fill="#666666" points="24,93.49 4.833,74.279 24,55 24,55 "/>
<polygon id="Горизонтальная" points="422,107 37.282,107 33,103.016 422,103 "/>
<polygon fill="#FAE90A" points="107.804,119.186 107.812,107.069 119.923,107.027 "/>
<polygon id="Вертикальная" points="108,118.989 104,122.969 104,29.301 108,33.311 "/>
<g>
	<path fill="#E2D3D6" stroke="#333333" stroke-width="2" d="M176,97.494c-4,0.784-10.293,1.861-16.878,1.861
		c-9.101,0-15.801-1.519-20.389-4.458c-4.587-2.842-7.161-7.153-7.086-12.004c0.074-10.975,12.105-17.247,28.457-17.247
		c6.437,0,11.38,0.833,13.822,1.617l-2.375,5.978c-2.737-0.784-6.145-1.421-11.62-1.421c-9.396,0-16.501,3.528-16.501,10.681
		c0,6.811,6.605,10.828,15.853,10.828c2.59,0,4.717-0.195,5.717-0.489V86h-8v-6h19V97.494z"/>
	<path fill="#E2D3D6" stroke="#333333" stroke-width="2" d="M184,82.942c0-3.527,0.047-5.942-0.101-7.942h9.693l0.37,4h0.296
		c1.85-3,6.093-4.717,9.571-4.717c1.036,0,2.172,0.232,2.172,0.33v7.006c0-0.098-1.58-0.195-2.838-0.195
		c-4.144,0-7.078,1.47-7.818,3.772c-0.148,0.49-0.345,1.078-0.345,1.666V99h-11V82.942z"/>
	<path fill="#E2D3D6" stroke="#333333" stroke-width="2" d="M232.066,99l-0.666-2h-0.222c-2.368,2-6.067,2.746-10.359,2.746
		c-7.325,0-11.873-3.624-11.873-7.447c0-6.222,9.053-9.308,21.053-9.259v-0.343c0-1.273-0.854-3.087-6.403-3.087
		c-3.7,0-7.53,0.833-9.898,1.813l-2.026-4.802c2.516-0.931,7.653-2.107,14.238-2.107c12.061,0,16.088,4.704,16.088,10.338v8.329
		c0,2.303-0.167,4.817,0.203,5.817H232.066z M231,87.695c-6-0.05-10.639,0.882-10.639,3.772c0,1.91,1.858,2.842,4.373,2.842
		c2.812,0,5.205-1.226,5.945-2.744c0.148-0.392,0.322-0.833,0.322-1.273V87.695z"/>
	<path fill="#E2D3D6" stroke="#333333" stroke-width="2" d="M251,83.089c0-3.136-0.584-6.089-0.732-8.089h9.767l0.518,3h0.148
		c2.664-2,6.807-3.678,12.061-3.678c7.917,0,15.02,4.653,15.02,12.296c0,8.722-8.361,12.981-16.426,12.981
		c-4.366,0-7.769-1.599-9.397-2.599H262v12h-11V83.089z M262,88.724c0,0.588-0.021,1.127,0.127,1.568
		c0.74,2.009,3.282,3.527,6.538,3.527c4.883,0,7.745-2.694,7.745-6.762c0-3.821-2.602-6.712-7.633-6.712
		c-3.182,0-5.904,1.567-6.644,3.772C261.985,84.51,262,85,262,85.441V88.724z"/>
	<path fill="#E2D3D6" stroke="#333333" stroke-width="2" d="M295,64h11v14h0.204c1.184-1,2.664-1.865,4.439-2.501
		c1.628-0.588,3.703-0.957,5.775-0.957C323.595,74.541,329,77.798,329,85v14h-11V85.833c0-3.136-1.681-5.292-5.898-5.292
		c-2.959,0-4.864,1.274-5.677,2.598c-0.296,0.489-0.425,1.127-0.425,1.665V99h-11V64z"/>
	<path fill="#E2D3D6" stroke="#333333" stroke-width="2" d="M349.784,68.391c0,2.058-2.368,3.724-6.067,3.724
		c-3.551,0-5.919-1.666-5.845-3.724c-0.074-2.156,2.294-3.772,5.919-3.772S349.71,66.235,349.784,68.391z M338,99V75h11v24H338z"/>
	<path fill="#E2D3D6" stroke="#333333" stroke-width="2" d="M385.594,98.425c-1.998,0.588-5.771,1.078-10.063,1.078
		c-11.69,0-19.163-4.704-19.163-12.249c0-7.007,7.251-12.739,20.717-12.739c2.96,0,6.215,0.343,8.583,0.931l-1.776,5.536
		c-1.332-0.392-3.33-0.735-6.289-0.735c-5.919,0-9.767,2.793-9.693,6.713c0,4.409,4.439,6.713,9.915,6.713
		c2.664,0,4.735-0.295,6.437-0.735L385.594,98.425z"/>
	<path fill="#E2D3D6" stroke="#333333" stroke-width="2" d="M391.735,92.496c2.072,0.833,6.363,1.813,9.692,1.813
		c3.404,0,4.81-0.784,4.81-2.009c0-1.226-1.11-1.813-5.327-2.744c-7.473-1.666-10.359-4.36-10.285-7.202
		c0-4.459,5.771-7.839,14.724-7.839c4.217,0,7.991,0.637,10.21,1.372l-1.998,5.144c-1.628-0.588-4.735-1.372-7.843-1.372
		c-2.737,0-4.292,0.735-4.292,1.96c0,1.127,1.406,1.715,5.845,2.744c6.881,1.567,9.767,3.87,9.841,7.398
		c0,4.458-5.327,7.741-15.686,7.741c-4.735,0-8.953-0.686-11.69-1.666L391.735,92.496z"/>
</g>
</svg>
