<?xml version="1.0" encoding="utf-8"?>
<!-- Generator: Adobe Illustrator 17.0.0, SVG Export Plug-In . SVG Version: 6.00 Build 0)  -->
<!DOCTYPE svg PUBLIC "-//W3C//DTD SVG 1.1//EN" "http://www.w3.org/Graphics/SVG/1.1/DTD/svg11.dtd">
<svg version="1.1" id="Слой_1" xmlns="http://www.w3.org/2000/svg" xmlns:xlink="http://www.w3.org/1999/xlink" x="0px" y="0px"
	 width="948px" height="150px" viewBox="0 0 948 150" enable-background="new 0 0 948 150" xml:space="preserve">
<rect id="Box-backgraund" fill="#FFFFFF" width="150" height="150"/>
<linearGradient id="Box_1_" gradientUnits="userSpaceOnUse" x1="0" y1="75" x2="150" y2="75">
	<stop  offset="0" style="stop-color:#C8BEAD;stop-opacity:0.6"/>
	<stop  offset="0.0066" style="stop-color:#C8BEAD;stop-opacity:0.5958"/>
	<stop  offset="0.3163" style="stop-color:#C8B8AD;stop-opacity:0.4"/>
	<stop  offset="0.4133" style="stop-color:#C8B7AD;stop-opacity:0.3"/>
	<stop  offset="0.4688" style="stop-color:#C8B7AD;stop-opacity:0.3"/>
	<stop  offset="0.8061" style="stop-color:#C8B7AD;stop-opacity:0.3"/>
	<stop  offset="0.8278" style="stop-color:#C8B7AD;stop-opacity:0.3424"/>
	<stop  offset="0.9592" style="stop-color:#C8B7AD;stop-opacity:0.6"/>
	<stop  offset="0.9687" style="stop-color:#C8BCAD;stop-opacity:0.6931"/>
	<stop  offset="1" style="stop-color:#C8BEAD"/>
</linearGradient>
<rect id="Box" fill="url(#Box_1_)" width="150" height="150"/>
<polygon id="Основной_ромб" fill="#E2D3D6" points="30,49.006 76.706,2.097 150.707,75.909 119.923,107.027 
	107.813,107.031 107.804,119.148 78.708,148.243 30,99.531 "/>
<polygon points="24.007,93.436 24,55 30.022,49 30,99.535 "/>
<polygon fill="#B3A47F" points="24,93.49 4.833,74.279 24,55 24,55 "/>
<polygon id="Горизонтальная" points="360,107 36.599,107 33,103.016 360,103 "/>
<polygon fill="#FAE90A" points="107.804,119.186 107.812,107.069 119.923,107.027 "/>
<polygon id="Вертикальная" points="108,118.989 104,122.969 104,29.301 108,33.311 "/>
<rect x="129" y="64.224" fill="none" width="228.5" height="54.864"/>
<text id="Font_stone..." transform="matrix(1.51 0 0 1 128.9999 99.0131)" display="none" stroke="#000000" stroke-width="2" font-family="'MyriadPro-Bold'" font-size="49">Pebbl</text>
<g>
	<path fill="#E2D3D6" stroke="#333333" stroke-width="2" d="M134,66.431c3-0.392,8.302-0.686,15.183-0.686
		c6.955,0,11.883,0.882,15.213,2.646c3.182,1.666,5.313,4.41,5.313,7.644c0,3.233-1.635,5.978-4.595,7.839
		c-3.847,2.401-9.576,3.479-16.235,3.479c-1.48,0-2.879-0.049-3.879-0.146V99h-11V66.431z M145,81.424
		c1,0.146,2.174,0.195,3.801,0.195c5.993,0,9.707-2.009,9.707-5.39c0-3.037-3.203-4.85-8.826-4.85c-2.294,0-3.682,0.147-4.682,0.294
		V81.424z"/>
	<path fill="#E2D3D6" stroke="#333333" stroke-width="2" d="M183.383,89c0.37,3,4.957,4.762,10.21,4.762
		c3.848,0,6.955-0.241,9.989-0.878l1.479,5.098c-3.699,0.979-8.213,1.495-13.096,1.495c-12.282,0-19.311-4.691-19.311-12.187
		c0-6.075,5.697-12.781,18.275-12.781c11.69,0,16.13,5.824,16.13,11.753c0,1.274-0.222,2.739-0.37,2.739H183.383z M196.627,84
		c0-1-1.184-4.851-6.363-4.851c-4.735,0-6.659,2.851-6.955,4.851H196.627z"/>
	<path fill="#E2D3D6" stroke="#333333" stroke-width="2" d="M213.497,99c0.148-2,0.503-4.445,0.503-7.141V64h11v14h0.188
		c2.146-2,5.919-3.433,10.951-3.433c8.657,0,15.02,4.726,14.946,12.076c0,8.623-8.287,13.081-16.574,13.081
		c-4.217,0-8.287-0.724-10.876-3.724h-0.148l-0.444,3H213.497z M225,88.822c0,0.489,0.094,0.931,0.242,1.322
		c0.74,2.009,3.339,3.528,6.595,3.528c4.81,0,7.774-2.45,7.774-6.762c0-3.724-2.513-6.664-7.767-6.664
		c-3.034,0-5.864,1.52-6.604,3.675c-0.148,0.441-0.241,0.882-0.241,1.372V88.822z"/>
	<path fill="#E2D3D6" stroke="#333333" stroke-width="2" d="M257.743,99c0.148-2,0.257-4.445,0.257-7.141V64h11v14h0.433
		c2.146-2,5.919-3.433,10.951-3.433c8.657,0,15.02,4.726,14.946,12.076c0,8.623-8.287,13.081-16.574,13.081
		c-4.217,0-8.287-0.724-10.876-3.724h-0.148l-0.444,3H257.743z M269,88.822c0,0.489,0.217,0.931,0.365,1.322
		c0.74,2.009,3.401,3.528,6.656,3.528c4.81,0,7.805-2.45,7.805-6.762c0-3.724-2.498-6.664-7.751-6.664
		c-3.034,0-5.979,1.52-6.719,3.675c-0.148,0.441-0.356,0.882-0.356,1.372V88.822z"/>
	<path fill="#E2D3D6" stroke="#333333" stroke-width="2" d="M302,64h12v35h-12V64z"/>
	<path fill="#E2D3D6" stroke="#333333" stroke-width="2" d="M331.288,89c0.37,3,4.957,4.762,10.21,4.762
		c3.847,0,6.955-0.241,9.989-0.878l1.479,5.098c-3.699,0.979-8.213,1.495-13.096,1.495c-12.282,0-19.311-4.691-19.311-12.187
		c0-6.075,5.697-12.781,18.275-12.781c11.69,0,16.13,5.824,16.13,11.753c0,1.274-0.222,2.739-0.37,2.739H331.288z M344.532,84
		c0-1-1.184-4.851-6.363-4.851c-4.735,0-6.659,2.851-6.955,4.851H344.532z"/>
</g>
</svg>
