<?xml version="1.0" encoding="utf-8"?>
<!-- Generator: Adobe Illustrator 17.0.0, SVG Export Plug-In . SVG Version: 6.00 Build 0)  -->
<!DOCTYPE svg PUBLIC "-//W3C//DTD SVG 1.1//EN" "http://www.w3.org/Graphics/SVG/1.1/DTD/svg11.dtd">
<svg version="1.1" id="Слой_1" xmlns="http://www.w3.org/2000/svg" xmlns:xlink="http://www.w3.org/1999/xlink" x="0px" y="0px"
	 width="948px" height="150px" viewBox="0 0 948 150" enable-background="new 0 0 948 150" xml:space="preserve">
<rect id="_x31_46_x2A_146" x="26.807" y="22.942" transform="matrix(0.7071 -0.7071 0.7071 0.7071 -30.4346 77.0111)" display="none" fill="none" stroke="#000000" stroke-miterlimit="10" width="101.873" height="104.602"/>
<rect id="Box-backgraund" fill="#FFFFFF" width="150" height="150"/>
<linearGradient id="Box_1_" gradientUnits="userSpaceOnUse" x1="0" y1="75" x2="150" y2="75">
	<stop  offset="0" style="stop-color:#C8BEAD;stop-opacity:0.6"/>
	<stop  offset="0.0066" style="stop-color:#C8BEAD;stop-opacity:0.5958"/>
	<stop  offset="0.3163" style="stop-color:#C8B8AD;stop-opacity:0.4"/>
	<stop  offset="0.4133" style="stop-color:#C8B7AD;stop-opacity:0.3"/>
	<stop  offset="0.4688" style="stop-color:#C8B7AD;stop-opacity:0.3"/>
	<stop  offset="0.8061" style="stop-color:#C8B7AD;stop-opacity:0.3"/>
	<stop  offset="0.8278" style="stop-color:#C8B7AD;stop-opacity:0.3424"/>
	<stop  offset="0.9592" style="stop-color:#C8B7AD;stop-opacity:0.6"/>
	<stop  offset="0.9687" style="stop-color:#C8BCAD;stop-opacity:0.6931"/>
	<stop  offset="1" style="stop-color:#C8BEAD"/>
</linearGradient>
<rect id="Box" fill="url(#Box_1_)" width="150" height="150"/>
<polygon id="Основной_ромб" fill="#E2D3D6" points="30,49.006 76.706,2.097 150.707,75.909 119.923,107.027 
	107.813,107.031 107.804,119.148 78.708,148.243 30,99.531 "/>
<polygon points="24.007,93.436 24,55 30.022,49 30,99.535 "/>
<polygon fill="#3B1B6C" points="24,93.49 4.833,74.279 24,55 24,55 "/>
<polygon id="Горизонтальная" points="276,107 35.675,107 33,103.016 276,103 "/>
<g>
	<path fill="#E2D3D6" stroke="#333333" stroke-width="2" d="M134.253,91.32c3.034,1.029,7.695,2.058,12.504,2.058
		c5.179,0,7.917-1.42,7.917-3.576c0-2.058-2.368-3.233-8.361-4.654c-8.287-1.911-13.688-4.949-13.688-9.75
		c0-5.634,7.103-9.946,18.868-9.946c5.623,0,9.767,0.784,12.726,1.666l-2.516,6.027c-1.998-0.637-5.549-1.568-10.433-1.568
		s-7.251,1.47-7.251,3.185c0,2.107,2.812,3.038,9.249,4.655c8.805,2.155,12.948,5.193,12.948,9.848
		c0,5.536-6.437,10.24-20.125,10.24c-5.697,0-11.321-0.979-14.132-2.009L134.253,91.32z"/>
	<path fill="#E2D3D6" stroke="#333333" stroke-width="2" d="M184.418,85.147h0.148c0.814-0.98,1.702-1.96,2.59-2.892l7.325-7.202
		h13.541l-12.948,9.701l14.798,14.258h-13.836l-8.731-9.848l-2.886,2.352v7.496h-11.247V64.226h11.247V85.147z"/>
	<path fill="#E2D3D6" stroke="#333333" stroke-width="2" d="M225.63,68.391c0,2.058-2.368,3.724-6.067,3.724
		c-3.551,0-5.919-1.666-5.845-3.724c-0.074-2.156,2.294-3.772,5.919-3.772S225.556,66.235,225.63,68.391z M214.013,99.013V75.054
		h11.247v23.958H214.013z"/>
	<path fill="#E2D3D6" stroke="#333333" stroke-width="2" d="M234.286,82.697c0-2.988-0.148-5.536-0.296-7.643h9.767l0.518,3.283
		h0.222c1.479-1.52,5.179-3.822,11.172-3.822c7.399,0,12.948,3.234,12.948,10.289v14.209h-11.247V85.735
		c0-3.087-1.628-5.194-5.697-5.194c-3.107,0-4.957,1.421-5.697,2.793c-0.296,0.441-0.444,1.176-0.444,1.862v13.816h-11.247V82.697z"
		/>
</g>
<polygon fill="#FAE90A" points="107.804,119.186 107.812,107.069 119.923,107.027 "/>
<polygon id="Вертикальная" points="108,118.989 104,122.969 104,29.301 108,33.311 "/>
</svg>
