<?xml version="1.0" encoding="utf-8"?>
<!-- Generator: Adobe Illustrator 17.0.0, SVG Export Plug-In . SVG Version: 6.00 Build 0)  -->
<!DOCTYPE svg PUBLIC "-//W3C//DTD SVG 1.1//EN" "http://www.w3.org/Graphics/SVG/1.1/DTD/svg11.dtd">
<svg version="1.1" id="Слой_1" xmlns="http://www.w3.org/2000/svg" xmlns:xlink="http://www.w3.org/1999/xlink" x="0px" y="0px"
	 width="59px" height="52px" viewBox="-66 182.5 59 52" enable-background="new -66 182.5 59 52" xml:space="preserve">
<g id="Фон-белый">
	<rect x="-66" y="182.5" fill="#FFFFFF" width="60" height="52"/>
</g>
<g id="Слой_1_1_">
	<g id="Листья">
		<g id="Верхний_лист_2_">
			<g>
				<g>
					<path fill="#000002" d="M-16.853,196.393c0.102,1.392,0.224,2.282-0.742,3.397c-0.732,0.85-1.707,1.453-2.511,2.221
						c-0.447,0.429-0.833,0.931-1.057,1.514c-0.224,0.584-0.112,2.046-0.955,2.128c0-0.01-0.01-0.02-0.01-0.03
						c-0.295-0.634-0.325-1.371-0.437-2.056c-0.183-1.136-0.061-1.545-0.061-2.569c0-0.461,0.366-1.73,0.488-2.036
						c0.315-0.798,0.671-1.331,1.27-1.934c0.64-0.655,1.067-1.484,1.728-2.128c0.722-0.706,1.575-1.412,2.388-2.006
						c-0.102,0.645-0.163,1.289-0.224,1.934C-17.026,195.349-16.884,195.872-16.853,196.393z"/>
				</g>
			</g>
		</g>
		<g id="Узкий_лист_2_">
			<g>
				<g>
					<path fill="#000002" d="M-21.409,230.099c-2.286,0.972-5.712-0.819-7.593-2.487c-1.595-1.422-1.91-2.712-2.246-4.861
						c-0.498-3.172,0.325-4.912-1.362-7.819c-0.071-0.103-0.163-0.215-0.274-0.307c-0.488-0.451-2.093-2.036-1.88-2.569
						c0.132-0.318,1.809,0.665,2.043,0.778c1.016,0.471,2.225,0.808,3.05,1.566c1.352,1.248,3.121,3.551,3.151,6.17
						C-26.46,225.464-26.481,228.605-21.409,230.099z"/>
				</g>
			</g>
		</g>
		<g id="XMLID_2_">
			<g>
				<g>
					<path d="M-28.261,201.235c-0.163,0.91-0.833,1.699-1.331,2.466c-0.721,1.126-1.352,2.118-2.521,2.815
						c-0.864,0.522-1.717,0.778-2.623,1.166c-1.097,0.481-1.931,1.279-2.775,2.118c-0.661,0.665-0.996,1.913-1.799,2.394
						c-0.213-1.299,0.498-2.527,0.955-3.705c0.396-1.065,0.335-2.261,0.793-3.295c0.996-2.221,4.36-1.566,6.301-1.76
						C-29.958,203.313-28.881,202.35-28.261,201.235z"/>
				</g>
			</g>
			<g>
				<g>
					<path fill="none" stroke="#000000" stroke-width="1.0199" stroke-linecap="round" stroke-linejoin="round" d="M-39.309,212.195
						c-0.213-1.299,0.498-2.527,0.955-3.705c0.396-1.065,0.335-2.261,0.793-3.295c0.996-2.221,4.36-1.566,6.301-1.76
						c1.301-0.123,2.378-1.085,2.999-2.201c-0.163,0.91-0.833,1.699-1.331,2.466c-0.721,1.126-1.352,2.118-2.521,2.815
						c-0.864,0.522-1.717,0.778-2.623,1.166c-1.097,0.481-1.931,1.279-2.775,2.118C-38.171,210.465-38.506,211.714-39.309,212.195z"
						/>
				</g>
			</g>
		</g>
		<g id="Нижний_лист_2_">
			<g>
				<g>
					<path d="M-42.109,215.259c4.899,2.302,9.117,8.944,7.339,14.787c-0.132,0.429-0.102,0.86-0.081,1.269
						c0.03,0.451,0.051,0.85-0.122,1.188c-1.433-2.036-3.009-4.032-5.082-4.841c-2.806-1.095-4.726-2.036-5.864-5.24
						c-1.097-3.049-1.28-6.949-1.25-10.715l0.874,0.103C-46.296,211.811-43.928,214.39-42.109,215.259z"/>
				</g>
			</g>
		</g>
	</g>
	<g id="Верхние_ветки_2_">
		<g>
			<g>
				<path d="M-53.248,188.036c0.152,1.566-0.264,3.776-1.352,4.841c-1.372,1.35-2.347,4.011-2.418,5.597
					c-0.061,1.627-0.437,2.998-1.524,4.287c-1.158,1.361-4.442,4.799-6.098,4.799c0,0-0.437,0.205,0.569-0.645
					c1.494-1.248,0.894-6.283,0.894-6.651c0-2.835,2.002-4.052,2.541-4.963c0.508-0.85,0.661-1.331,0.925-1.801
					c0.295-0.522,1.321-1.873,1.321-1.873C-56.979,189.929-55.19,188.69-53.248,188.036z"/>
			</g>
		</g>
		<g>
			<g>
				<path fill="none" stroke="#000002" stroke-width="1.5298" stroke-linecap="round" stroke-miterlimit="10" d="M-26.162,187.964
					c5.743-3.848,14.281-0.829,16.618,5.71c1.108,3.101,0.376,7.481-1.524,10.08c-0.457,0.624-0.976,1.198-1.534,1.719
					c-2.225,2.078-5.163,3.418-8.02,4.319c-2.063,0.655-4.269,1.218-6.413,1.525c-1.87,0.266-3.751,0.481-5.641,0.624
					c-3.984,0.318-8.01,0.348-11.973,0.03c-2.012-0.163-4.228-0.481-6.657-0.962c-2.938-0.584-6.169-1.412-9.686-2.507
					c-1.128-0.348-2.968-0.717-3.649-0.942c0,0-0.437,0.205,0.569-0.645c1.494-1.248,0.894-6.283,0.894-6.651
					c0-2.835,2.002-4.052,2.541-4.963c0.508-0.85,0.661-1.331,0.925-1.801c0.295-0.522,1.321-1.873,1.321-1.873
					c1.413-1.699,3.202-2.937,5.143-3.592c2.806-0.972,5.925-0.717,8.64,1.146c2.47,1.699,2.846,4.359,0.986,6.672"/>
			</g>
			<g>
				<path fill="none" stroke="#000002" stroke-width="2" stroke-miterlimit="10" d="M-64.179,207.451
					c1.576-0.109,4.289-3.444,5.447-4.805c1.087-1.289,1.557-2.603,1.618-4.23c0.071-1.586,0.718-4.218,2.09-5.569
					c1.087-1.065,1.023-3.245,1.023-4.812c0-0.02,0,0.464,0,0.464"/>
			</g>
			<g>
				
					<path fill="none" stroke="#000002" stroke-width="1.5298" stroke-linecap="round" stroke-linejoin="round" stroke-miterlimit="10" d="
					M-51.307,211.01c0.61,0.542,0.671,1.945,0.488,2.681c-0.325,1.279-0.965,2.221-1.809,2.855"/>
			</g>
			<g>
				<path fill="none" stroke="#000000" stroke-width="1.5298" stroke-linecap="round" stroke-miterlimit="10" d="M-32.737,212.053
					c0.02-0.041,0.041-0.072,0.061-0.113c0.559-0.972,2.358-1.647,3.304-2.088c1.26-0.584,2.144-1.309,3.324-2.128
					c3.69-2.538,8.782-4.237,13.142-2.394c0.102,0.041,0.203,0.092,0.305,0.143c0.996,0.461,2.083,1.156,2.816,1.945
					c1.971,2.169,3.415,5.557,2.541,8.494c-0.234,0.788-0.63,1.514-1.108,2.19c-0.528,0.737-1.016,1.586-1.809,2.068"/>
			</g>
			<g>
				<path fill="none" stroke="#000000" stroke-width="1.5298" stroke-linecap="round" stroke-miterlimit="10" d="M-6.26,207.451
					c-1.138-0.328-3.846-0.829-4.497-1.043l0.99,0.99"/>
			</g>
		</g>
	</g>
	<g id="Ягоды">
		<g id="Вишня-4_3_">
			<path fill="#F40B0B" d="M-18.537,220.264c1.459-2.349,5.012-2.817,7.935-1.044c2.924,1.771,4.109,5.112,2.65,7.461
				s-5.012,2.817-7.935,1.044C-18.81,225.954-19.996,222.613-18.537,220.264z"/>
		</g>
		<g id="Вишня-3_1_">
			<path fill="#F40B0B" d="M-60.483,216.565c1.38-2.46,4.88-3.109,7.818-1.449c2.938,1.66,4.199,5,2.819,7.46
				s-4.88,3.109-7.818,1.449C-60.602,222.365-61.863,219.026-60.483,216.565z"/>
		</g>
		<g id="Вишня-2_3_">
			<path fill="#F40B0B" d="M-34.519,189.132c1.453-2.417,4.968-2.956,7.852-1.202c2.883,1.754,4.042,5.135,2.589,7.552
				s-4.968,2.956-7.852,1.202C-34.814,194.929-35.973,191.549-34.519,189.132z"/>
		</g>
		<g id="Вишня-1_3_">
			<path fill="#F40B0B" d="M-51.559,198.145c0.906-2.634,4.271-3.94,7.514-2.917s5.137,3.986,4.23,6.62
				c-0.906,2.634-4.271,3.94-7.514,2.917S-52.466,200.778-51.559,198.145z"/>
		</g>
	</g>
</g>
</svg>
