<?xml version="1.0" encoding="utf-8"?>
<!-- Generator: Adobe Illustrator 17.0.0, SVG Export Plug-In . SVG Version: 6.00 Build 0)  -->
<!DOCTYPE svg PUBLIC "-//W3C//DTD SVG 1.1//EN" "http://www.w3.org/Graphics/SVG/1.1/DTD/svg11.dtd">
<svg version="1.1" id="Слой_1" xmlns="http://www.w3.org/2000/svg" xmlns:xlink="http://www.w3.org/1999/xlink" x="0px" y="0px"
	 width="948px" height="150px" viewBox="0 0 948 150" enable-background="new 0 0 948 150" xml:space="preserve">
<image display="none" overflow="visible" width="438" height="423" id="rhombus__x2116_3" xlink:href="A0B4F4CA.jpg"  transform="matrix(0.3546 0 0 0.3546 0 0)">
</image>
<linearGradient id="Box_1_" gradientUnits="userSpaceOnUse" x1="0" y1="75" x2="155" y2="75">
	<stop  offset="0" style="stop-color:#C8BEAD;stop-opacity:0.6"/>
	<stop  offset="0.0066" style="stop-color:#C8BEAD;stop-opacity:0.5958"/>
	<stop  offset="0.3163" style="stop-color:#C8B8AD;stop-opacity:0.4"/>
	<stop  offset="0.4133" style="stop-color:#C8B7AD;stop-opacity:0.3"/>
	<stop  offset="0.4688" style="stop-color:#C8B7AD;stop-opacity:0.3"/>
	<stop  offset="0.8061" style="stop-color:#C8B7AD;stop-opacity:0.3"/>
	<stop  offset="0.8278" style="stop-color:#C8B7AD;stop-opacity:0.3424"/>
	<stop  offset="0.9592" style="stop-color:#C8B7AD;stop-opacity:0.6"/>
	<stop  offset="0.9687" style="stop-color:#C8BCAD;stop-opacity:0.6931"/>
	<stop  offset="1" style="stop-color:#C8BEAD"/>
</linearGradient>
<rect id="Box" fill="url(#Box_1_)" width="155" height="150"/>
<rect id="_x31_46_x2A_146" x="26.807" y="22.942" transform="matrix(0.7071 -0.7071 0.7071 0.7071 -30.4346 77.0111)" display="none" fill="none" stroke="#000000" stroke-miterlimit="10" width="101.873" height="104.602"/>
<rect id="Образец_цвета_1_" x="185" y="16" display="none" fill="#3B1B6C" width="53" height="19"/>
<rect id="Образец_цвета" x="263" y="16" display="none" fill="#FAE90A" width="50" height="19"/>
<polygon fill="#2C85F2" points="24,93.49 4.833,74.279 24,55 24,55 "/>
<polygon points="24.007,93.436 24,55 30.022,49 30,99.535 "/>
<polygon id="Основной_ромб" fill="#E2D3D6" points="30,49.006 76.706,2.097 150.707,75.909 119.923,107.027 
	107.813,107.031 107.804,119.148 78.708,148.243 30,99.531 "/>
<polygon id="Горизонтальная" points="469,107 37.974,107 33.484,103.016 469,103 "/>
<polygon fill="#FAE90A" points="107.804,119.186 107.812,107.069 119.923,107.027 "/>
<polygon id="Вертикальная" points="108,118.989 104,122.969 104,29.301 108,33.311 "/>
<path fill="#F0E5E0" stroke="#333333" stroke-width="2" stroke-miterlimit="10" d="M161,85h-18v8h20v6h-32V66h31v6h-19v7h18V85z
	 M179.11,75l3.552,3.696c1.036,1.225,1.998,2.304,2.959,3.304h0.148c0.962-1,1.85-2.227,2.812-3.402L191.763,75h12.208
	l-11.913,11.437L204.119,99h-12.727l-3.625-4.343C186.731,93.48,185.843,92,184.956,91h-0.222c-0.888,1-1.85,2.48-2.737,3.657
	L178.592,99h-12.356l12.282-12.221L166.532,75H179.11z M209,64h11v14h0.322c1.184-1,2.664-2.045,4.439-2.682
	c1.628-0.588,3.644-1.047,5.716-1.047c7.177,0,12.523,3.166,12.523,10.369V99h-11V85.474c0-3.136-1.622-5.292-5.839-5.292
	c-2.959,0-4.893,1.273-5.707,2.597c-0.296,0.49-0.454,1.127-0.454,1.666V99h-11V64z M263.902,68.031
	c0,2.058-2.368,3.724-6.067,3.724c-3.551,0-5.919-1.666-5.845-3.724c-0.074-2.156,2.294-3.772,5.919-3.772
	S263.828,65.875,263.902,68.031z M252,99V75h12v24H252z M272.262,99c0.148-2,0.738-4.806,0.738-7.5V64h11v14h-0.047
	c2.146-3,5.919-3.613,10.951-3.613c8.657,0,15.02,4.636,14.946,11.986c0,8.624-8.287,12.717-16.574,12.717
	c-4.217,0-8.287-1.09-10.876-4.09h-0.148l-0.444,4H272.262z M284,88.462c0,0.49-0.023,0.931,0.125,1.323
	c0.74,2.009,3.281,3.527,6.536,3.527c4.81,0,7.745-2.45,7.745-6.762c0-3.724-2.528-6.663-7.781-6.663
	c-3.034,0-5.754,1.519-6.493,3.675c-0.148,0.44-0.131,0.882-0.131,1.372V88.462z M328.42,68.031c0,2.058-2.368,3.724-6.067,3.724
	c-3.551,0-5.919-1.666-5.845-3.724c-0.074-2.156,2.294-3.772,5.919-3.772S328.346,65.875,328.42,68.031z M317,99V75h11v24H317z
	 M350,67.835V75h8v5h-8v8.854c0,2.892,0.863,4.214,4.267,4.214c1.406,0,2.429-0.098,3.243-0.196l0.031,5.635
	c-1.48,0.393-4.165,0.637-7.347,0.637c-3.625,0-6.485-0.832-8.261-2.058C339.862,95.664,339,93.361,339,89.98V80h-5v-5h5v-5.5
	L350,67.835z M375.846,68.031c0,2.058-2.368,3.724-6.067,3.724c-3.551,0-5.919-1.666-5.845-3.724
	c-0.074-2.156,2.294-3.772,5.919-3.772S375.772,65.875,375.846,68.031z M364,99V75h11v24H364z M420.24,86.404
	c0,8.771-9.397,12.788-19.09,12.788c-10.581,0-18.719-4.606-18.719-12.348s7.695-12.689,19.311-12.689
	C412.84,74.155,420.24,79.202,420.24,86.404z M394.047,86.649c0,4.115,2.59,7.202,7.399,7.202c4.365,0,7.177-2.891,7.177-7.202
	c0-3.577-2.072-7.203-7.177-7.203C396.044,79.446,394.047,83.121,394.047,86.649z M427,82.338c0-2.989,0.046-5.338-0.101-7.338
	h9.767l0.518,3h0.222c1.48-2,5.417-3.833,11.41-3.833c7.399,0,13.185,3.222,13.185,10.277V99h-12V85.375
	c0-3.087-1.488-5.193-5.557-5.193c-3.108,0-5.109,1.421-5.848,2.793c-0.296,0.44-0.595,1.176-0.595,1.861V99h-11V82.338z"/>
</svg>
