<?xml version="1.0" encoding="utf-8"?>
<!-- Generator: Adobe Illustrator 17.0.0, SVG Export Plug-In . SVG Version: 6.00 Build 0)  -->
<!DOCTYPE svg PUBLIC "-//W3C//DTD SVG 1.1//EN" "http://www.w3.org/Graphics/SVG/1.1/DTD/svg11.dtd">
<svg version="1.1" id="Слой_1" opacity="0.6" xmlns="http://www.w3.org/2000/svg" xmlns:xlink="http://www.w3.org/1999/xlink"
	 x="0px" y="0px" width="201px" height="318px" viewBox="-5 0.5 201 318" enable-background="new -5 0.5 201 318"
	 xml:space="preserve">
<g id="Низ_1_">
	<polyline fill="#FFD933" points="122.573,84.973 167.823,39.716 127.838,0.106 170.271,0 170,39.716 170,39.716 170,317.89 
		127.814,317.901 88.001,278.078 167.303,199.009 122.91,153.857 88.173,119.188 167.816,39.716 	"/>
	<g>
		<polygon fill="#FFFFFF" points="130.632,251.545 130.632,251.545 104.216,277.9 104.216,277.9 130.887,304.52 130.887,304.52 
			157.123,277.978 157.123,277.978 122.412,243.847 122.412,243.847 122.412,243.847 		"/>
		<polygon fill="#FFFFFF" points="164.863,111.5 157.05,119.294 130.635,92.939 130.635,92.939 103.954,119.548 103.954,119.548 
			130.557,145.725 130.557,145.725 157.05,119.294 157.05,119.294 		"/>
	</g>
</g>
<g id="Верх_1_">
	<polyline fill="#FFD933" points="24.15,278.187 64.135,317.796 21.715,317.902 22,278.187 22,278.187 22,0.012 64.173,0.002 
		103.979,39.824 24.674,118.894 69.065,164.045 103.801,198.715 24.15,278.187 	"/>
	<g>
		<polygon fill="#FFFFFF" points="95.894,190.876 88.081,198.671 61.666,172.316 61.666,172.316 34.984,198.925 34.984,198.925 
			61.588,225.101 61.588,225.101 88.081,198.671 88.081,198.671 		"/>
		<polygon fill="#FFFFFF" points="95.932,31.678 88.119,39.473 61.704,13.118 61.704,13.118 35.023,39.727 35.023,39.727 
			61.626,65.903 61.626,65.903 88.119,39.473 88.119,39.473 		"/>
	</g>
</g>
<polyline id="Средина_1_" fill="#FFFFFF" points="64,318.5 128.016,318.5 88.102,278.378 167.772,198.741 88.177,119.254 
	167.681,40.092 127.838,0.5 64.064,0.5 103.871,40.021 24.201,119.41 103.796,198.773 24.15,278.211 64.068,318.109 "/>
<rect id="Верх_край_1_" y="0.5" fill="#FFFFFF" width="17" height="318"/>
<rect id="Нижний_край_1_" x="175" y="0.5" fill="#FFFFFF" width="17" height="318"/>
<line fill="none" x1="124" y1="11.5" x2="124" y2="10.5"/>
<g>
	<rect x="139" y="11.5" width="5" height="5"/>
	<rect x="154" y="27.5" width="6" height="5"/>
	<rect x="149" y="21.5" width="5" height="6"/>
	<rect x="144" y="16.5" width="5" height="5"/>
	<rect x="133" y="5.5" width="6" height="6"/>
</g>
<rect x="165" y="37.5" width="5" height="5"/>
<rect x="160" y="42.5" width="5" height="6"/>
<rect x="154" y="48.5" width="6" height="5"/>
<rect x="149" y="53.5" width="5" height="5"/>
<rect x="144" y="58.5" width="5" height="6"/>
<rect x="117" y="85.5" width="6" height="5"/>
<rect x="138" y="64.5" width="6" height="5"/>
<rect x="133" y="69.5" width="5" height="5"/>
<rect x="128" y="74.5" width="5" height="6"/>
<rect x="123" y="80.5" width="5" height="5"/>
<rect x="107" y="95.5" width="5" height="6"/>
<rect x="112" y="90.5" width="5" height="5"/>
<rect x="91" y="111.5" width="5" height="6"/>
<rect x="101" y="101.5" width="6" height="5"/>
<rect x="96" y="106.5" width="5" height="5"/>
<rect x="160" y="201.5" width="5" height="6"/>
<rect x="154" y="207.5" width="6" height="5"/>
<rect x="149" y="212.5" width="5" height="5"/>
<rect x="144" y="217.5" width="5" height="6"/>
<rect x="138" y="223.5" width="6" height="5"/>
<rect x="133" y="228.5" width="5" height="5"/>
<rect x="128" y="233.5" width="5" height="5"/>
<rect x="123" y="238.5" width="5" height="6"/>
<rect x="27" y="122.5" width="5" height="5"/>
<rect x="22" y="117.5" width="5" height="5"/>
<rect x="101" y="196.5" width="6" height="5"/>
<rect x="32" y="127.5" width="6" height="6"/>
<rect x="38" y="133.5" width="5" height="5"/>
<rect x="43" y="138.5" width="5" height="5"/>
<rect x="48" y="143.5" width="5" height="5"/>
<rect x="53" y="148.5" width="6" height="6"/>
<rect x="59" y="154.5" width="5" height="5"/>
<rect x="64" y="159.5" width="5" height="5"/>
<rect x="69" y="164.5" width="6" height="6"/>
<rect x="75" y="170.5" width="5" height="5"/>
<rect x="80" y="175.5" width="5" height="5"/>
<rect x="85" y="180.5" width="6" height="5"/>
<rect x="91" y="185.5" width="5" height="6"/>
<rect x="96" y="191.5" width="5" height="5"/>
<g>
	<path id="Н.кв_1_" d="M21.607,280.811"/>
	<polygon points="96,206.651 96,201.5 101.221,201.5 101.205,206.686 	"/>
	<rect x="91" y="207.5" width="5" height="5"/>
	<rect x="85" y="212.5" width="6" height="5"/>
	<rect x="80" y="217.5" width="5" height="6"/>
	<rect x="75" y="223.5" width="5" height="5"/>
	<rect x="69" y="228.5" width="6" height="5"/>
	<rect x="43" y="254.5" width="5" height="6"/>
	<rect x="64" y="233.5" width="5" height="5"/>
	<rect x="59" y="238.5" width="5" height="6"/>
	<rect x="53" y="244.5" width="6" height="5"/>
	<rect x="48" y="249.5" width="5" height="5"/>
	<rect x="32" y="265.5" width="6" height="5"/>
	<rect x="38" y="260.5" width="5" height="5"/>
	<rect x="27" y="270.5" width="5" height="6"/>
	<rect x="22" y="276.5" width="5" height="5"/>
</g>
<rect x="123" y="313.5" width="5" height="5"/>
<rect x="128" y="0.5" width="5" height="5"/>
<rect x="187" y="0.5" width="5" height="5"/>
<rect x="187" y="10.5" width="5" height="4"/>
<rect x="187" y="20.5" width="5" height="4"/>
<rect x="187" y="30.5" width="5" height="5"/>
<rect x="187" y="40.5" width="5" height="4"/>
<rect x="187" y="50.5" width="5" height="4"/>
<rect x="187" y="59.5" width="5" height="5"/>
<rect x="187" y="69.5" width="5" height="5"/>
<rect x="187" y="79.5" width="5" height="5"/>
<rect x="187" y="89.5" width="5" height="5"/>
<rect x="187" y="99.5" width="5" height="5"/>
<rect x="187" y="109.5" width="5" height="4"/>
<rect x="187" y="119.5" width="5" height="4"/>
<rect x="187" y="129.5" width="5" height="4"/>
<rect x="187" y="139.5" width="5" height="4"/>
<rect x="187" y="149.5" width="5" height="4"/>
<rect x="187" y="159.5" width="5" height="4"/>
<rect x="187" y="169.5" width="5" height="4"/>
<rect x="187" y="178.5" width="5" height="4"/>
<rect x="187" y="188.5" width="5" height="4"/>
<rect x="187" y="198.5" width="5" height="4"/>
<rect x="187" y="208.5" width="5" height="4"/>
<rect x="187" y="218.5" width="5" height="4"/>
<rect x="187" y="228.5" width="5" height="4"/>
<rect x="187" y="238.5" width="5" height="4"/>
<rect x="187" y="248.5" width="5" height="4"/>
<rect x="187" y="258.5" width="5" height="4"/>
<rect x="187" y="268.5" width="5" height="4"/>
<rect x="187" y="278.5" width="5" height="4"/>
<rect x="187" y="288.5" width="5" height="4"/>
<rect x="187" y="298.5" width="5" height="4"/>
<polyline points="170,318.5 170,0.5 175,0.5 175,318.5 "/>
<polyline points="182,318.5 182,0.5 187,0.5 187,318.5 "/>
<rect x="187" y="308.5" width="5" height="4"/>
<g>
	<rect x="32" y="286.5" width="6" height="5"/>
	<rect x="48" y="302.5" width="5" height="5"/>
	<rect x="43" y="297.5" width="5" height="5"/>
	<rect x="38" y="291.5" width="5" height="6"/>
	<rect x="27" y="281.5" width="5" height="5"/>
</g>
<rect x="59" y="313.5" width="5" height="5"/>
<rect x="53" y="307.5" width="6" height="6"/>
<rect x="160" y="32.5" width="5" height="5"/>
<g>
	<g>
		<rect x="91" y="122.5" width="5" height="5"/>
		<rect x="85" y="117.5" width="6" height="5"/>
		<rect x="96" y="127.5" width="5" height="6"/>
		<rect x="101" y="133.5" width="6" height="5"/>
		<rect x="107" y="138.5" width="5" height="5"/>
		<rect x="112" y="143.5" width="5" height="5"/>
		<rect x="117" y="148.5" width="6" height="6"/>
		<rect x="123" y="154.5" width="5" height="5"/>
		<rect x="128" y="159.5" width="5" height="5"/>
		<rect x="133" y="164.5" width="5" height="6"/>
		<rect x="138" y="170.5" width="6" height="5"/>
		<rect x="144" y="175.5" width="5" height="5"/>
		<rect x="149" y="180.5" width="5" height="6"/>
		<rect x="154" y="186.5" width="6" height="5"/>
		<rect x="160" y="191.5" width="5" height="5"/>
	</g>
	<rect x="165" y="196.5" width="5" height="5"/>
</g>
<rect x="96" y="265.5" width="5" height="5"/>
<rect x="91" y="270.5" width="5" height="5"/>
<rect x="85" y="275.5" width="6" height="6"/>
<g>
	<rect x="91" y="281.5" width="5" height="5"/>
	<rect x="101" y="291.5" width="6" height="6"/>
	<rect x="117" y="307.5" width="6" height="5"/>
	<rect x="112" y="302.5" width="5" height="5"/>
	<rect x="107" y="297.5" width="5" height="5"/>
	<rect x="96" y="286.5" width="5" height="5"/>
</g>
<rect x="117" y="244.5" width="6" height="5"/>
<rect x="112" y="249.5" width="5" height="5"/>
<rect x="107" y="254.5" width="5" height="6"/>
<rect x="101" y="260.5" width="6" height="5"/>
<polyline points="22,318.5 22,0.5 17,0.5 17,318.5 "/>
<polyline points="10,318.5 10,0.5 5,0.5 5,318.5 "/>
<g>
	<rect y="0.5" width="5" height="5"/>
	<rect y="10.5" width="5" height="5"/>
	<rect y="20.5" width="5" height="4"/>
	<rect y="30.5" width="5" height="5"/>
	<rect y="40.5" width="5" height="5"/>
	<rect y="50.5" width="5" height="4"/>
	<rect y="59.5" width="5" height="5"/>
	<rect y="69.5" width="5" height="5"/>
	<rect y="79.5" width="5" height="5"/>
	<rect y="89.5" width="5" height="5"/>
	<rect y="99.5" width="5" height="5"/>
	<rect y="109.5" width="5" height="4"/>
	<rect y="119.5" width="5" height="4"/>
	<rect y="129.5" width="5" height="4"/>
	<rect y="139.5" width="5" height="4"/>
	<rect y="149.5" width="5" height="4"/>
	<rect y="159.5" width="5" height="4"/>
	<rect y="169.5" width="5" height="4"/>
	<rect y="178.5" width="5" height="4"/>
	<rect y="188.5" width="5" height="4"/>
	<rect y="198.5" width="5" height="4"/>
	<rect y="208.5" width="5" height="4"/>
	<rect y="218.5" width="5" height="4"/>
	<rect y="228.5" width="5" height="4"/>
	<rect y="238.5" width="5" height="4"/>
	<rect y="248.5" width="5" height="4"/>
	<rect y="258.5" width="5" height="4"/>
	<rect y="268.5" width="5" height="4"/>
	<rect y="278.5" width="5" height="4"/>
	<rect y="288.5" width="5" height="4"/>
	<rect y="298.5" width="5" height="4"/>
	<rect y="308.5" width="5" height="4"/>
</g>
<g>
	<g>
		<rect x="85" y="21.5" width="6" height="6"/>
		<rect x="96" y="32.5" width="5" height="5"/>
		<rect x="91" y="27.5" width="5" height="5"/>
		<rect x="80" y="16.5" width="5" height="5"/>
	</g>
	<rect x="101" y="37.5" width="6" height="5"/>
	<rect x="96" y="42.5" width="5" height="6"/>
	<rect x="91" y="48.5" width="5" height="5"/>
	<rect x="85" y="53.5" width="6" height="5"/>
	<rect x="80" y="58.5" width="5" height="6"/>
	<rect x="75" y="64.5" width="5" height="5"/>
	<rect x="48" y="90.5" width="5" height="5"/>
	<rect x="69" y="69.5" width="6" height="5"/>
	<rect x="64" y="74.5" width="5" height="5"/>
	<rect x="59" y="79.5" width="5" height="6"/>
	<rect x="53" y="85.5" width="6" height="5"/>
	<rect x="38" y="101.5" width="5" height="5"/>
	<rect x="43" y="95.5" width="5" height="6"/>
	<rect x="32" y="106.5" width="6" height="5"/>
	<rect x="27" y="111.5" width="5" height="6"/>
	<rect x="75" y="11.5" width="5" height="5"/>
	<rect x="69" y="6.5" width="6" height="5"/>
	<rect x="64" y="0.5" width="5" height="5"/>
</g>
<g>
	<rect x="128" y="191.5" fill="#690D0D" width="16" height="16"/>
	<rect x="138" y="201.5" fill="#D11919" width="11" height="11"/>
	<rect x="138" y="186.5" fill="#D11919" width="11" height="10"/>
	<rect x="122" y="201.5" fill="#D11919" width="11" height="11"/>
	<rect x="122" y="186.5" fill="#D11919" width="11" height="10"/>
</g>
<g>
	<rect x="101" y="164.5" fill="#690D0D" width="16" height="16"/>
	<rect x="112" y="175.5" fill="#D11919" width="10" height="11"/>
	<rect x="112" y="159.5" fill="#D11919" width="10" height="11"/>
	<rect x="96" y="175.5" fill="#D11919" width="11" height="10"/>
	<rect x="96" y="159.5" fill="#D11919" width="11" height="11"/>
</g>
<g>
	<rect x="101" y="217.5" fill="#690D0D" width="16" height="16"/>
	<rect x="112" y="228.5" fill="#D11919" width="11" height="10"/>
	<rect x="112" y="212.5" fill="#D11919" width="11" height="11"/>
	<rect x="96" y="228.5" fill="#D11919" width="11" height="10"/>
	<rect x="96" y="212.5" fill="#D11919" width="11" height="11"/>
</g>
<g>
	<rect x="75" y="244.5" fill="#690D0D" width="16" height="16"/>
	<rect x="85" y="254.5" fill="#D11919" width="11" height="11"/>
	<rect x="85" y="239.5" fill="#D11919" width="11" height="10"/>
	<rect x="69" y="254.5" fill="#D11919" width="11" height="11"/>
	<rect x="69" y="239.5" fill="#D11919" width="11" height="10"/>
</g>
<g>
	<rect x="48" y="270.5" fill="#690D0D" width="16" height="16"/>
	<rect x="59" y="281.5" fill="#D11919" width="10" height="10"/>
	<rect x="59" y="265.5" fill="#D11919" width="10" height="10"/>
	<rect x="43" y="281.5" fill="#D11919" width="10" height="10"/>
	<rect x="43" y="265.5" fill="#D11919" width="10" height="10"/>
</g>
<g>
	<rect x="75" y="138.5" fill="#690D0D" width="16" height="16"/>
	<rect x="85" y="148.5" fill="#D11919" width="11" height="11"/>
	<rect x="85" y="133.5" fill="#D11919" width="11" height="10"/>
	<rect x="69" y="148.5" fill="#D11919" width="11" height="11"/>
	<rect x="69" y="133.5" fill="#D11919" width="11" height="10"/>
</g>
<g>
	<rect x="48" y="111.5" fill="#690D0D" width="16" height="16"/>
	<rect x="59" y="122.5" fill="#D11919" width="11" height="11"/>
	<rect x="59" y="106.5" fill="#D11919" width="11" height="11"/>
	<rect x="43" y="122.5" fill="#D11919" width="11" height="11"/>
	<rect x="43" y="106.5" fill="#D11919" width="11" height="11"/>
</g>
<g>
	<rect x="75" y="85.5" fill="#690D0D" width="16" height="16"/>
	<rect x="86" y="95.5" fill="#D11919" width="10" height="11"/>
	<rect x="86" y="80.5" fill="#D11919" width="10" height="10"/>
	<rect x="69" y="95.5" fill="#D11919" width="11" height="11"/>
	<rect x="69" y="80.5" fill="#D11919" width="11" height="10"/>
</g>
<g>
	<rect x="101" y="58.5" fill="#690D0D" width="16" height="16"/>
	<rect x="112" y="69.5" fill="#D11919" width="11" height="11"/>
	<rect x="112" y="53.5" fill="#D11919" width="11" height="11"/>
	<rect x="96" y="69.5" fill="#D11919" width="11" height="10"/>
	<rect x="96" y="53.5" fill="#D11919" width="11" height="11"/>
</g>
<rect x="128" y="32.5" fill="#690D0D" width="16" height="16"/>
<rect x="139" y="42.5" fill="#D11919" width="10" height="11"/>
<rect x="139" y="27.5" fill="#D11919" width="10" height="10"/>
<rect x="122" y="42.5" fill="#D11919" width="11" height="11"/>
<rect x="122" y="27.5" fill="#D11919" width="11" height="10"/>
<g>
	<rect x="75" y="297.5" fill="#690D0D" width="16" height="16"/>
	<rect x="86" y="307.5" fill="#D11919" width="10" height="11"/>
	<rect x="86" y="291.5" fill="#D11919" width="10" height="11"/>
	<rect x="69" y="307.5" fill="#D11919" width="11" height="11"/>
	<rect x="69" y="291.5" fill="#D11919" width="11" height="11"/>
</g>
<g>
	<rect x="101" y="5.5" fill="#690D0D" width="16" height="16"/>
	<rect x="112" y="16.5" fill="#D11919" width="10" height="11"/>
	<rect x="112" y="0.5" fill="#D11919" width="10" height="11"/>
	<rect x="96" y="16.5" fill="#D11919" width="11" height="11"/>
	<rect x="96" y="0.5" fill="#D11919" width="11" height="11"/>
</g>
<g>
	<rect x="96" y="117.5" fill="#DE1B1B" width="32" height="5"/>
	<rect x="101" y="111.5" fill="#DE1B1B" width="21" height="16"/>
	<rect x="107" y="106.5" fill="#DE1B1B" width="10" height="27"/>
</g>
<rect x="128" y="122.5" fill="#DE1B1B" width="5" height="32"/>
<rect x="123" y="127.5" fill="#DE1B1B" width="16" height="21"/>
<rect x="117" y="133.5" fill="#DE1B1B" width="27" height="10"/>
<g>
	<rect x="133" y="117.5" fill="#DE1B1B" width="32" height="5"/>
	<rect x="138" y="111.5" fill="#DE1B1B" width="22" height="16"/>
	<rect x="144" y="106.5" fill="#DE1B1B" width="11" height="27"/>
</g>
<g>
	<rect x="128" y="85.5" fill="#DE1B1B" width="5" height="32"/>
	<rect x="123" y="90.5" fill="#DE1B1B" width="16" height="21"/>
	<rect x="117" y="95.5" fill="#DE1B1B" width="27" height="11"/>
</g>
<g>
	<g>
		<rect x="96" y="275.5" fill="#DE1B1B" width="32" height="6"/>
		<rect x="101" y="270.5" fill="#DE1B1B" width="21" height="16"/>
		<rect x="107" y="265.5" fill="#DE1B1B" width="10" height="26"/>
	</g>
	<g>
		<rect x="128" y="281.5" fill="#DE1B1B" width="5" height="31"/>
		<rect x="123" y="286.5" fill="#DE1B1B" width="16" height="21"/>
		<rect x="117" y="291.5" fill="#DE1B1B" width="27" height="11"/>
	</g>
	<g>
		<rect x="133" y="275.5" fill="#DE1B1B" width="32" height="6"/>
		<rect x="139" y="270.5" fill="#DE1B1B" width="21" height="16"/>
		<rect x="144" y="265.5" fill="#DE1B1B" width="11" height="26"/>
	</g>
	<g>
		<rect x="128" y="244.5" fill="#DE1B1B" width="5" height="31"/>
		<rect x="123" y="249.5" fill="#DE1B1B" width="16" height="21"/>
		<rect x="117" y="254.5" fill="#DE1B1B" width="27" height="11"/>
	</g>
</g>
<g>
	<g>
		<rect x="27" y="196.5" fill="#DE1B1B" width="32" height="5"/>
		<rect x="32" y="191.5" fill="#DE1B1B" width="21" height="16"/>
		<rect x="38" y="185.5" fill="#DE1B1B" width="10" height="27"/>
	</g>
	<g>
		<rect x="59" y="201.5" fill="#DE1B1B" width="5" height="32"/>
		<rect x="53" y="207.5" fill="#DE1B1B" width="16" height="21"/>
		<rect x="48" y="212.5" fill="#DE1B1B" width="27" height="11"/>
	</g>
	<g>
		<rect x="64" y="196.5" fill="#DE1B1B" width="32" height="5"/>
		<rect x="69" y="191.5" fill="#DE1B1B" width="22" height="16"/>
		<rect x="75" y="185.5" fill="#DE1B1B" width="11" height="27"/>
	</g>
	<g>
		<rect x="59" y="164.5" fill="#DE1B1B" width="5" height="32"/>
		<rect x="53" y="170.5" fill="#DE1B1B" width="16" height="21"/>
		<rect x="48" y="175.5" fill="#DE1B1B" width="27" height="10"/>
	</g>
</g>
<g>
	<g>
		<rect x="27" y="37.5" fill="#DE1B1B" width="32" height="5"/>
		<rect x="32" y="32.5" fill="#DE1B1B" width="21" height="16"/>
		<rect x="38" y="26.5" fill="#DE1B1B" width="10" height="27"/>
	</g>
	<g>
		<rect x="59" y="42.5" fill="#DE1B1B" width="5" height="32"/>
		<rect x="53" y="48.5" fill="#DE1B1B" width="16" height="21"/>
		<rect x="48" y="53.5" fill="#DE1B1B" width="27" height="11"/>
	</g>
	<g>
		<rect x="64" y="37.5" fill="#DE1B1B" width="32" height="5"/>
		<rect x="69" y="32.5" fill="#DE1B1B" width="22" height="16"/>
		<rect x="75" y="26.5" fill="#DE1B1B" width="11" height="27"/>
	</g>
	<g>
		<rect x="59" y="5.5" fill="#DE1B1B" width="5" height="32"/>
		<rect x="53" y="11.5" fill="#DE1B1B" width="16" height="21"/>
		<rect x="48" y="16.5" fill="#DE1B1B" width="27" height="10"/>
	</g>
</g>
<g>
	<g>
		<g>
			<rect x="144" y="148.5" width="5" height="11"/>
			<rect x="149" y="138.5" width="5" height="16"/>
			<rect x="165" y="127.5" width="5" height="11"/>
			<rect x="139" y="154.5" width="5" height="10"/>
			<rect x="154" y="138.5" width="6" height="5"/>
			<rect x="160" y="133.5" width="5" height="10"/>
		</g>
		<g>
			<rect x="154" y="154.5" fill="#D11919" width="11" height="26"/>
			<rect x="149" y="159.5" fill="#D11919" width="21" height="16"/>
		</g>
	</g>
	<g>
		<g>
			<rect x="144" y="80.5" width="5" height="10"/>
			<rect x="149" y="85.5" width="5" height="16"/>
			<rect x="165" y="101.5" width="5" height="10"/>
			<rect x="138" y="74.5" width="6" height="11"/>
			<rect x="154" y="95.5" width="6" height="6"/>
			<rect x="160" y="95.5" width="5" height="11"/>
		</g>
		<g>
			<rect x="154" y="58.5" fill="#D11919" width="11" height="27"/>
			<rect x="149" y="64.5" fill="#D11919" width="21" height="15"/>
		</g>
	</g>
</g>
<rect x="138" y="0.5" width="6" height="5"/>
<g>
	<rect x="154" y="0.5" fill="#D11919" width="11" height="21"/>
	<rect x="149" y="0.5" fill="#D11919" width="21" height="16"/>
</g>
<rect x="144" y="309.5" width="5" height="9"/>
<rect x="149" y="297.5" width="5" height="16"/>
<rect x="165" y="286.5" width="5" height="11"/>
<rect x="138" y="313.5" width="6" height="5"/>
<rect x="154" y="297.5" width="6" height="5"/>
<rect x="160" y="292.5" width="5" height="10"/>
<rect x="154" y="313.5" fill="#D11919" width="11" height="5"/>
<g>
	<rect x="144" y="238.5" width="5" height="11"/>
	<rect x="149" y="244.5" width="5" height="16"/>
	<rect x="165" y="260.5" width="5" height="10"/>
	<rect x="138" y="233.5" width="6" height="11"/>
	<rect x="154" y="254.5" width="6" height="6"/>
	<rect x="160" y="254.5" width="5" height="11"/>
</g>
<rect x="154" y="217.5" fill="#D11919" width="11" height="27"/>
<rect x="149" y="223.5" fill="#D11919" width="21" height="15"/>
<rect x="48" y="313.5" width="5" height="5"/>
<g>
	<rect x="27" y="297.5" fill="#D11919" width="11" height="21"/>
	<rect x="22" y="302.5" fill="#D11919" width="21" height="16"/>
</g>
<g>
	<g>
		<g>
			<rect x="43" y="228.5" width="5" height="11"/>
			<rect x="38" y="217.5" width="5" height="16"/>
			<rect x="22" y="207.5" width="5" height="10"/>
			<rect x="48" y="233.5" width="5" height="11"/>
			<rect x="32" y="217.5" width="6" height="6"/>
			<rect x="27" y="212.5" width="5" height="11"/>
		</g>
		<g>
			<rect x="27" y="233.5" fill="#D11919" width="11" height="27"/>
			<rect x="22" y="239.5" fill="#D11919" width="21" height="15"/>
		</g>
	</g>
	<g>
		<g>
			<rect x="43" y="159.5" width="5" height="11"/>
			<rect x="38" y="164.5" width="5" height="16"/>
			<rect x="22" y="180.5" width="5" height="11"/>
			<rect x="48" y="154.5" width="5" height="10"/>
			<rect x="32" y="175.5" width="6" height="5"/>
			<rect x="27" y="175.5" width="5" height="10"/>
		</g>
		<g>
			<rect x="27" y="138.5" fill="#D11919" width="11" height="26"/>
			<rect x="22" y="143.5" fill="#D11919" width="21" height="16"/>
		</g>
	</g>
</g>
<g>
	<g>
		<rect x="43" y="69.5" width="5" height="11"/>
		<rect x="38" y="58.5" width="5" height="16"/>
		<rect x="22" y="48.5" width="5" height="10"/>
		<rect x="48" y="74.5" width="5" height="11"/>
		<rect x="32" y="58.5" width="6" height="6"/>
		<rect x="27" y="53.5" width="5" height="11"/>
	</g>
	<g>
		<rect x="27" y="74.5" fill="#D11919" width="11" height="27"/>
		<rect x="22" y="80.5" fill="#D11919" width="21" height="15"/>
	</g>
</g>
<rect x="43" y="0.5" width="5" height="11"/>
<rect x="38" y="5.5" width="5" height="16"/>
<rect x="22" y="21.5" width="5" height="11"/>
<rect x="48" y="0.5" width="6" height="5"/>
<rect x="32" y="16.5" width="6" height="5"/>
<rect x="27" y="16.5" width="5" height="10"/>
<rect x="27" y="0.5" fill="#D11919" width="11" height="5"/>
<g id="Желтая_середина_1_">
	<rect x="122" y="16.5" fill="#FFD933" width="11" height="11"/>
	<rect x="112" y="27.5" fill="#FFD933" width="11" height="10"/>
	<rect x="69" y="122.5" fill="#FFD933" width="11" height="11"/>
	<rect x="59" y="132.5" fill="#FFD933" width="10" height="11"/>
	<rect x="96" y="149.5" fill="#FFD933" width="11" height="10"/>
	<rect x="85" y="159.5" fill="#FFD933" width="11" height="11"/>
	<rect x="122" y="175.5" fill="#FFD933" width="11" height="11"/>
	<rect x="112" y="186.5" fill="#FFD933" width="10" height="10"/>
	<rect x="69" y="281.5" fill="#FFD933" width="11" height="10"/>
	<rect x="59" y="291.5" fill="#FFD933" width="10" height="11"/>
	<rect x="69" y="265.5" fill="#FFD933" width="11" height="11"/>
	<rect x="59" y="254.5" fill="#FFD933" width="10" height="11"/>
	<rect x="96" y="238.5" fill="#FFD933" width="11" height="11"/>
	<rect x="85" y="228.5" fill="#FFD933" width="11" height="11"/>
	<rect x="123" y="212.5" fill="#FFD933" width="10" height="11"/>
	<rect x="112" y="201.5" fill="#FFD933" width="11" height="11"/>
	<rect x="69" y="106.5" fill="#FFD933" width="11" height="11"/>
	<rect x="59" y="95.5" fill="#FFD933" width="11" height="11"/>
	<rect x="96" y="80.5" fill="#FFD933" width="11" height="10"/>
	<rect x="85" y="69.5" fill="#FFD933" width="11" height="11"/>
	<rect x="123" y="53.5" fill="#FFD933" width="10" height="11"/>
	<rect x="112" y="42.5" fill="#FFD933" width="11" height="11"/>
	<rect x="86" y="0.5" fill="#FFD933" width="10" height="11"/>
	<rect x="96" y="307.5" fill="#FFD933" width="11" height="11"/>
</g>
<linearGradient id="SVGID_1_" gradientUnits="userSpaceOnUse" x1="-5" y1="160.75" x2="196" y2="160.75">
	<stop  offset="0" style="stop-color:#FFFFFF"/>
	<stop  offset="0.62" style="stop-color:#FFFFFF;stop-opacity:0"/>
</linearGradient>
<rect x="-5" fill="url(#SVGID_1_)" width="201" height="321.5"/>
</svg>
